SplineFontDB: 3.0
FontName: SUN6.0
FullName: SUN6.0
FamilyName: SUN6.0
Weight: Regular
Copyright: 
UComments: "2017-6-29: Created with FontForge (http://fontforge.org)"
Version: 001.000
ItalicAngle: 0
UnderlinePosition: -100
UnderlineWidth: 50
Ascent: 800
Descent: 200
InvalidEm: 0
LayerCount: 4
Layer: 0 0 "Back" 1
Layer: 1 0 "Fore" 0
Layer: 2 0 "Back 2" 1
Layer: 3 0 "Back 3" 1
XUID: [1021 90 1308529427 3215012]
StyleMap: 0x0000
FSType: 0
OS2Version: 0
OS2_WeightWidthSlopeOnly: 0
OS2_UseTypoMetrics: 1
CreationTime: 1498745959
ModificationTime: 1553028081
PfmFamily: 17
TTFWeight: 400
TTFWidth: 5
LineGap: 90
VLineGap: 90
OS2TypoAscent: 0
OS2TypoAOffset: 1
OS2TypoDescent: 0
OS2TypoDOffset: 1
OS2TypoLinegap: 90
OS2WinAscent: 0
OS2WinAOffset: 1
OS2WinDescent: 0
OS2WinDOffset: 1
HheadAscent: 0
HheadAOffset: 1
HheadDescent: 0
HheadDOffset: 1
OS2Vendor: 'PfEd'
MarkAttachClasses: 1
DEI: 91125
LangName: 1033
Encoding: Custom
UnicodeInterp: none
NameList: Adobe Glyph List
DisplaySize: -48
AntiAlias: 1
FitToEm: 0
WidthSeparation: 5
WinInfo: 2838 22 11
BeginPrivate: 0
EndPrivate
Grid
-1000 1518.72558594 m 0
 2000 1518.72558594 l 1024
-1000 -183 m 0
 2000 -183 l 1024
-1000 855.767089844 m 0
 2000 855.767089844 l 1024
-1000 968 m 0
 2000 968 l 1024
1353 1248 m 0
 1593 -660 l 1024
  Named: "Right"
-141 1284 m 0
 -300 -702 l 1024
  Named: "Left"
-1000 751.110443115 m 0
 2000 751.110443115 l 1024
EndSplineSet
AnchorClass2: "3"""  "2"""  "1"""  "aa""" 
BeginChars: 5456 5249

StartChar: uni000F
Encoding: -1 15 0
Width: 1000
VWidth: 0
LayerCount: 4
Back
SplineSet
875.27734375 446.388671875 m 1
 776.95703125 407.381835938 611.321289062 374.529296875 505.555664062 373.055664062 c 0
 399.764648438 374.404296875 234.129882812 407.256835938 135.833007812 446.388671875 c 1
 234.18359375 485.654296875 399.943359375 518.6328125 505.833007812 520 c 0
 611.532226562 518.4140625 777.04296875 485.436523438 875.27734375 446.388671875 c 1
98.888671875 371.666992188 m 1
 207.21875 327.659179688 390.02734375 290.69921875 506.944335938 289.166992188 c 0
 619.084960938 290.671875 794.924804688 324.893554688 899.444335938 365.555664062 c 1
 866.388671875 139.444335938 702.77734375 -33.3330078125 500 -33.3330078125 c 0
 297.22265625 -33.3330078125 129.72265625 142.5 98.888671875 371.666992188 c 1
961.944335938 500 m 0
 981.79296875 491.748046875 997.970703125 467.606445312 998.055664062 446.111328125 c 0
 998.055664062 446.099609375 998.055664062 446.081054688 998.055664062 446.069335938 c 0
 998.055664062 435.95703125 993.327148438 421.04296875 987.5 412.77734375 c 0
 972.22265625 117.77734375 761.666992188 -116.666992188 500 -116.666992188 c 0
 238.333007812 -116.666992188 25.27734375 120.27734375 11.111328125 416.944335938 c 0
 5.19140625 423.994140625 0.2138671875 437.185546875 0 446.388671875 c 0
 0.142578125 463.171875 12.587890625 482.584960938 27.77734375 489.72265625 c 0
 152.793945312 550.228515625 366.962890625 601.125976562 505.833007812 603.333007812 c 0
 637.662109375 601.04296875 842 554.749023438 961.944335938 500 c 0
505.555664062 519.72265625 m 2
 505.833007812 520 l 2
 399.943359375 518.6328125 234.18359375 485.654296875 135.833007812 446.388671875 c 1
 234.115234375 407.177734375 399.75 374.200195312 505.555664062 372.77734375 c 0
 611.2421875 374.279296875 776.752929688 407.1328125 875 446.111328125 c 1
 776.765625 485.159179688 611.25390625 518.13671875 505.555664062 519.72265625 c 2
500 -33.3330078125 m 0
 698.888671875 -33.3330078125 865 139.72265625 898.333007812 364.72265625 c 1
 793.813476562 324.060546875 617.973632812 289.837890625 505.833007812 288.333007812 c 0
 389.189453125 290.203125 206.87890625 327.536132812 98.888671875 371.666992188 c 1
 129.72265625 142.5 297.22265625 -33.3330078125 500 -33.3330078125 c 0
EndSplineSet
Fore
Validated: 1
EndChar

StartChar: ancestor.91
Encoding: 91 60544 1
Width: 962
VWidth: 0
Flags: W
HStem: -96.3486 39.3115<310.582 688.737> -9.50098 9.95898<483.308 495.26> 225.071 9.35254<405.671 449.007 528.454 573.224> 311.747 26.3477<471.69 629.15> 392.243 38.4111<328.698 684.209> 457.619 10.45<549.452 563.659 573.919 761.52 772.174 786.223> 763.809 10.4504<549.452 561.686 572.261 757.889 767.676 786.223>
VStem: 357.679 8.75293<135.489 184.437> 612.478 8.32812<135.81 183.683> 688.737 41.2627<-57.0371 106 233.4 392.243>
LayerCount: 4
Fore
SplineSet
489.245117188 -9.5 m 0
 489.205078125 -9.5 489.137695312 -9.5009765625 489.098632812 -9.5009765625 c 0
 486.10546875 -9.5009765625 481.969726562 -7.6513671875 479.868164062 -5.3740234375 c 2
 391.1796875 86.5322265625 l 2
 390.004882812 87.5751953125 388.200195312 89.3818359375 387.1484375 90.564453125 c 0
 385.307617188 92.533203125 382.6796875 95.9091796875 378.998046875 100.879882812 c 0
 375.973632812 104.926757812 371.498046875 111.817382812 369.006835938 116.259765625 c 0
 366.262695312 121.334960938 362.689453125 129.989257812 361.032226562 135.578125 c 0
 359.241210938 141.508789062 357.788085938 151.37890625 357.788085938 157.610351562 c 0
 357.788085938 157.7421875 357.788085938 157.954101562 357.7890625 158.086914062 c 0
 357.729492188 159.245117188 357.678710938 161.129882812 357.678710938 162.291015625 c 0
 357.678710938 178.75 366.248046875 201.823242188 376.807617188 213.79296875 c 0
 388.31640625 224.973632812 410.2734375 234.048828125 425.818359375 234.048828125 c 0
 426.8046875 234.048828125 428.404296875 234.0078125 429.388671875 233.955078125 c 0
 434.879882812 233.92578125 443.556640625 232.370117188 448.756835938 230.485351562 c 0
 454.0546875 228.58984375 462.141601562 224.388671875 466.810546875 221.107421875 c 0
 472.155273438 217.35546875 476.801757812 213.79296875 480.744140625 210.415039062 c 0
 484.6875 207.0390625 486.177734375 205.5390625 488.807617188 202.913085938 c 0
 491.436523438 205.5390625 494.06640625 207.977539062 496.870117188 210.415039062 c 0
 499.674804688 212.854492188 505.633789062 217.35546875 510.802734375 221.107421875 c 0
 515.471679688 224.389648438 523.559570312 228.590820312 528.857421875 230.485351562 c 0
 534.158203125 232.518554688 543.032226562 234.2421875 548.6640625 234.331054688 c 0
 549.6484375 234.381835938 551.247070312 234.423828125 552.234375 234.423828125 c 0
 567.779296875 234.423828125 589.736328125 225.348632812 601.24609375 214.166992188 c 0
 612.04296875 202.14453125 620.805664062 178.854492188 620.805664062 162.1796875 c 0
 620.805664062 161.048828125 620.758789062 159.21484375 620.700195312 158.086914062 c 0
 620.700195312 134.453125 609.30859375 110.3515625 586.874023438 86.3447265625 c 2
 498.53515625 -5.0927734375 l 2
 496.459960938 -7.486328125 492.296875 -9.4609375 489.245117188 -9.5 c 0
429.828125 224.952148438 m 0
 428.879882812 225.006835938 427.340820312 225.049804688 426.390625 225.049804688 c 0
 412.599609375 225.049804688 393.134765625 216.98046875 382.94140625 207.0390625 c 0
 373.826171875 196.596679688 366.431640625 176.5234375 366.431640625 162.233398438 c 0
 366.431640625 161.087890625 366.485351562 159.23046875 366.552734375 158.086914062 c 0
 366.616210938 152.552734375 368.029296875 143.814453125 369.708007812 138.579101562 c 0
 371.202148438 133.534179688 374.421875 125.720703125 376.895507812 121.135742188 c 0
 379.142578125 117.000976562 383.184570312 110.573242188 385.920898438 106.7890625 c 0
 389.42578125 102.098632812 391.967773438 98.91015625 393.544921875 97.41015625 c 0
 394.458984375 96.3662109375 396.030273438 94.7705078125 397.05078125 93.8466796875 c 2
 486.090820312 1.94140625 l 2
 486.806640625 1.1220703125 488.241210938 0.4580078125 489.2890625 0.4580078125 c 0
 490.338867188 0.4580078125 491.771484375 1.1220703125 492.48828125 1.94140625 c 2
 581.177734375 93.283203125 l 2
 601.860351562 115.416015625 612.375976562 137.360351562 612.375976562 158.368164062 c 0
 612.431640625 159.408203125 612.477539062 161.099609375 612.477539062 162.141601562 c 0
 612.477539062 176.594726562 604.932617188 196.8359375 595.637695312 207.3203125 c 0
 585.478515625 217.120117188 566.1328125 225.071289062 552.455078125 225.071289062 c 0
 551.407226562 225.071289062 549.708984375 225.018554688 548.6640625 224.952148438 c 0
 543.966796875 224.915039062 536.546875 223.571289062 532.099609375 221.951171875 c 0
 527.395507812 220.291992188 520.211914062 216.594726562 516.0625 213.698242188 c 0
 510.978515625 210.133789062 506.509765625 206.6640625 502.830078125 203.5703125 c 0
 499.7734375 200.846679688 495.061523438 196.141601562 492.3125 193.065429688 c 2
 489.245117188 189.784179688 l 1
 486.177734375 193.065429688 l 2
 483.443359375 196.006835938 478.771484375 200.502929688 475.75 203.100585938 c 0
 472.068359375 206.290039062 467.598632812 209.665039062 462.516601562 213.229492188 c 0
 458.3671875 216.124023438 451.181640625 219.822265625 446.478515625 221.481445312 c 0
 442.029296875 223.244140625 434.569335938 224.797851562 429.828125 224.952148438 c 0
278.731445312 465.412109375 m 1
 151.88671875 758.711914062 l 1
 166.272460938 766.7421875 l 1
 277.760742188 513.69921875 l 1
 379.359375 769.118164062 l 1
 401.025390625 763.512695312 l 1
 278.731445312 465.412109375 l 1
730 233.400390625 m 1
 813.279296875 168.227539062 l 1
 730 106 l 1
 734.025390625 -98.2197265625 l 1
 310.58203125 -96.3486328125 l 1
 306.053710938 -57.037109375 l 1
 688.737304688 -57.037109375 l 1
 688.737304688 133.907226562 l 1
 746.856445312 168.227539062 l 1
 688.737304688 208.788085938 l 1
 684.208984375 392.243164062 l 1
 324.168945312 392.243164062 l 1
 328.698242188 430.654296875 l 1
 730 430.654296875 l 1
 730 233.400390625 l 1
470.600585938 311.747070312 m 1
 471.690429688 338.094726562 l 1
 629.150390625 338.094726562 l 1
 630.618164062 312.995117188 l 1
 470.600585938 311.747070312 l 1
EndSplineSet
Refer: 74 57706 N 0.284124 0 0 0.376206 521.04 504.645 2
Refer: 589 58133 N 1.37508e-017 0.305366 -0.224574 1.86976e-017 601.947 516.242 2
Validated: 5
EndChar

StartChar: Theudas.92
Encoding: 92 60273 2
Width: 872
VWidth: 0
Flags: W
HStem: -110.277 63<160.333 661.333> -14.9343 8.88283<164.716 549.37> 133.14 8.88283<164.716 245.422 259.101 348.288 361.967 451.154 464.833 549.78> 543.723 42.2227<373.778 582.389> 672.723 61.5557<184.333 655.333>
VStem: 73.0898 7.37012<757.791 898.926> 151.036 13.6797<-6.05149 133.14> 245.422 13.6788<51.686 133.14> 348.288 13.6793<51.686 133.14> 451.154 13.6788<51.686 133.14> 549.37 13.6788<-6.05149 133.14> 661.333 54.667<-47.2773 214 418.167 672.723>
LayerCount: 4
Fore
SplineSet
39.58984375 859.267578125 m 29
 76.775390625 913.310546875 l 29
 122 855.767578125 l 29
 114.294921875 854.212890625 l 29
 79.1201171875 898.92578125 l 29
 80.4599609375 757.40234375 l 29
 73.08984375 757.791015625 l 29
 73.759765625 899.314453125 l 29
 42.9404296875 854.602539062 l 29
 39.58984375 859.267578125 l 29
716 418.166992188 m 1
 826.333007812 313.72265625 l 1
 716 214 l 1
 721.333007812 -113.27734375 l 1
 160.333007812 -110.27734375 l 1
 154.333007812 -47.27734375 l 1
 661.333007812 -47.27734375 l 1
 661.333007812 258.72265625 l 1
 738.333007812 313.72265625 l 1
 661.333007812 378.72265625 l 1
 655.333007812 672.72265625 l 1
 178.333007812 672.72265625 l 1
 184.333007812 734.278320312 l 1
 716 734.278320312 l 1
 716 418.166992188 l 1
372.333007812 543.72265625 m 1
 373.778320312 585.9453125 l 1
 582.388671875 585.9453125 l 1
 584.333007812 545.72265625 l 1
 372.333007812 543.72265625 l 1
EndSplineSet
Refer: 608 57725 N 0.551438 0 0 0.483133 228.314 147.436 2
Refer: 545 58117 N 0.492444 0 0 0.319776 101.792 -35.3644 2
Validated: 1
EndChar

StartChar: Dionysius.93
Encoding: 93 60280 3
Width: 884
VWidth: 0
Flags: W
HStem: -90 63<121 622> 31.7472 10.9629<250.042 426.53> 349.018 10.9633<190.755 481.925> 564 42.2227<334.445 543.056> 693 61.5557<145 616>
VStem: 73.0898 7.37012<757.791 898.926> 622 54.667<-27 234.277 438.444 693>
LayerCount: 4
Fore
SplineSet
39.58984375 859.267578125 m 29
 76.775390625 913.310546875 l 29
 122 855.767578125 l 29
 114.294921875 854.212890625 l 29
 79.1201171875 898.92578125 l 29
 80.4599609375 757.40234375 l 29
 73.08984375 757.791015625 l 29
 73.759765625 899.314453125 l 29
 42.9404296875 854.602539062 l 29
 39.58984375 859.267578125 l 29
676.666992188 438.444335938 m 1
 787 334 l 1
 676.666992188 234.27734375 l 1
 682 -93 l 1
 121 -90 l 1
 115 -27 l 1
 622 -27 l 1
 622 279 l 1
 699 334 l 1
 622 399 l 1
 616 693 l 1
 139 693 l 1
 145 754.555664062 l 1
 676.666992188 754.555664062 l 1
 676.666992188 438.444335938 l 1
333 564 m 1
 334.4453125 606.22265625 l 1
 543.055664062 606.22265625 l 1
 545 566 l 1
 333 564 l 1
EndSplineSet
Refer: 512 57972 N 0.412033 0 0 0.39467 135.817 77.1342 2
Refer: 589 58133 N -0.30375 0.186863 -0.117781 -0.48191 503.16 399.871 2
Validated: 5
EndChar

StartChar: love96
Encoding: 96 57370 6
Width: 1034
VWidth: 0
Flags: W
HStem: -61.1143 29.4951<498.196 536.078> 633.687 27.7021<252.116 389.476 641.294 783.197>
VStem: 100 27.7383<368.346 513.331> 907.615 26.3984<369.296 511.096>
LayerCount: 4
Fore
SplineSet
517.015625 -61.111328125 m 0
 516.885742188 -61.1123046875 516.67578125 -61.1142578125 516.545898438 -61.1142578125 c 0
 507.0625 -61.1142578125 493.95703125 -55.63671875 487.29296875 -48.888671875 c 2
 206.182617188 223.333007812 l 2
 202.461914062 226.422851562 196.73828125 231.774414062 193.404296875 235.27734375 c 0
 187.571289062 241.111328125 179.23828125 251.111328125 167.571289062 265.833007812 c 0
 157.987304688 277.8203125 143.80078125 298.229492188 135.904296875 311.388671875 c 0
 127.204101562 326.420898438 115.879882812 352.056640625 110.626953125 368.611328125 c 0
 104.951171875 386.174804688 100.344726562 415.411132812 100.344726562 433.869140625 c 0
 100.344726562 434.2578125 100.346679688 434.888671875 100.348632812 435.27734375 c 0
 100.15625 438.712890625 100 444.29296875 100 447.733398438 c 0
 100 496.486328125 127.16015625 564.826171875 160.626953125 600.27734375 c 0
 197.107421875 633.397460938 266.703125 660.27734375 315.975585938 660.27734375 c 0
 319.100585938 660.27734375 324.171875 660.153320312 327.29296875 660 c 0
 344.696289062 659.91015625 372.19921875 655.306640625 388.682617188 649.72265625 c 0
 405.47265625 644.109375 431.108398438 631.665039062 445.904296875 621.944335938 c 0
 462.848632812 610.833007812 477.571289062 600.27734375 490.071289062 590.27734375 c 0
 502.571289062 580.27734375 507.29296875 575.833007812 515.626953125 568.055664062 c 0
 523.959960938 575.833007812 532.29296875 583.055664062 541.182617188 590.27734375 c 0
 550.071289062 597.5 568.959960938 610.833007812 585.348632812 621.944335938 c 0
 600.143554688 631.668945312 625.778320312 644.11328125 642.571289062 649.72265625 c 0
 659.375 655.747070312 687.499023438 660.849609375 705.348632812 661.111328125 c 0
 708.470703125 661.264648438 713.541015625 661.388671875 716.666992188 661.388671875 c 0
 765.939453125 661.388671875 835.53515625 634.508789062 872.015625 601.388671875 c 0
 906.23828125 565.779296875 934.013671875 496.794921875 934.013671875 447.405273438 c 0
 934.013671875 444.055664062 933.865234375 438.622070312 933.682617188 435.27734375 c 0
 933.682617188 365.27734375 897.571289062 293.888671875 826.459960938 222.77734375 c 2
 546.459960938 -48.0556640625 l 2
 539.879882812 -55.146484375 526.688476562 -60.99609375 517.015625 -61.111328125 c 0
328.682617188 633.333007812 m 0
 325.678710938 633.493164062 320.798828125 633.624023438 317.791015625 633.624023438 c 0
 274.077148438 633.624023438 212.37890625 609.724609375 180.071289062 580.27734375 c 0
 151.18359375 549.344726562 127.73828125 489.888671875 127.73828125 447.563476562 c 0
 127.73828125 444.169921875 127.912109375 438.665039062 128.126953125 435.27734375 c 0
 128.323242188 418.887695312 132.803710938 393.002929688 138.126953125 377.5 c 0
 142.862304688 362.556640625 153.067382812 339.409179688 160.904296875 325.833007812 c 0
 168.026367188 313.58203125 180.844726562 294.541992188 189.515625 283.333007812 c 0
 200.626953125 269.444335938 208.682617188 260 213.682617188 255.555664062 c 0
 216.580078125 252.463867188 221.557617188 247.735351562 224.79296875 245 c 2
 507.015625 -27.22265625 l 2
 509.288085938 -29.6494140625 513.830078125 -31.619140625 517.154296875 -31.619140625 c 0
 520.479492188 -31.619140625 525.021484375 -29.6494140625 527.29296875 -27.22265625 c 2
 808.404296875 243.333007812 l 2
 873.959960938 308.888671875 907.29296875 373.888671875 907.29296875 436.111328125 c 0
 907.470703125 439.193359375 907.615234375 444.200195312 907.615234375 447.288085938 c 0
 907.615234375 490.099609375 883.702148438 550.051757812 854.23828125 581.111328125 c 0
 822.036132812 610.1328125 760.717773438 633.686523438 717.3671875 633.686523438 c 0
 714.047851562 633.686523438 708.663085938 633.528320312 705.348632812 633.333007812 c 0
 690.461914062 633.224609375 666.942382812 629.2421875 652.848632812 624.444335938 c 0
 637.9375 619.530273438 615.1640625 608.579101562 602.015625 600 c 0
 585.904296875 589.444335938 571.73828125 579.166992188 560.071289062 570 c 0
 550.384765625 561.934570312 535.451171875 547.997070312 526.73828125 538.888671875 c 2
 517.015625 529.166992188 l 1
 507.29296875 538.888671875 l 2
 498.625976562 547.599609375 483.817382812 560.915039062 474.23828125 568.611328125 c 0
 462.571289062 578.055664062 448.404296875 588.055664062 432.29296875 598.611328125 c 0
 419.142578125 607.185546875 396.369140625 618.13671875 381.459960938 623.055664062 c 0
 367.357421875 628.2734375 343.712890625 632.877929688 328.682617188 633.333007812 c 0
EndSplineSet
Validated: 1
EndChar

StartChar: choose.103
Encoding: 103 57377 13
Width: 1126
VWidth: 0
Flags: W
HStem: -126 34.5933<542.121 584.182> 185.287 9.01217<592.447 790.118> 360.453 7.95711<262.357 443.186> 688.898 32.4904<268.896 421.408 701.004 858.56>
VStem: 99.9998 30.7981<377.693 547.738> 996.703 29.3104<378.807 545.117>
LayerCount: 4
Fore
SplineSet
-225.825195312 483 m 1049,168,-1
705 522 m 1,169,-1
 445 154 l 5,170,-1
 427 178 l 1,171,-1
 685 534 l 1,172,-1
 705 522 l 1,169,-1
EndSplineSet
Refer: 69 57605 N 0.270576 0 0 0.225933 550.763 199.194 2
Refer: 69 57605 N 0.247522 0 0 0.199483 224.225 372.732 2
Refer: 6 57370 N 1.11031 0 0 1.17285 -11.0312 -54.322 2
Validated: 1
EndChar

StartChar: reconcile.108
Encoding: 108 57382 18
Width: 1205
VWidth: 0
Flags: W
HStem: -2.9996 21.1874<529.099 554.853> 496.101 19.8994<361.803 455.186 626.384 722.856> 544 20<185 915>
VStem: 162.586 12.9342<434.708 572.759> 258.388 18.8577<305.497 409.645> 807.441 17.9468<306.18 408.04> 896.265 14.6588<410.015 548.804>
LayerCount: 4
Fore
SplineSet
185 564 m 1
 915 562 l 5
 919 544 l 1
 179 544 l 1
 185 564 l 1
EndSplineSet
Refer: 16 57380 N 1 0 0 1 -70 -72 2
Validated: 5
EndChar

StartChar: abomination.110
Encoding: 110 57508 20
Width: 1034
VWidth: 0
Flags: W
HStem: -132.461 12.4609<376.736 694> 186.034 23.5223<515.826 548.878> 740.138 22.0924<301.121 420.968 640.679 764.489>
VStem: 168.4 24.2017<528.529 644.154> 873.044 23.0326<529.287 642.372>
LayerCount: 4
Fore
SplineSet
726.594726562 -134.334960938 m 1
 343.561523438 -132.4609375 l 1
 533.775390625 119.331054688 l 1
 726.594726562 -134.334960938 l 1
376.736328125 -120 m 1
 694 -120 l 1
 533.920898438 88.265625 l 1
 376.736328125 -120 l 1
EndSplineSet
Refer: 6 57370 N 0.8725 0 0 0.7975 81.15 234.773 2
Refer: 76 57724 N 0.323765 0 0 0.318892 388.194 417.915 2
Validated: 1
EndChar

StartChar: Candice.140
Encoding: 140 60293 46
Width: 1081
VWidth: 0
Flags: W
HStem: 99.9424 31.7578<495.049 741.568> 434.963 30.2773<938.487 991.446> 477.352 30.2773<964.145 994.85>
VStem: 97.1671 19.6646<677.054 795.82> 236.03 56.8945<-15.4502 268.435> 236.03 49.5449<-0.0508453 268.435> 804.294 34.0273<634.657 807.379>
LayerCount: 4
Fore
SplineSet
63.5911252943 780.244306475 m 6xf2
 102.263976857 829.964033038 l 6
 104.706046816 833.103678699 109.34889856 832.670144889 111.485432719 830.265357292 c 6
 158.518635844 777.326880729 l 6
 160.809326421 774.748581541 160.404161414 770.638876139 157.654088947 768.557532474 c 4
 156.901816996 767.988188764 156.015912742 767.600919401 155.087822379 767.435209177 c 6
 147.075127066 766.004545114 l 6
 145.03325732 765.639969955 142.895777796 766.396001993 141.537015135 767.923866403 c 6
 115.609727376 797.077876414 l 5
 116.831687611 682.908941416 l 6
 116.869194546 679.404632 113.761173098 676.701620687 110.552554064 676.851239055 c 6
 102.887515002 677.208660931 l 6
 99.6268458605 677.360706402 97.1510239009 680.23223399 97.1670779829 683.234234744 c 6
 97.7691651453 795.820311991 l 5
 76.544398049 768.580750746 l 6
 74.1795820502 765.545779859 69.4973945648 765.599479728 67.1533160699 768.486874622 c 6
 63.6689410699 772.778866809 l 6
 61.8787873955 774.983946797 62.0099931517 778.211524959 63.5911252943 780.244306475 c 6xf2
782.56640625 99.9423828125 m 1
 467.39453125 99.9423828125 l 1
 400.234375 350.993164062 l 1
 522.118164062 272.1171875 l 1
 618.54296875 448.840820312 l 1
 714.67578125 272.1171875 l 1
 835.827148438 350.083007812 l 1
 782.56640625 99.9423828125 l 1
495.048828125 131.700195312 m 1
 741.568359375 130.296875 l 1
 784.235351562 279.056640625 l 1
 698.901367188 222.920898438 l 1
 619.888671875 382.908203125 l 1
 537.715820312 229.9375 l 1
 449.221679688 287.4765625 l 1
 495.048828125 131.700195312 l 1
236.030273438 492.490234375 m 1xf6
 90.7998046875 373.6796875 l 1
 236.030273438 268.434570312 l 1xfa
 236.030273438 -70.6767578125 l 1xf6
 885.9609375 -70.6767578125 l 1
 884.599609375 -8.91015625 l 1
 292.924804688 -15.4501953125 l 1xfa
 285.575195312 308.280273438 l 1
 186.349609375 369.3203125 l 1
 300.275390625 465.240234375 l 1
 303.950195312 808.58984375 l 1
 821.307617188 807.37890625 l 1
 804.293945312 807.37890625 l 1
 807.696289062 583.323242188 862.141601562 495.517578125 909.780273438 459.184570312 c 0
 930.196289062 444.045898438 957.418945312 434.962890625 981.23828125 434.962890625 c 0
 984.641601562 434.962890625 991.446289062 434.962890625 994.849609375 434.962890625 c 2
 991.446289062 465.240234375 l 2
 977.8359375 465.240234375 957.418945312 465.240234375 933.599609375 483.407226562 c 0
 896.168945312 507.62890625 838.321289062 586.3515625 838.321289062 807.37890625 c 1
 851.932617188 807.37890625 l 1
 872.349609375 559.1015625 906.376953125 480.37890625 994.849609375 477.3515625 c 2
 994.849609375 507.62890625 l 2
 947.2109375 510.657226562 917.834960938 576.556640625 885.9609375 816.462890625 c 2
 880.924804688 854.370117188 l 1
 241.474609375 857.639648438 l 1
 236.030273438 492.490234375 l 1xf6
654.571289062 643.87890625 m 1
 654.571289062 674.157226562 l 1
 399.36328125 674.157226562 l 1
 399.36328125 643.87890625 l 1
 654.571289062 643.87890625 l 1
EndSplineSet
Validated: 9
EndChar

StartChar: Jonam.142
Encoding: 142 60571 47
Width: 872
VWidth: 0
Flags: W
HStem: -94 63<183 684> 334.768 9.15527<261.597 314.413> 463.271 8.75684<282.235 329.227> 560 42.2227<396.445 605.056> 689 61.5557<207 678>
VStem: 88.5 7.37012<694.523 835.658> 204.841 11.1055<381.582 425.664> 360.081 10.7002<381.582 425.128> 684 54.667<-31 230.277 434.444 689>
LayerCount: 4
Fore
SplineSet
55 796 m 29
 92.185546875 850.04296875 l 29
 137.41015625 792.500976562 l 29
 129.705078125 790.946289062 l 29
 94.5302734375 835.658203125 l 29
 95.8701171875 694.134765625 l 29
 88.5 694.5234375 l 29
 89.169921875 836.046875 l 29
 58.3505859375 791.334960938 l 29
 55 796 l 29
377.125 52.841796875 m 1
 245.245117188 173.04296875 l 1
 270.365234375 197.083984375 l 1
 376.33984375 106.75 l 1
 564.740234375 328.212890625 l 1
 593 310 l 1
 377.125 52.841796875 l 1
282.235351562 472.02734375 m 1
 282.453125 472.02734375 l 2
 239.611328125 469.732421875 204.840820312 439.017578125 204.840820312 403.46875 c 0
 204.840820312 365.545898438 242.01171875 334.767578125 287.810546875 334.767578125 c 0
 333.610351562 334.767578125 370.78125 365.545898438 370.78125 403.46875 c 0
 370.78125 425.388671875 352.165039062 452.05859375 329.2265625 463 c 2
 533 463 l 1
 533 472.02734375 l 1
 282.235351562 472.02734375 l 1
288.013671875 343.922851562 m 2
 288.232421875 343.922851562 l 2
 288.171875 343.922851562 288.07421875 343.922851562 288.013671875 343.922851562 c 0
 248.232421875 343.922851562 215.946289062 370.65625 215.946289062 403.596679688 c 0
 215.946289062 436.537109375 248.232421875 463.270507812 288.013671875 463.270507812 c 0
 327.794921875 463.270507812 360.081054688 436.537109375 360.081054688 403.596679688 c 0
 360.081054688 370.657226562 327.794921875 343.922851562 288.013671875 343.922851562 c 2
738.666992188 434.444335938 m 1
 849 330 l 1
 738.666992188 230.27734375 l 1
 744 -97 l 1
 183 -94 l 1
 177 -31 l 1
 684 -31 l 1
 684 275 l 1
 761 330 l 1
 684 395 l 1
 678 689 l 1
 201 689 l 1
 207 750.555664062 l 1
 738.666992188 750.555664062 l 1
 738.666992188 434.444335938 l 1
395 560 m 1
 396.4453125 602.22265625 l 1
 605.055664062 602.22265625 l 1
 607 562 l 1
 395 560 l 1
EndSplineSet
Validated: 5
EndChar

StartChar: Mattatha.143
Encoding: 143 60572 48
Width: 1023
VWidth: 0
Flags: W
HStem: -34 63<208.001 709.001> 108.286 12.9326<321.399 483.8 495 653.144> 188.589 9.20092<215.478 271.032> 397.068 12.9316<366.199 483.8 495 612.6> 620 42.2227<421.446 630.057> 749 61.5557<232.001 703.001>
VStem: 91.3145 7.37012<680.48 821.615> 338.309 10.045<258.657 311.999> 483.8 11.2002<121.219 397.068 410 500.527> 709.001 54.667<29 290.277 494.444 749>
LayerCount: 4
Fore
SplineSet
57.814453125 781.95703125 m 29
 95 836 l 29
 140.224609375 778.458007812 l 29
 132.51953125 776.903320312 l 29
 97.3447265625 821.615234375 l 29
 98.6845703125 680.091796875 l 29
 91.314453125 680.48046875 l 29
 91.984375 822.00390625 l 29
 61.1650390625 777.291992188 l 29
 57.814453125 781.95703125 l 29
495 121.21875 m 1
 653.143554688 121.21875 l 1
 653.143554688 108.286132812 l 1
 321.399414062 108.286132812 l 1
 321.399414062 121.21875 l 1
 483.799804688 121.21875 l 1
 483.799804688 397.068359375 l 1
 366.19921875 397.068359375 l 1
 366.19921875 410 l 1
 483.799804688 410 l 1
 483.799804688 500.52734375 l 1
 495 500.52734375 l 1
 495 410 l 1
 612.599609375 410 l 1
 612.599609375 397.068359375 l 1
 495 397.068359375 l 1
 495 121.21875 l 1
763.66796875 494.444335938 m 1
 874.000976562 390 l 1
 763.66796875 290.27734375 l 1
 769.000976562 -37 l 1
 208.000976562 -34 l 1
 202.000976562 29 l 1
 709.000976562 29 l 1
 709.000976562 335 l 1
 786.000976562 390 l 1
 709.000976562 455 l 1
 703.000976562 749 l 1
 226.000976562 749 l 1
 232.000976562 810.555664062 l 1
 763.66796875 810.555664062 l 1
 763.66796875 494.444335938 l 1
420.000976562 620 m 1
 421.446289062 662.22265625 l 1
 630.056640625 662.22265625 l 1
 632.000976562 622 l 1
 420.000976562 620 l 1
EndSplineSet
Refer: 76 57724 N 0.212163 0 0 0.242117 145.573 479.117 2
Refer: 500 57927 N 0.371017 0 0 0.335461 104.731 227.727 2
Validated: 1
EndChar

StartChar: Matthathia.144
Encoding: 144 60573 49
Width: 903
VWidth: 0
Flags: W
HStem: -112 63<151 652> -9.26251 9.00615<307.439 391.667> 107.85 36.0353<328.866 368.003> 251.989 9.01186<306.573 393.051> 542 42.2227<364.445 573.056> 671 61.5557<175 646>
VStem: 64.3145 7.37012<676.48 817.615> 162.999 12.4372<94.9486 156.793> 323.56 49.7478<111.693 140.042> 523.671 12.4372<94.8608 156.874> 652 54.667<-49 212.277 416.444 671>
LayerCount: 4
Fore
SplineSet
30.814453125 777.95703125 m 29
 68 832 l 29
 113.224609375 774.458007812 l 29
 105.51953125 772.903320312 l 29
 70.3447265625 817.615234375 l 29
 71.6845703125 676.091796875 l 29
 64.314453125 676.48046875 l 29
 64.984375 818.00390625 l 29
 34.1650390625 773.291992188 l 29
 30.814453125 777.95703125 l 29
706.666992188 416.444335938 m 1
 817 312 l 1
 706.666992188 212.27734375 l 1
 712 -115 l 1
 151 -112 l 1
 145 -49 l 1
 652 -49 l 1
 652 257 l 1
 729 312 l 1
 652 377 l 1
 646 671 l 1
 169 671 l 1
 175 732.555664062 l 1
 706.666992188 732.555664062 l 1
 706.666992188 416.444335938 l 1
363 542 m 1
 364.4453125 584.22265625 l 1
 573.055664062 584.22265625 l 1
 575 544 l 1
 363 542 l 1
EndSplineSet
Refer: 292 57873 N 0.319266 0 0 0.247002 186.354 329.115 2
Refer: 72 57695 N 0.447731 0 0 0.324318 118.226 28.5721 2
Validated: 1
EndChar

StartChar: Semien.145
Encoding: 145 60574 50
Width: 989
VWidth: 0
Flags: W
HStem: -65 63<206 707> 53.6532 14.028<438.119 608.214> 258.9 34.3398<503.946 538.475> 270.852 13.5152<364.127 398.691> 458.73 15.7053<486.864 554.232> 589 42.2227<419.445 628.056> 718 61.5557<230 701>
VStem: 107.314 7.37012<679.48 820.615> 335 11.3851<191.774 249.167> 414.181 10.6027<276.91 369.841> 416.75 10.6842<264.174 324.258> 503.94 34.54<258.906 293.235> 707 54.667<-2 259.277 463.444 718>
LayerCount: 4
Fore
SplineSet
73.814453125 780.95703125 m 29xcf98
 111 835 l 29
 156.224609375 777.458007812 l 29
 148.51953125 775.903320312 l 29
 113.344726562 820.615234375 l 29
 114.684570312 679.091796875 l 29
 107.314453125 679.48046875 l 29
 107.984375 821.00390625 l 29
 77.1650390625 776.291992188 l 29
 73.814453125 780.95703125 l 29xcf98
267.926757812 249.399414062 m 1
 160.849609375 527.927734375 l 1
 173.209960938 535.4296875 l 1
 269 299 l 1
 356.291992188 537.650390625 l 1
 373.000976562 527.927734375 l 1
 267.926757812 249.399414062 l 1
503.940429688 276.0703125 m 0
 503.940429688 266.474609375 511.790039062 258.900390625 521.209960938 258.900390625 c 0
 530.629882812 258.900390625 538.48046875 266.474609375 538.48046875 276.0703125 c 0
 538.48046875 285.665039062 530.629882812 293.240234375 521.209960938 293.240234375 c 0xef98
 511.790039062 293.240234375 503.940429688 285.665039062 503.940429688 276.0703125 c 0
761.666992188 463.444335938 m 1
 872 359 l 1
 761.666992188 259.27734375 l 1
 767 -68 l 1
 206 -65 l 1
 200 -2 l 1
 707 -2 l 1
 707 304 l 1
 784 359 l 1
 707 424 l 1
 701 718 l 1
 224 718 l 1
 230 779.555664062 l 1
 761.666992188 779.555664062 l 1
 761.666992188 463.444335938 l 1
418 589 m 1
 419.4453125 631.22265625 l 1
 628.055664062 631.22265625 l 1
 630 591 l 1
 418 589 l 1
EndSplineSet
Refer: 65 57457 N 0.384638 0 0 0.505 296.536 112.57 2
Validated: 9
EndChar

StartChar: magician.146
Encoding: 146 60554 51
Width: 935
VWidth: 0
Flags: W
HStem: -112 63<162 663> -2.61121 6.7891<347.564 604.985> 110.561 6.7891<347.564 401.575 410.729 470.416 479.57 539.257 548.411 605.26> 138.917 10.9023<142.347 293.597> 242.275 10.9023<142.347 293.597> 352.611 10.9023<142.347 293.597> 455.098 10.9023<142.347 293.597> 542 42.2227<375.445 584.056> 671 61.5557<186 657>
VStem: 133.944 8.40234<149.819 242.275 253.178 352.611 363.514 455.098> 293.597 8.40332<149.819 242.275 253.178 352.611 363.514 455.098> 338.41 9.15486<4.17789 110.561> 401.575 9.1542<48.3063 110.561> 470.416 9.15453<48.3063 110.561> 539.257 9.1542<48.3063 110.561> 604.985 9.1542<4.17789 110.561> 663 54.667<-49 212.277 416.444 671>
LayerCount: 4
Fore
SplineSet
133.944335938 466 m 1
 302 466 l 1
 302 138.916992188 l 1
 133.944335938 138.916992188 l 1
 133.944335938 466 l 1
293.596679688 253.177734375 m 1
 293.596679688 352.611328125 l 1
 142.346679688 352.611328125 l 1
 142.346679688 253.177734375 l 1
 293.596679688 253.177734375 l 1
293.596679688 455.09765625 m 1
 142.346679688 455.09765625 l 1
 142.346679688 363.513671875 l 1
 293.596679688 363.513671875 l 1
 293.596679688 455.09765625 l 1
142.346679688 149.819335938 m 1
 293.596679688 149.819335938 l 1
 293.596679688 242.275390625 l 1
 142.346679688 242.275390625 l 1
 142.346679688 149.819335938 l 1
717.666992188 416.444335938 m 1
 828 312 l 1
 717.666992188 212.27734375 l 1
 723 -115 l 1
 162 -112 l 1
 156 -49 l 1
 663 -49 l 1
 663 257 l 1
 740 312 l 1
 663 377 l 1
 657 671 l 1
 180 671 l 1
 186 732.555664062 l 1
 717.666992188 732.555664062 l 1
 717.666992188 416.444335938 l 1
374 542 m 1
 375.4453125 584.22265625 l 1
 584.055664062 584.22265625 l 1
 586 544 l 1
 374 542 l 1
EndSplineSet
Refer: 608 57725 N 0.369038 0 0 0.369255 372.126 145.487 2
Refer: 545 58117 N 0.329557 0 0 0.244403 305.454 -18.2258 2
Validated: 1
EndChar

StartChar: Freedmen.148
Encoding: 148 60558 52
Width: 1086
VWidth: 0
Flags: W
HStem: 122.674 43.4355<136.08 446.7> 130.674 43.4355<642.08 952.7> 325.731 8.54957<141.873 190.232 229.697 276.452 317.2 363.905> 333.731 8.54957<647.873 696.232 735.697 782.452 823.2 869.905> 441.148 9.26311<140.392 192.204 225.692 280.207 313.058 364.339> 449.148 9.26311<646.392 698.204 731.692 786.207 819.058 870.339> 573.572 29.1104<268.416 397.754> 581.572 29.1104<774.416 903.754> 662.512 42.4395<150.96 442.979> 670.512 42.4395<656.96 948.979>
VStem: 89.8081 11.234<366.836 408.282> 90.5 7.37012<705.523 846.658> 176.95 10.7984<368.165 407.006> 231.279 10.7724<368.476 406.926> 264.17 10.6896<368.477 406.925> 318.39 11.0989<368.085 407.319> 404.113 11.8745<366.452 409.635> 446.7 33.8936<166.109 346.246 487.009 662.512> 595.808 11.234<374.836 416.282> 682.95 10.7984<376.165 415.006> 737.278 10.7724<376.476 414.926> 770.17 10.6896<376.477 414.925> 824.389 11.0989<376.085 415.319> 910.113 11.8745<374.452 417.635> 952.7 33.8936<174.109 354.246 495.009 670.512>
LayerCount: 4
Fore
SplineSet
57 807 m 29x001fff80
 94.185546875 861.04296875 l 29
 139.41015625 803.500976562 l 29
 131.705078125 801.946289062 l 29
 96.5302734375 846.658203125 l 29
 97.8701171875 705.134765625 l 29
 90.5 705.5234375 l 29
 91.169921875 847.046875 l 29
 60.3505859375 802.334960938 l 29
 57 807 l 29x001fff80
346.567382812 521.193359375 m 25
 136.063476562 253.80859375 l 25
 149 249 l 25
 357.15234375 515.421875 l 25
 346.567382812 521.193359375 l 25
480.59375 487.008789062 m 1
 549 415 l 1
 480.59375 346.24609375 l 1
 483.899414062 120.60546875 l 1
 136.080078125 122.673828125 l 1
 132.359375 166.109375 l 1
 446.700195312 166.109375 l 1
 446.700195312 377.080078125 l 1
 494.439453125 415 l 1
 446.700195312 459.813476562 l 1
 442.979492188 662.51171875 l 1
 147.239257812 662.51171875 l 1
 150.959960938 704.951171875 l 1
 480.59375 704.951171875 l 1x808fff80
 480.59375 487.008789062 l 1
267.51953125 573.572265625 m 1x020fff80
 268.416015625 602.682617188 l 1
 397.75390625 602.682617188 l 1
 398.959960938 574.951171875 l 1
 267.51953125 573.572265625 l 1x020fff80
852.567382812 529.193359375 m 25
 642.063476562 261.80859375 l 25
 655 257 l 25
 863.15234375 523.421875 l 25
 852.567382812 529.193359375 l 25
986.59375 495.008789062 m 1
 1055 423 l 1
 986.59375 354.24609375 l 1
 989.899414062 128.60546875 l 1
 642.080078125 130.673828125 l 1
 638.359375 174.109375 l 1
 952.700195312 174.109375 l 1
 952.700195312 385.080078125 l 1
 1000.43945312 423 l 1
 952.700195312 467.813476562 l 1
 948.979492188 670.51171875 l 1
 653.239257812 670.51171875 l 1
 656.959960938 712.951171875 l 1
 986.59375 712.951171875 l 1x404fff80
 986.59375 495.008789062 l 1
773.51953125 581.572265625 m 1x010fff80
 774.416015625 610.682617188 l 1
 903.75390625 610.682617188 l 1
 904.959960938 582.951171875 l 1
 773.51953125 581.572265625 l 1x010fff80
EndSplineSet
Refer: 507 57951 N 0.392 0 0 0.320605 50.6081 318.25 2
Refer: 507 57951 N 0.392 0 0 0.320605 556.608 326.25 2
Validated: 5
EndChar

StartChar: Hebrew.149
Encoding: 149 60559 53
Width: 889
VWidth: 0
Flags: W
HStem: 458.223 12.7773<426.258 620.598 634 823.248> 743.55 12.7783<479.869 620.598 634 774.729>
VStem: 97.1671 19.6646<677.054 795.82> 115.617 20.2773<-13.4814 314.559> 243.884 13.4355<698.736 805.551> 620.598 13.4023<471 743.55 756.328 845.772> 706.309 20.0742<-10.9268 314.92>
LayerCount: 4
Fore
SplineSet
63.5911252943 780.244306475 m 6xee
 102.263976857 829.964033038 l 6
 104.706046816 833.103678699 109.34889856 832.670144889 111.485432719 830.265357292 c 6
 158.518635844 777.326880729 l 6
 160.809326421 774.748581541 160.404161414 770.638876139 157.654088947 768.557532474 c 4
 156.901816996 767.988188764 156.015912742 767.600919401 155.087822379 767.435209177 c 6
 147.075127066 766.004545114 l 6
 145.03325732 765.639969955 142.895777796 766.396001993 141.537015135 767.923866403 c 6
 115.609727376 797.077876414 l 5
 116.831687611 682.908941416 l 6
 116.869194546 679.404632 113.761173098 676.701620687 110.552554064 676.851239055 c 6
 102.887515002 677.208660931 l 6
 99.6268458605 677.360706402 97.1510239009 680.23223399 97.1670779829 683.234234744 c 6
 97.7691651453 795.820311991 l 5
 76.544398049 768.580750746 l 6
 74.1795820502 765.545779859 69.4973945648 765.599479728 67.1533160699 768.486874622 c 6
 63.6689410699 772.778866809 l 6
 61.8787873955 774.983946797 62.0099931517 778.211524959 63.5911252943 780.244306475 c 6xee
634 471 m 1
 823.248046875 471 l 1
 823.248046875 458.22265625 l 1
 426.2578125 458.22265625 l 1
 426.2578125 471 l 1
 620.59765625 471 l 1
 620.59765625 743.549804688 l 1
 479.869140625 743.549804688 l 1
 479.869140625 756.328125 l 1
 620.59765625 756.328125 l 1
 620.59765625 845.772460938 l 1
 634 845.772460938 l 1
 634 756.328125 l 1
 774.729492188 756.328125 l 1
 774.729492188 743.549804688 l 1
 634 743.549804688 l 1
 634 471 l 1
248.536132812 639.787109375 m 2
 243.388671875 555.719726562 289.69140625 501.424804688 370 444 c 1
 346 435 l 1
 267.444335938 491.333984375 248.569335938 538.4765625 229 621 c 1
 210.572265625 547.737304688 157.571289062 483.678710938 112 444 c 1
 109 468 l 1
 199.09375 549.841796875 247.668945312 634.985351562 243.883789062 805.76171875 c 1
 256.9921875 805.352539062 l 2
 257.169921875 805.34765625 257.319335938 789.33203125 257.319335938 783.220703125 c 0
 257.319335938 741.63671875 248.536132812 639.787109375 248.536132812 639.787109375 c 2
421 -120 m 1
 413.498046875 -111.942382812 l 2
 270.7421875 41.7431640625 137.111328125 -34.3134765625 131.02734375 -37.654296875 c 2
 115.6171875 -47.2841796875 l 1
 115.6171875 320.418945312 l 1xde
 120.077148438 323.3671875 l 2
 121.498046875 323.3671875 267.294921875 419.076171875 425.2578125 256.744140625 c 1
 583.22265625 419.46875 720.908203125 324.153320312 722.327148438 323.170898438 c 2
 726.3828125 320.22265625 l 1
 726.3828125 -49.25 l 1
 709.958007812 -36.8681640625 l 2
 704.888671875 -33.134765625 583.22265625 54.91015625 428.502929688 -111.942382812 c 2
 421 -120 l 1
221.873046875 3.0263671875 m 0
 276.825195312 3.0263671875 348.40625 -16.6259765625 421 -90.716796875 c 1
 505.35546875 -3.8515625 581.397460938 11.4775390625 630.672851562 8.7255859375 c 0
 652.76171875 7.689453125 686.646484375 -1.1142578125 706.30859375 -10.9267578125 c 2
 706.30859375 310.002929688 l 2
 682.989257812 324.153320312 568.419921875 381.5390625 432.963867188 235.715820312 c 2
 425.461914062 227.658203125 l 1
 417.958007812 235.715820312 l 2
 283.516601562 380.163085938 160.227539062 323.3671875 135.89453125 309.806640625 c 2
 135.89453125 -13.4814453125 l 2
 158.668945312 -4.369140625 197.149414062 3.0263671875 221.788085938 3.0263671875 c 0
 221.811523438 3.0263671875 221.849609375 3.0263671875 221.873046875 3.0263671875 c 0
301.532226562 -159.65625 m 1025
EndSplineSet
Validated: 33
EndChar

StartChar: Joel.150
Encoding: 150 60562 54
Width: 914
VWidth: 0
Flags: W
HStem: -123 63<196 697> 11.2627 14.8184<156.268 396 412.534 645.985> 342.18 14.8203<222.4 396 412.534 586.134> 531 42.2227<409.445 618.056> 660 61.5557<220 691>
VStem: 162.314 7.37012<676.48 817.615> 396 16.5342<26.0811 342.18 357 460.736> 697 54.667<-60 201.277 405.444 660>
LayerCount: 4
Fore
SplineSet
128.814453125 777.95703125 m 29
 166 832 l 29
 211.224609375 774.458007812 l 29
 203.51953125 772.903320312 l 29
 168.344726562 817.615234375 l 29
 169.684570312 676.091796875 l 29
 162.314453125 676.48046875 l 29
 162.984375 818.00390625 l 29
 132.165039062 773.291992188 l 29
 128.814453125 777.95703125 l 29
412.534179688 26.0810546875 m 1
 645.985351562 26.0810546875 l 1
 645.985351562 11.2626953125 l 1
 156.267578125 11.2626953125 l 1
 156.267578125 26.0810546875 l 1
 396 26.0810546875 l 1
 396 342.1796875 l 1
 222.400390625 342.1796875 l 1
 222.400390625 357 l 1
 396 357 l 1
 396 460.736328125 l 1
 412.534179688 460.736328125 l 1
 412.534179688 357 l 1
 586.133789062 357 l 1
 586.133789062 342.1796875 l 1
 412.534179688 342.1796875 l 1
 412.534179688 26.0810546875 l 1
751.666992188 405.444335938 m 1
 862 301 l 1
 751.666992188 201.27734375 l 1
 757 -126 l 1
 196 -123 l 1
 190 -60 l 1
 697 -60 l 1
 697 246 l 1
 774 301 l 1
 697 366 l 1
 691 660 l 1
 214 660 l 1
 220 721.555664062 l 1
 751.666992188 721.555664062 l 1
 751.666992188 405.444335938 l 1
408 531 m 1
 409.4453125 573.22265625 l 1
 618.055664062 573.22265625 l 1
 620 533 l 1
 408 531 l 1
EndSplineSet
Validated: 1
EndChar

StartChar: Lucius.151
Encoding: 151 60563 55
Width: 1169
VWidth: 0
Flags: W
HStem: -129 63<180 681> 58 11.3887<198.001 478> 388.277 11.3896<198.001 478> 525 42.2227<393.445 602.056> 654 61.5557<204 675>
VStem: 89.3145 7.37012<675.48 816.615> 188 10.001<69.3887 388.277> 478 10.001<69.3887 388.277> 681 54.667<-66 195.277 399.444 654>
LayerCount: 4
Fore
SplineSet
55.814453125 776.95703125 m 29
 93 831 l 29
 138.224609375 773.458007812 l 29
 130.51953125 771.903320312 l 29
 95.3447265625 816.615234375 l 29
 96.6845703125 675.091796875 l 29
 89.314453125 675.48046875 l 29
 89.984375 817.00390625 l 29
 59.1650390625 772.291992188 l 29
 55.814453125 776.95703125 l 29
735.666992188 399.444335938 m 1
 846 295 l 1
 735.666992188 195.27734375 l 1
 741 -132 l 1
 180 -129 l 1
 174 -66 l 1
 681 -66 l 1
 681 240 l 1
 758 295 l 1
 681 360 l 1
 675 654 l 1
 198 654 l 1
 204 715.555664062 l 1
 735.666992188 715.555664062 l 1
 735.666992188 399.444335938 l 1
392 525 m 1
 393.4453125 567.22265625 l 1
 602.055664062 567.22265625 l 1
 604 527 l 1
 392 525 l 1
488.000976562 58 m 1
 188 58 l 1
 188 399.666992188 l 1
 488.000976562 399.666992188 l 1
 488.000976562 58 l 1
198.000976562 69.388671875 m 1
 478 69.388671875 l 1
 478 388.27734375 l 1
 198.000976562 388.27734375 l 1
 198.000976562 69.388671875 l 1
EndSplineSet
Validated: 1
EndChar

StartChar: Pharaoh.152
Encoding: 152 60564 56
Width: 1048
VWidth: 0
Flags: W
HStem: -97.04 60.4805<370.3 846.25> -32.9961 10.6777<42.4092 177.34 186.646 318.04> 205.449 10.6787<79.6318 177.34 186.646 284.354> 234.578 20.8555<479.74 657.58> 354.229 15.3339<60.2766 305.012> 530.8 40.5342<573.073 771.253> 654.64 59.0938<393.1 840.55>
VStem: 69.3145 7.37012<667.48 808.615> 177.34 9.30566<-22.3184 205.449 216.128 290.876> 184.349 7.14539<504.843 542.007> 846.25 51.9336<-36.5596 214.267 410.267 654.64>
LayerCount: 4
Fore
SplineSet
35.814453125 768.95703125 m 25xff20
 73 823 l 25
 118.224609375 765.458007812 l 25
 110.51953125 763.903320312 l 25
 75.3447265625 808.615234375 l 25
 76.6845703125 667.091796875 l 25
 69.314453125 667.48046875 l 25
 69.984375 809.00390625 l 25
 39.1650390625 764.291992188 l 25
 35.814453125 768.95703125 l 25xff20
186.645507812 -22.318359375 m 1xffa0
 318.040039062 -22.318359375 l 1
 318.040039062 -32.99609375 l 1
 42.4091796875 -32.99609375 l 1
 42.4091796875 -22.318359375 l 1
 177.33984375 -22.318359375 l 1
 177.33984375 205.44921875 l 1
 79.6318359375 205.44921875 l 1
 79.6318359375 216.127929688 l 1
 177.33984375 216.127929688 l 1
 177.33984375 290.875976562 l 1
 186.645507812 290.875976562 l 1
 186.645507812 216.127929688 l 1
 284.354492188 216.127929688 l 1
 284.354492188 205.44921875 l 1
 186.645507812 205.44921875 l 1
 186.645507812 -22.318359375 l 1xffa0
687.15625 234.578125 m 1
 459.790039062 234.578125 l 1
 411.33984375 399.442382812 l 1
 499.267578125 347.645507812 l 1
 568.830078125 463.698242188 l 1
 638.1796875 347.645507812 l 1
 725.580078125 398.844726562 l 1
 687.15625 234.578125 l 1
479.740234375 255.43359375 m 1
 657.580078125 254.51171875 l 1
 688.359375 352.201171875 l 1
 626.799804688 315.337890625 l 1
 569.799804688 420.400390625 l 1
 510.51953125 319.946289062 l 1
 446.680664062 357.731445312 l 1
 479.740234375 255.43359375 l 1
898.18359375 410.266601562 m 1
 1003 310 l 1
 898.18359375 214.266601562 l 1
 903.25 -99.919921875 l 1
 370.299804688 -97.0400390625 l 1
 364.599609375 -36.5595703125 l 1
 846.25 -36.5595703125 l 1
 846.25 257.200195312 l 1
 919.400390625 310 l 1
 846.25 372.400390625 l 1
 840.549804688 654.639648438 l 1
 387.400390625 654.639648438 l 1
 393.099609375 713.733398438 l 1
 898.18359375 713.733398438 l 1
 898.18359375 410.266601562 l 1
571.700195312 530.799804688 m 1
 573.073242188 571.333984375 l 1
 771.252929688 571.333984375 l 1
 773.099609375 532.719726562 l 1
 571.700195312 530.799804688 l 1
EndSplineSet
Refer: 69 57605 N 0.335 0 0 0.384418 8.6675 377.892 2
Refer: 70 57631 N 0.172849 0 0 0.188247 107.646 405.254 2
Validated: 1
EndChar

StartChar: Timon.153
Encoding: 153 60566 57
Width: 872
VWidth: 0
Flags: W
HStem: -111 63<152 653> 2.97587 11.7754<324.886 407.016> 57.1427 13.8268<315.251 411.958> 245.549 14.1305<319.92 411.982> 543 42.2227<365.445 574.056> 672 61.5557<176 647>
VStem: 63.4219 19.3701<682.906 811> 214.789 14.2399<96.0109 165.467> 502.873 14.2399<96.0109 165.467> 653 54.667<-48 213.277 417.444 672>
LayerCount: 4
Fore
SplineSet
30.978515625 793.764648438 m 6
 68.1640625 847.807617188 l 6
 70.4619140625 851.145507812 75.4365234375 851.153320312 77.8251953125 848.114257812 c 6
 123.049804688 790.572265625 l 6
 125.180664062 787.860351562 124.528320312 783.782226562 121.658203125 781.870117188 c 4
 121.010742188 781.439453125 120.240234375 781.12890625 119.518554688 780.982421875 c 6
 111.813476562 779.427734375 l 6
 109.579101562 778.977539062 107.228515625 779.92578125 105.911132812 781.599609375 c 6
 81.6181640625 812.479492188 l 5
 82.7919921875 688.5546875 l 6
 82.8251953125 685.0625 79.7373046875 682.333984375 76.4755859375 682.506835938 c 6
 69.10546875 682.895507812 l 6
 65.833984375 683.067382812 63.408203125 685.982421875 63.421875 688.915039062 c 6
 64 811 l 5
 44.212890625 782.291992188 l 6
 42.2548828125 779.452148438 38.16796875 778.865234375 35.490234375 781.0390625 c 4
 35.08203125 781.37109375 34.439453125 782.140625 34.3984375 782.197265625 c 6
 31.0478515625 786.86328125 l 6
 29.5 789.01953125 29.78125 792.0234375 30.978515625 793.764648438 c 6
707.666992188 417.444335938 m 1
 818 313 l 1
 707.666992188 213.27734375 l 1
 713 -114 l 1
 152 -111 l 1
 146 -48 l 1
 653 -48 l 1
 653 258 l 1
 730 313 l 1
 653 378 l 1
 647 672 l 1
 170 672 l 1
 176 733.555664062 l 1
 707.666992188 733.555664062 l 1
 707.666992188 417.444335938 l 1
364 543 m 1
 365.4453125 585.22265625 l 1
 574.055664062 585.22265625 l 1
 576 545 l 1
 364 543 l 1
EndSplineSet
Refer: 67 57494 N 0.248428 0 0 0.253253 250.706 333.415 2
Refer: 561 57385 N 0.365126 0 0 0.392513 178.276 -11.1546 2
Validated: 1
EndChar

StartChar: Asher.155
Encoding: 155 60382 58
Width: 977
VWidth: 0
Flags: W
HStem: -87 63<181 682> 68.3144 17.1525<325.616 430.65> 350.718 46.9297<304.478 336.522 419.346 451.553> 472.948 17.1531<325.616 430.65> 567 42.2227<394.445 603.056> 696 61.5557<205 676>
VStem: 69.3145 7.37012<667.48 808.615> 179.425 13.1942<231.234 327.18> 271.127 13.1942<247.762 265.879> 304.35 32.3008<353.195 397.64> 419.3 32.2998<350.725 397.64> 472.077 13.1947<252.901 266.095> 563.647 13.1942<231.236 327.181> 682 54.667<-24 237.277 441.444 696>
LayerCount: 4
Fore
SplineSet
35.814453125 768.95703125 m 29
 73 823 l 29
 118.224609375 765.458007812 l 29
 110.51953125 763.903320312 l 29
 75.3447265625 808.615234375 l 29
 76.6845703125 667.091796875 l 29
 69.314453125 667.48046875 l 29
 69.984375 809.00390625 l 29
 39.1650390625 764.291992188 l 29
 35.814453125 768.95703125 l 29
419.299804688 374.182617188 m 4
 419.299804688 387.150390625 426.424804688 397.647460938 435.450195312 397.647460938 c 4
 444.474609375 397.647460938 451.599609375 387.150390625 451.599609375 374.182617188 c 4
 451.599609375 361.21484375 444.474609375 350.717773438 435.450195312 350.717773438 c 4
 426.424804688 350.717773438 419.299804688 361.21484375 419.299804688 374.182617188 c 4
304.349609375 375.41796875 m 4
 304.349609375 387.767578125 311.474609375 397.647460938 320.5 397.647460938 c 4
 329.525390625 397.647460938 336.650390625 387.767578125 336.650390625 375.41796875 c 4
 336.650390625 363.067382812 329.525390625 353.1875 320.5 353.1875 c 4
 311.474609375 353.1875 304.349609375 363.067382812 304.349609375 375.41796875 c 4
736.666992188 441.444335938 m 5
 847 337 l 5
 736.666992188 237.27734375 l 5
 742 -90 l 5
 181 -87 l 5
 175 -24 l 5
 682 -24 l 5
 682 282 l 5
 759 337 l 5
 682 402 l 5
 676 696 l 5
 199 696 l 5
 205 757.555664062 l 5
 736.666992188 757.555664062 l 5
 736.666992188 441.444335938 l 5
393 567 m 5
 394.4453125 609.22265625 l 5
 603.055664062 609.22265625 l 5
 605 569 l 5
 393 567 l 5
EndSplineSet
Refer: 79 57859 S 0.475 0 0 0.6175 131.925 95.0725 2
Validated: 9
EndChar

StartChar: Lot.156
Encoding: 156 60380 59
Width: 928
VWidth: 0
Flags: W
HStem: -47 63<213 714> 85.25 15.9502<379.875 481.853> 216.92 6.74131<296.43 407.976> 217.098 7.00226<447.482 562.149> 390.84 6.91634<375.63 487.176> 541.2 11.5498<387.531 476.79> 607 42.2227<426.445 635.056> 736 61.5557<237 708>
VStem: 108.557 19.665<682.977 801.742> 217 11.4404<271.674 371.368> 635 13.2002<266.183 374.017> 714 54.667<16 277.277 481.444 736>
LayerCount: 4
Fore
SplineSet
74.9814453125 786.166015625 m 2xcff0
 113.654296875 835.885742188 l 2
 116.095703125 839.025390625 120.739257812 838.591796875 122.875 836.1875 c 2
 169.908203125 783.249023438 l 2
 172.19921875 780.670898438 171.793945312 776.560546875 169.043945312 774.479492188 c 0
 168.291992188 773.91015625 167.40625 773.5234375 166.477539062 773.357421875 c 2
 158.46484375 771.926757812 l 2
 156.422851562 771.5625 154.286132812 772.318359375 152.926757812 773.845703125 c 2
 127 803 l 1
 128.221679688 688.831054688 l 2
 128.258789062 685.327148438 125.151367188 682.624023438 121.942382812 682.7734375 c 2
 114.27734375 683.130859375 l 2
 111.016601562 683.283203125 108.541015625 686.154296875 108.556640625 689.15625 c 2
 109.159179688 801.7421875 l 1
 87.9345703125 774.502929688 l 2
 85.5693359375 771.467773438 80.8876953125 771.521484375 78.54296875 774.409179688 c 2
 75.05859375 778.701171875 l 2
 73.2685546875 780.90625 73.3994140625 784.133789062 74.9814453125 786.166015625 c 2xcff0
228.440429688 321.200195312 m 0
 228.440429688 199.650390625 319.520507812 101.200195312 431.720703125 101.200195312 c 0
 543.920898438 101.200195312 635 199.650390625 635 321.200195312 c 0
 635 442.75 543.920898438 541.200195312 431.720703125 541.200195312 c 0
 319.520507812 541.200195312 228.440429688 442.75 228.440429688 321.200195312 c 0
217 319 m 0
 217 448.25 313.80078125 552.75 432.600585938 552.75 c 0
 551.400390625 552.75 648.200195312 448.25 648.200195312 319 c 0
 648.200195312 189.75 551.400390625 85.25 432.600585938 85.25 c 0
 313.80078125 85.25 217 189.75 217 319 c 0
768.666992188 481.444335938 m 1
 879 377 l 1
 768.666992188 277.27734375 l 1
 774 -50 l 1
 213 -47 l 1
 207 16 l 1
 714 16 l 1
 714 322 l 1
 791 377 l 1
 714 442 l 1
 708 736 l 1
 231 736 l 1
 237 797.555664062 l 1
 768.666992188 797.555664062 l 1
 768.666992188 481.444335938 l 1
425 607 m 1
 426.4453125 649.22265625 l 1
 635.055664062 649.22265625 l 1
 637 609 l 1
 425 607 l 1
EndSplineSet
Refer: 69 57605 N 0.156958 0 0 0.175545 423.302 227.904 2
Refer: 69 57605 N 0.152687 0 0 0.173391 352.107 401.513 2
Refer: 69 57605 N 0.152687 0 0 0.169003 272.907 227.323 2
Validated: 1
EndChar

StartChar: Aenon.157
Encoding: 157 60321 60
Width: 1040
VWidth: 0
Flags: W
HStem: -170.064 77.6588<265.402 825.43> 41.4925 13.68<385.95 696.315> 172.849 11.725<533.031 597.042> 636.109 52.0474<503.995 737.185> 795.124 75.8789<292.23 818.723>
VStem: 97.3145 7.3705<667.48 808.615> 674.561 11.575<262.313 330.165> 825.43 61.1079<-92.4053 229.666 481.338 795.124>
LayerCount: 4
Fore
SplineSet
480 124 m 1
 580.035 48.7607 l 1
 488.55 -61.5352 l 1
 485.985 -38.4502 l 1
 562.079 48.7607 l 1
 482.565 106.899 l 1
 480 124 l 1
563.269 172.849 m 2
 562.95 172.849 l 2
 536.848 172.849 500.655 187.798 482.163 206.219 c 0
 444.401 244.1 437.514 303.475 464.469 357.862 c 0
 473.612 376.269 484.42 394.199 494.869 411.537 c 0
 500.451 420.681 506.031 429.943 511.258 439.206 c 2
 549.019 505.35 l 1
 550.801 508.793 l 2
 559.112 525.062 561.25 529.1 566 529.1 c 2
 568.257 529.1 l 2
 572.294 527.438 574.907 522.33 578.351 514.73 c 0
 578.944 513.425 579.419 512.237 579.775 511.762 c 2
 638.32 409.042 l 2
 642.476 401.8 646.988 394.793 651.5 387.667 c 0
 659.891 375.409 671.488 354.396 677.389 340.762 c 0
 678.813 337.278 680.04 333.716 681.07 330.074 c 0
 683.866 320.687 686.136 305.118 686.136 295.323 c 0
 686.136 239.586 641.679 185.995 586.9 175.699 c 0
 580.455 174.275 569.868 172.999 563.269 172.849 c 2
566 512 m 2
 564.22 508.793 562.438 505.112 561.488 503.093 c 2
 559.352 498.938 l 1
 521.588 433.03 l 2
 516.244 423.649 510.664 414.386 504.963 405.125 c 0
 494.633 388.024 483.945 370.331 475.038 352.398 c 0
 450.339 302.287 456.276 248.256 490.357 214.649 c 0
 507.074 198.048 539.764 184.574 563.323 184.574 c 0
 569.205 184.574 578.649 185.546 584.407 186.742 c 0
 634.173 195.811 674.561 244.223 674.561 294.808 c 0
 674.561 303.959 672.37 318.481 669.669 327.224 c 0
 668.72 330.55 667.611 333.795 666.344 336.962 c 0
 660.671 350.001 649.552 370.111 641.526 381.85 c 0
 636.895 389.094 632.263 396.337 627.987 403.698 c 2
 569.445 505.35 l 2
 569.445 506.181 568.257 507.605 567.544 509.387 c 2
 566 512 l 2
63.8145 768.957 m 1
 101 823 l 1
 146.225 765.458 l 1
 138.52 763.903 l 1
 103.345 808.615 l 1
 104.685 667.092 l 1
 97.3145 667.48 l 1
 97.9844 809.004 l 1
 67.165 764.292 l 1
 63.8145 768.957 l 1
609.105 142.3825 m 1
 727.95 47.4775 l 1
 601.41 -67.9475 l 1
 597.99 -48.2825 l 1
 696.315 41.4925 l 1
 385.095 38.0725 l 1
 385.95 56.8825 l 1
 697.17 55.1725 l 1
 598.845 133.8325 l 1
 609.105 142.3825 l 1
886.53796594 481.33822992 m 1
 1009.8704 352.5922 l 1
 886.53796594 229.66565236 l 1
 892.4993 -173.76216 l 1
 265.40228 -170.06412 l 1
 258.69536 -92.40528 l 1
 825.4301 -92.40528 l 1
 825.4301 284.7948 l 1
 911.50224 352.5922 l 1
 825.4301 432.7164 l 1
 818.72318 795.12432 l 1
 285.52304 795.12432 l 1
 292.22996 871.00317008 l 1
 886.53796594 871.00317008 l 1
 886.53796594 481.33822992 l 1
502.38012 636.1086 m 1
 503.9953699 688.15604764 l 1
 737.18491792 688.15604764 l 1
 739.35796 638.57396 l 1
 502.38012 636.1086 l 1
EndSplineSet
Validated: 37
EndChar

StartChar: Ephraim.158
Encoding: 158 60323 61
Width: 993
VWidth: 0
Flags: W
HStem: -196.302 77.6592<180.903 740.93> -60.7178 14.3145<389.753 490.061> 87.5068 14.3389<405.792 430.312 444.628 477.867> 200.043 14.2246<477.563 503.009> 609.87 52.0469<419.496 652.684> 768.885 75.8789<207.73 734.223>
VStem: 72.0449 7.37012<688.242 829.377> 342.482 14.583<-11.3062 46.2561> 430.312 14.3164<101.843 155.13> 518.887 14.0518<-7.51485 49.9938> 740.93 61.1094<-118.643 203.428 455.1 768.885>
LayerCount: 4
Fore
SplineSet
462.51171875 242.563476562 m 1
 340.91796875 462.682617188 l 1
 354.953125 468.612304688 l 1
 463.73046875 281.76171875 l 1
 562.857421875 470.3671875 l 1
 581.83203125 462.682617188 l 1
 462.51171875 242.563476562 l 1
532.702148438 28.4931640625 m 0
 532.830078125 26.7607421875 532.938476562 23.8515625 532.938476562 22.041015625 c 0
 532.938476562 21.162109375 532.915039062 19.841796875 532.883789062 18.951171875 c 0
 531.932617188 -3.01953125 518.653320312 -32.3369140625 502.7109375 -47.5751953125 c 0
 493.48828125 -55.6689453125 477.674804688 -61.70703125 464.868164062 -61.70703125 c 0
 464.4140625 -61.7216796875 463.291992188 -61.74609375 462.698242188 -61.74609375 c 0
 461.528320312 -61.74609375 459.814453125 -61.6875 458.6171875 -61.607421875 c 0
 450.689453125 -60.96484375 437.731445312 -60.439453125 429.807617188 -60.439453125 c 0
 425.983398438 -60.439453125 419.79296875 -60.560546875 415.91796875 -60.7109375 c 0
 415.583007812 -60.716796875 415.254882812 -60.7177734375 414.977539062 -60.7177734375 c 0
 398.783203125 -60.7177734375 377.262695312 -51.544921875 366.067382812 -39.8916015625 c 0
 352.893554688 -26.5859375 342.482421875 -1.279296875 342.482421875 17.4765625 c 0
 342.482421875 17.8818359375 342.48828125 18.509765625 342.49609375 18.9189453125 c 0
 343.149414062 53.25 365.498046875 81.576171875 401.901367188 94.6953125 c 0
 409.590820312 97.40234375 421.583007812 99.9736328125 430.311523438 101.01171875 c 1
 430.397460938 122.776367188 431.755859375 169.948242188 458.141601562 196.333007812 c 0
 468.19140625 206.40234375 487.16015625 214.267578125 501.376953125 214.267578125 c 0
 501.872070312 214.267578125 502.612304688 214.255859375 503.102539062 214.2421875 c 0
 504.505859375 214.203125 505.629882812 213.006835938 505.629882812 211.64453125 c 2
 505.629882812 202.619140625 l 2
 505.629882812 201.073242188 504.209960938 199.985351562 502.956054688 200.022460938 c 0
 502.58203125 200.033203125 501.912109375 200.04296875 501.540039062 200.04296875 c 0
 491.015625 200.04296875 475.669921875 193.690429688 468.2265625 186.251953125 c 0
 446.89453125 164.919921875 444.755859375 120.655273438 444.627929688 101.842773438 c 1
 445.279296875 101.84765625 444.663085938 101.845703125 445.313476562 101.845703125 c 0
 461.711914062 101.845703125 485.532226562 95.1142578125 499.541992188 86.501953125 c 0
 517.266601562 75.0908203125 531.884765625 49.509765625 532.702148438 28.4931640625 c 0
493.239257812 -37.15625 m 0
 506.16015625 -24.7841796875 517.83203125 0.6748046875 518.7578125 18.6630859375 c 0
 518.827148438 19.8310546875 518.88671875 21.853515625 518.88671875 23.0224609375 c 0
 518.88671875 24.2041015625 518.829101562 26.181640625 518.755859375 27.408203125 c 0
 518.118164062 43.9638671875 505.98828125 65.2421875 492.108398438 74.23046875 c 0
 479.581054688 81.451171875 456.966796875 87.5068359375 442.534179688 87.5068359375 c 0
 432.596679688 87.5068359375 416.41796875 84.5234375 407.096679688 80.9609375 c 0
 375.424804688 69.58203125 357.59765625 46.85546875 357.079101562 18.3671875 c 0
 357.071289062 18.0146484375 357.065429688 17.3974609375 357.065429688 17.041015625 c 0
 357.065429688 2.044921875 365.913085938 -19.5244140625 376.467773438 -30.2177734375 c 0
 385.000976562 -38.9794921875 402.5859375 -46.4033203125 414.823242188 -46.4033203125 c 0
 415.022460938 -46.4033203125 415.33203125 -46.4013671875 415.563476562 -46.3984375 c 2
 433.614257812 -46.3984375 l 2
 434.4140625 -46.388671875 435.762695312 -46.380859375 436.586914062 -46.380859375 c 0
 443.19921875 -46.380859375 453.625976562 -46.87109375 460.250976562 -47.494140625 c 0
 461.577148438 -47.6474609375 463.834960938 -47.775390625 465.124023438 -47.775390625 c 0
 473.76171875 -47.775390625 486.765625 -42.8740234375 493.239257812 -37.15625 c 0
492.108398438 74.23046875 m 0
 492.08984375 74.2421875 492.072265625 74.25390625 492.053710938 74.265625 c 2
 492.1640625 74.19921875 l 2
 492.14453125 74.2099609375 492.125976562 74.2197265625 492.108398438 74.23046875 c 0
38.544921875 789.71875 m 1
 75.73046875 843.76171875 l 1
 120.955078125 786.219726562 l 1
 113.25 784.665039062 l 1
 78.07421875 829.376953125 l 1
 79.4150390625 687.853515625 l 1
 72.044921875 688.2421875 l 1
 72.71484375 829.765625 l 1
 41.89453125 785.053710938 l 1
 38.544921875 789.71875 l 1
802.0390625 455.100585938 m 1
 925.37109375 326.353515625 l 1
 802.0390625 203.427734375 l 1
 808 -200 l 1
 180.903320312 -196.301757812 l 1
 174.196289062 -118.642578125 l 1
 740.9296875 -118.642578125 l 1
 740.9296875 258.556640625 l 1
 827.001953125 326.353515625 l 1
 740.9296875 406.478515625 l 1
 734.22265625 768.884765625 l 1
 201.0234375 768.884765625 l 1
 207.73046875 844.763671875 l 1
 802.0390625 844.763671875 l 1
 802.0390625 455.099609375 l 1
 802.0390625 455.100585938 l 1
417.879882812 609.870117188 m 1
 419.49609375 661.916992188 l 1
 652.68359375 661.916992188 l 1
 654.857421875 612.3359375 l 1
 417.879882812 609.870117188 l 1
EndSplineSet
Validated: 5
EndChar

StartChar: king.192
Encoding: 192 57384 62
Width: 1026
VWidth: 0
Flags: W
HStem: -88.8887 67.8887<280 748>
LayerCount: 4
Fore
SplineSet
825.833007812 -88.888671875 m 1
 227.5 -88.888671875 l 1
 100 447.77734375 l 1
 331.388671875 279.166992188 l 1
 514.4453125 656.944335938 l 1
 696.9453125 279.166992188 l 1
 926.9453125 445.833007812 l 1
 825.833007812 -88.888671875 l 1
280 -21 m 1
 748 -24 l 1
 829 294 l 1
 667 174 l 1
 517 516 l 1
 361 189 l 5
 193 312 l 1
 280 -21 l 1
EndSplineSet
Validated: 1
EndChar

StartChar: cross.288
Encoding: 288 57400 63
Width: 805
VWidth: 0
Flags: W
HStem: 469.167 27.7773<100 388.611 416.389 705>
VStem: 388.611 27.7773<-122.777 469.167 496.944 716.667>
LayerCount: 4
Fore
SplineSet
705 496.944335938 m 1
 705 469.166992188 l 1
 416.388671875 469.166992188 l 1
 416.388671875 -122.77734375 l 1
 388.611328125 -122.77734375 l 1
 388.611328125 469.166992188 l 1
 100 469.166992188 l 1
 100 496.944335938 l 1
 388.611328125 496.944335938 l 1
 388.611328125 716.666992188 l 1
 416.388671875 716.666992188 l 1
 416.388671875 496.944335938 l 1
 705 496.944335938 l 1
EndSplineSet
Validated: 1
EndChar

StartChar: know.448
Encoding: 448 57442 64
Width: 1051
VWidth: 0
Flags: W
HStem: -125 181.944<344.137 701.111> 688.889 27.7783<418.025 633.087>
VStem: 100 28.0557<272.321 437.024> 923.333 27.7783<272.299 437.908>
LayerCount: 4
Fore
SplineSet
951.111328125 355.555664062 m 0
 951.111328125 213.611328125 853.333007812 90.8330078125 711.944335938 32.22265625 c 1
 711.944335938 -125 l 1
 339.166992188 -125 l 1
 339.166992188 31.6669921875 l 1
 197.778320312 90.5556640625 100 213.333007812 100 355.555664062 c 0
 100 554.72265625 290.833007812 716.666992188 525.555664062 716.666992188 c 0
 760.278320312 716.666992188 951.111328125 554.72265625 951.111328125 355.555664062 c 0
701.111328125 56.9443359375 m 1
 700.833007812 57.5 l 1
 831.111328125 111.666992188 923.333007812 225 923.333007812 355.555664062 c 0
 923.333007812 539.444335938 745 688.888671875 525.555664062 688.888671875 c 0
 306.111328125 688.888671875 127.778320312 539.444335938 128.055664062 355.555664062 c 0
 128.055664062 223.611328125 218.611328125 112.5 350.278320312 56.9443359375 c 2
 701.111328125 56.9443359375 l 1
EndSplineSet
Validated: 33
EndChar

StartChar: hand.544
Encoding: 544 57457 65
Width: 1013
VWidth: 0
Flags: W
HStem: -116.667 27.7783<368.095 810.316> 313.43 26.7627<175.726 265.587> 685.466 31.0996<494.825 669.969>
VStem: 100 29.5996<156.84 270.489> 305.86 27.5654<325.426 509.447> 312.539 27.7773<300.206 419.185>
LayerCount: 4
Fore
SplineSet
810.31640625 -116.666992188 m 5xf8
 361.427734375 -116.666992188 l 6
 357.443359375 -115.103515625 351.345703125 -111.8671875 347.81640625 -109.444335938 c 5
 334.833984375 -99.7197265625 318.158203125 -80.1826171875 310.594726562 -65.8330078125 c 4
 306.963867188 -59.689453125 300.493164062 -50.107421875 296.150390625 -44.4443359375 c 4
 278.90625 -23.064453125 247.669921875 8.419921875 226.427734375 25.8330078125 c 6
 222.81640625 28.888671875 l 6
 189.831054688 52.6181640625 144.907226562 99.41015625 122.5390625 133.333007812 c 4
 110.09765625 153.029296875 100 187.920898438 100 211.216796875 c 4
 100 236.03515625 111.341796875 272.823242188 125.31640625 293.333007812 c 4
 144.825195312 319.200195312 186.951171875 340.192382812 219.349609375 340.192382812 c 4
 234.684570312 340.192382812 258.264648438 334.630859375 271.983398438 327.77734375 c 4
 277.057617188 324.59765625 284.772460938 318.748046875 289.206054688 314.72265625 c 4
 294.997070312 309.630859375 305.450195312 303.03515625 312.5390625 300 c 5
 312.97265625 302.125 313.32421875 305.609375 313.32421875 307.77734375 c 4
 313.32421875 309.946289062 312.97265625 313.430664062 312.5390625 315.555664062 c 4
 312.5390625 318.611328125 312.5390625 321.666992188 312.5390625 324.72265625 c 4xf4
 312.5390625 339.72265625 310.594726562 355.27734375 309.206054688 370 c 4
 307.358398438 384.446289062 305.860351562 407.990234375 305.860351562 422.553710938 c 4
 305.860351562 426.833984375 305.990234375 433.778320312 306.150390625 438.055664062 c 4
 314.483398438 573.888671875 385.594726562 671.388671875 500.594726562 705.27734375 c 4
 522.706054688 711.508789062 559.294921875 716.565429688 582.267578125 716.565429688 c 4
 628.331054688 716.565429688 697.768554688 697.322265625 737.260742188 673.611328125 c 4
 766.680664062 656.60546875 807.623046875 621.138671875 828.650390625 594.444335938 c 4
 900.0390625 503.055664062 926.706054688 378.055664062 907.81640625 223.055664062 c 4
 900.540039062 169.15625 883.615234375 82.6669921875 870.0390625 30 c 4
 868.059570312 19.587890625 866.192382812 2.5390625 865.872070312 -8.0556640625 c 4
 863.372070312 -49.72265625 860.0390625 -101.666992188 811.983398438 -114.444335938 c 6
 810.31640625 -116.666992188 l 5xf8
368.094726562 -88.888671875 m 5
 806.706054688 -88.888671875 l 6
 831.983398438 -81.111328125 834.483398438 -50.5556640625 838.372070312 -8.3330078125 c 4
 838.75390625 3.58984375 840.994140625 22.7548828125 843.372070312 34.4443359375 c 4
 856.720703125 86.2041015625 873.396484375 171.200195312 880.594726562 224.166992188 c 4
 898.372070312 371.666992188 873.650390625 489.72265625 806.983398438 575.27734375 c 4
 787.809570312 599.625976562 750.4765625 631.981445312 723.650390625 647.5 c 4
 687.797851562 668.45703125 624.997070312 685.465820312 583.46875 685.465820312 c 4
 562.510742188 685.465820312 529.1171875 680.901367188 508.927734375 675.27734375 c 4
 403.650390625 644.166992188 342.260742188 558.333007812 333.650390625 433.055664062 c 4
 333.526367188 429.411132812 333.42578125 423.493164062 333.42578125 419.845703125 c 4xf8
 333.42578125 405.875976562 334.895507812 383.295898438 336.706054688 369.444335938 c 4
 338.372070312 353.888671875 339.760742188 338.055664062 340.31640625 321.944335938 c 4
 340.31640625 319.166992188 340.31640625 316.666992188 340.31640625 313.888671875 c 4
 340.856445312 311.271484375 341.293945312 306.977539062 341.293945312 304.3046875 c 4
 341.293945312 296.09765625 337.49609375 283.96484375 332.81640625 277.22265625 c 4
 328.791015625 274.3046875 321.487304688 271.936523438 316.515625 271.936523438 c 4
 315.412109375 271.936523438 313.630859375 272.064453125 312.5390625 272.22265625 c 5
 299.44140625 274.65234375 281.521484375 284.608398438 272.5390625 294.444335938 c 4
 269.158203125 297.494140625 263.30859375 301.974609375 259.483398438 304.444335938 c 4
 249.177734375 309.404296875 231.53125 313.4296875 220.09375 313.4296875 c 4
 195.55859375 313.4296875 163.427734375 297.706054688 148.372070312 278.333007812 c 4
 138.009765625 262.055664062 129.599609375 233.184570312 129.599609375 213.888671875 c 4
 129.599609375 194.592773438 138.009765625 165.721679688 148.372070312 149.444335938 c 4
 168.762695312 117.387695312 209.954101562 72.8369140625 240.31640625 50 c 6
 243.927734375 46.9443359375 l 6
 266.346679688 29.0830078125 299.448242188 -3.2724609375 317.81640625 -25.27734375 c 4
 322.733398438 -31.6015625 330.075195312 -42.3037109375 334.206054688 -49.1669921875 c 4
 339.84765625 -60.43359375 352.291992188 -76.1142578125 361.983398438 -84.1669921875 c 5
 368.094726562 -88.888671875 l 5
EndSplineSet
Validated: 33
EndChar

StartChar: work.640
Encoding: 640 57484 66
Width: 1033
VWidth: 0
Flags: W
HStem: -87.5 27.7773<447.13 586.204> 63.8887 27.7783<100 276.667 756.667 933.334> 238.889 27.7783<272.223 502.778 530.556 761.111>
VStem: 244.163 28.0596<151.142 238.889> 502.778 27.7773<266.667 716.667> 761.111 28.0596<151.142 238.889>
CounterMasks: 1 1c
LayerCount: 4
Fore
SplineSet
933.333984375 91.6669921875 m 1
 933.333984375 63.888671875 l 1
 743.055664062 63.888671875 l 2
 694.166992188 -27.22265625 610.833984375 -87.5 516.666992188 -87.5 c 0
 422.5 -87.5 339.166992188 -27.22265625 290.278320312 63.888671875 c 2
 100 63.888671875 l 1
 100 91.6669921875 l 1
 276.666992188 91.6669921875 l 2
 258.724609375 133.790039062 244.163085938 205.13671875 244.163085938 250.921875 c 0
 244.163085938 251.43359375 244.165039062 252.265625 244.166992188 252.77734375 c 2
 244.166992188 266.666992188 l 1
 502.778320312 266.666992188 l 1
 502.778320312 716.666992188 l 1
 530.555664062 716.666992188 l 1
 530.555664062 266.666992188 l 1
 789.166992188 266.666992188 l 1
 789.166992188 252.77734375 l 2
 789.168945312 252.265625 789.170898438 251.43359375 789.170898438 250.921875 c 0
 789.170898438 205.13671875 774.609375 133.790039062 756.666992188 91.6669921875 c 2
 933.333984375 91.6669921875 l 1
516.666992188 -59.72265625 m 0
 648.055664062 -59.72265625 755.278320312 73.0556640625 761.111328125 238.888671875 c 1
 272.22265625 238.888671875 l 1
 278.055664062 73.0556640625 385.278320312 -59.72265625 516.666992188 -59.72265625 c 0
EndSplineSet
Validated: 1
EndChar

StartChar: good.736
Encoding: 736 57494 67
Width: 1038
VWidth: 0
Flags: W
LayerCount: 4
Fore
SplineSet
414 -84 m 5
 78 246 l 5
 142 312 l 5
 412 64 l 5
 892 672 l 5
 964 622 l 5
 414 -84 l 5
EndSplineSet
Validated: 1
EndChar

StartChar: animal.832
Encoding: 832 57602 68
Width: 1034
VWidth: 75
Flags: W
HStem: 248.333 27.7783<275.279 500 528.057 756.668> 516.111 27.5<204.281 208.283 233.612 500.279 528.057 799.723 825.053 829.172>
VStem: 500 27.7793<-61.1113 248.333 276.111 516.111>
LayerCount: 4
Fore
SplineSet
835.834960938 540.833007812 m 2
 859.3984375 508.692382812 903.576171875 462.150390625 934.4453125 436.944335938 c 2
 916.9453125 415.27734375 l 2
 886.7265625 439.909179688 843.046875 485.08203125 819.4453125 516.111328125 c 2
 528.056640625 516.111328125 l 1
 528.056640625 276.111328125 l 1
 756.66796875 276.111328125 l 1
 756.66796875 248.333007812 l 1
 527.779296875 248.333007812 l 1
 527.779296875 -61.111328125 l 1
 500 -61.111328125 l 1
 500 248.333007812 l 1
 275.279296875 248.333007812 l 1
 275.279296875 276.111328125 l 1
 500.279296875 276.111328125 l 1
 500.279296875 516.111328125 l 1
 213.890625 516.111328125 l 2
 190.576171875 485.13671875 147.39453125 439.962890625 117.5 415.27734375 c 2
 100 436.944335938 l 2
 128.716796875 460.661132812 170.15625 504.092773438 192.5 533.888671875 c 2
 192.5 543.888671875 l 1
 199.4453125 543.888671875 l 2
 219.501953125 571.338867188 246.87890625 618.876953125 260.556640625 650 c 2
 286.112304688 638.888671875 l 2
 274.045898438 611.256835938 250.525390625 568.572265625 233.612304688 543.611328125 c 2
 799.72265625 543.611328125 l 2
 782.823242188 568.499023438 759.302734375 611.05859375 747.22265625 638.611328125 c 2
 772.779296875 649.72265625 l 2
 786.456054688 618.598632812 813.833984375 571.061523438 833.890625 543.611328125 c 2
 835.834960938 543.611328125 l 1
 835.834960938 540.833007812 l 2
EndSplineSet
Validated: 1
EndChar

StartChar: thing.928
Encoding: 928 57605 69
Width: 1024
VWidth: 0
Flags: W
HStem: -61.5557 39.8887<154.057 884.611>
LayerCount: 4
Fore
SplineSet
959.666015625 -67.5556640625 m 5
 77.666015625 -61.5556640625 l 5
 515.666015625 744.444335938 l 5
 959.666015625 -67.5556640625 l 5
154.056640625 -21.6669921875 m 5
 884.611328125 -21.6669921875 l 5
 516 645 l 5
 154.056640625 -21.6669921875 l 5
EndSplineSet
Validated: 1
EndChar

StartChar: person.1024
Encoding: 1024 57631 70
Width: 1015
VWidth: 0
Flags: W
VStem: 443.757 41.3389<529.033 726.453>
LayerCount: 4
Fore
SplineSet
458.072265625 366.096679688 m 6
 508.62890625 180.470703125 644.508789062 31.91015625 891.612304688 -92.927734375 c 5
 876.047851562 -130.646484375 l 5
 634.340820312 -8.1806640625 487.212890625 138.600585938 427 318 c 5
 370.298828125 158.732421875 210.48046875 -40.5341796875 70.2607421875 -126.791992188 c 5
 44.982421875 -88.658203125 l 5
 322.193359375 89.2587890625 455.40234375 355.658203125 443.756835938 726.912109375 c 5
 484.088867188 726.022460938 l 6
 484.635742188 726.010742188 485.095703125 691.1953125 485.095703125 677.91015625 c 4
 485.095703125 587.508789062 458.072265625 366.096679688 458.072265625 366.096679688 c 6
EndSplineSet
Validated: 33
EndChar

StartChar: land.1120
Encoding: 1120 57683 71
Width: 1022
VWidth: 0
Flags: W
HStem: -125.833 27.7773<100 502.777 530.555 922.777> 494.444 27.7783<211.111 502.777 530.555 822.222>
VStem: 502.777 27.7773<-98.0557 494.444 522.223 716.667>
LayerCount: 4
Fore
SplineSet
530.5546875 -98.0556640625 m 1
 922.77734375 -98.0556640625 l 1
 922.77734375 -125.833007812 l 1
 100 -125.833007812 l 1
 100 -98.0556640625 l 1
 502.77734375 -98.0556640625 l 1
 502.77734375 494.444335938 l 1
 211.111328125 494.444335938 l 1
 211.111328125 522.22265625 l 1
 502.77734375 522.22265625 l 1
 502.77734375 716.666992188 l 1
 530.5546875 716.666992188 l 1
 530.5546875 522.22265625 l 1
 822.221679688 522.22265625 l 1
 822.221679688 494.444335938 l 1
 530.5546875 494.444335938 l 1
 530.5546875 -98.0556640625 l 1
EndSplineSet
Validated: 1
EndChar

StartChar: sun.1216
Encoding: 1216 57695 72
Width: 1033
VWidth: 0
Flags: W
HStem: -116.659 27.7695<422.605 610.727> 244.444 111.111<470.461 557.873> 688.881 27.7871<420.669 613.818>
VStem: 100 27.7783<204.665 395.357> 458.611 111.111<256.294 343.706> 905.556 27.7783<204.394 395.606>
LayerCount: 4
Fore
SplineSet
1425 486 m 1052,0,-1
514.166992188 716.666992188 m 0,1,-1
 514.397460938 716.666992188 514.772460938 716.66796875 515.00390625 716.66796875 c 0,4,-1
 745.005859375 716.66796875 932.41796875 530 933.333984375 300 c 0,7,-1
 933.329101562 70.00390625 746.663085938 -116.659179688 516.666992188 -116.659179688 c 0,10,-1
 286.666992188 -116.659179688 100 70.0078125 100 300.0078125 c 0,13,-1
 100 528.631835938 285.546875 715.294921875 514.166992188 716.666992188 c 0,1,-1
514.166992188 -88.888671875 m 0,16,-1
 514.3984375 -88.8896484375 514.772460938 -88.8896484375 515.00390625 -88.8896484375 c 0,19,-1
 729.672851562 -88.8896484375 904.640625 85.3330078125 905.555664062 300 c 0,22,-1
 905.551757812 514.662109375 731.329101562 688.880859375 516.666992188 688.880859375 c 0,25,-1
 302 688.880859375 127.778320312 514.658203125 127.778320312 299.9921875 c 0,28,-1
 127.778320312 86.701171875 300.879882812 -87.517578125 514.166992188 -88.888671875 c 0,16,-1
458.611328125 300 m 0,31,-1
 458.611328125 330.682617188 483.484375 355.555664062 514.166992188 355.555664062 c 0,34,-1
 544.849609375 355.555664062 569.72265625 330.682617188 569.72265625 300 c 0,37,-1
 569.72265625 269.317382812 544.849609375 244.444335938 514.166992188 244.444335938 c 0,40,-1
 483.484375 244.444335938 458.611328125 269.317382812 458.611328125 300 c 0,31,-1
EndSplineSet
Validated: 1
EndChar

StartChar: me.1312
Encoding: 1312 57702 73
Width: 1036
VWidth: 0
Flags: W
HStem: 75.1631 28.1689<723.612 791.472> 469.723 27.7773<100 619.168 652.72 738.891>
VStem: 513.297 27.2598<219.208 353.194> 907.779 28.2949<219.639 354.248>
LayerCount: 4
Fore
SplineSet
738.890625 497.5 m 1
 738.334960938 497.5 l 2
 847.487304688 490.4375 936.07421875 395.932617188 936.07421875 286.551757812 c 0
 936.07421875 169.865234375 841.37109375 75.1630859375 724.685546875 75.1630859375 c 0
 607.999023438 75.1630859375 513.296875 169.865234375 513.296875 286.551757812 c 0
 513.296875 353.99609375 560.7265625 436.056640625 619.16796875 469.72265625 c 2
 100 469.72265625 l 1
 100 497.5 l 1
 738.890625 497.5 l 1
724.16796875 103.333007812 m 2
 723.612304688 103.333007812 l 2
 723.765625 103.333007812 724.014648438 103.33203125 724.16796875 103.33203125 c 0
 825.521484375 103.33203125 907.779296875 185.58984375 907.779296875 286.943359375 c 0
 907.779296875 286.943359375 907.779296875 286.944335938 907.779296875 286.944335938 c 0
 907.779296875 388.297851562 825.521484375 470.555664062 724.16796875 470.555664062 c 0
 622.814453125 470.555664062 540.556640625 388.297851562 540.556640625 286.944335938 c 0
 540.556640625 185.590820312 622.814453125 103.333007812 724.16796875 103.333007812 c 2
EndSplineSet
Validated: 5
EndChar

StartChar: time.1408
Encoding: 1408 57706 74
Width: 1033
VWidth: 0
Flags: W
HStem: -125 27.7773<100 150 186.111 846.39 883.89 933.334> 688.889 27.7783<100 143.056 180.278 833.611 868.056 933.334>
LayerCount: 4
Fore
SplineSet
933.333984375 716.666992188 m 1
 933.333984375 685.833007812 l 1
 868.055664062 685.833007812 l 1
 869.444335938 685.833007812 l 1
 530.278320312 296.944335938 l 1
 883.889648438 -97.22265625 l 1
 933.333984375 -97.22265625 l 1
 933.333984375 -125 l 1
 100 -125 l 1
 100 -97.22265625 l 1
 150 -97.22265625 l 1
 493.055664062 297.77734375 l 1
 143.055664062 688.888671875 l 1
 100 688.888671875 l 1
 100 716.666992188 l 1
 933.333984375 716.666992188 l 1
846.389648438 -97.22265625 m 1
 511.666992188 275.833007812 l 1
 186.111328125 -97.22265625 l 1
 846.389648438 -97.22265625 l 1
511.389648438 319.444335938 m 1
 833.611328125 688.888671875 l 1
 180.278320312 688.888671875 l 1
 511.389648438 319.444335938 l 1
EndSplineSet
Validated: 5
EndChar

StartChar: house.1504
Encoding: 1504 57713 75
Width: 1036
VWidth: 0
Flags: W
HStem: 107.223 27.7773<127.777 908.889>
VStem: 100 27.7773<-116.667 107.223> 908.889 27.7773<-110.556 107.223>
LayerCount: 4
Fore
SplineSet
100 135 m 1
 936.666015625 135 l 1
 936.666015625 -110.555664062 l 1
 908.888671875 -110.555664062 l 1
 908.888671875 107.22265625 l 1
 127.77734375 107.22265625 l 1
 127.77734375 -116.666992188 l 1
 100 -116.666992188 l 1
 100 135 l 1
607.5 436.111328125 m 2
 536.126953125 494.228515625 448.26953125 609.836914062 411.388671875 694.166992188 c 2
 436.944335938 705.27734375 l 2
 472.318359375 624.408203125 556.567382812 513.528320312 625 457.77734375 c 2
 607.5 436.111328125 l 2
EndSplineSet
Validated: 1
EndChar

StartChar: no.1600
Encoding: 1600 57724 76
Width: 993
VWidth: 0
Flags: W
LayerCount: 4
Fore
SplineSet
893.888671875 677.5 m 5
 530 310 l 5
 926 -54 l 5
 874.444335938 -96.9443359375 l 5
 478 268 l 5
 119.444335938 -96.9443359375 l 5
 82 -56 l 5
 436 304 l 5
 88 666 l 5
 134 710 l 5
 486 360 l 5
 854 712 l 5
 893.888671875 677.5 l 5
EndSplineSet
Validated: 1
EndChar

StartChar: many.1696
Encoding: 1696 57752 77
Width: 1036
VWidth: 0
Flags: W
HStem: -33.1152 28.123<719.244 825.672> 625 27.2227<214.526 645.001>
VStem: 177.779 28.8887<235.56 613.796> 909.168 27.7773<92.4446 122.583>
LayerCount: 4
Fore
SplineSet
126.388671875 -51.9443359375 m 1
 100 -43.0556640625 l 1
 135.380859375 63.3037109375 170.224609375 240.387695312 177.779296875 352.22265625 c 0
 179.556640625 380.0625 181.001953125 425.297851562 181.001953125 453.194335938 c 0
 181.001953125 481.090820312 179.556640625 526.327148438 177.779296875 554.166992188 c 0
 175.556640625 590.27734375 177.779296875 616.111328125 192.779296875 632.5 c 0
 207.779296875 648.888671875 233.333984375 652.22265625 271.388671875 652.22265625 c 2
 684.723632812 652.22265625 l 1
 677.779296875 633.333007812 l 2
 538.888671875 234.444335938 642.779296875 77.77734375 677.779296875 40 c 0
 697.9375 15.1640625 740.2578125 -4.9921875 772.244140625 -4.9921875 c 0
 779.450195312 -4.9921875 791.013671875 -3.7509765625 798.056640625 -2.22265625 c 0
 849.16796875 10.5556640625 890.279296875 59.1669921875 909.16796875 127.77734375 c 2
 936.9453125 120.833007812 l 2
 916.66796875 42.22265625 868.056640625 -13.888671875 806.66796875 -29.1669921875 c 0
 797.40234375 -31.345703125 782.158203125 -33.115234375 772.638671875 -33.115234375 c 0
 733.403320312 -33.115234375 681.572265625 -8.32421875 656.9453125 22.22265625 c 0
 558.611328125 129.72265625 554.4453125 354.166992188 645.000976562 625 c 1
 272.779296875 625 l 2
 238.056640625 625 221.66796875 621.944335938 214.16796875 614.166992188 c 0
 206.66796875 606.388671875 204.723632812 589.72265625 206.66796875 556.666992188 c 0
 208.470703125 528.329101562 209.935546875 482.284179688 209.935546875 453.888671875 c 0
 209.935546875 425.493164062 208.470703125 379.44921875 206.66796875 351.111328125 c 0
 198.720703125 237.037109375 162.755859375 56.46875 126.388671875 -51.9443359375 c 1
EndSplineSet
Validated: 33
EndChar

StartChar: small.1792
Encoding: 1792 57755 78
Width: 1034
VWidth: 0
Flags: W
HStem: 72 59.3887<100 906.944> 468.611 59.3887<100 906.944>
VStem: 906.944 93.0557<131.389 466.25> 906.944 85.0557<131.389 468.611>
LayerCount: 4
Fore
SplineSet
1000 69 m 1xe0
 100 72 l 1
 100 131.388671875 l 1
 906.944335938 131.388671875 l 1xe0
 906.944335938 468.611328125 l 1
 100 468.611328125 l 1
 100 528 l 1
 992 523 l 1xd0
 1000 69 l 1xe0
EndSplineSet
Validated: 1
EndChar

StartChar: face.1888
Encoding: 1888 57859 79
Width: 1036
VWidth: 0
Flags: W
HStem: -43.333 27.7773<407.771 628.895> 611.944 27.7783<407.771 628.895>
VStem: 100 27.7773<220.505 375.882> 293.056 27.7773<247.271 276.61> 716.11 27.7783<255.593 276.96> 908.889 27.7773<220.507 375.884>
LayerCount: 4
Fore
SplineSet
518.333007812 639.72265625 m 0
 748.888671875 639.72265625 936.666015625 486.666992188 936.666015625 298.333007812 c 0
 936.666015625 110 748.888671875 -43.3330078125 518.333007812 -43.3330078125 c 0
 287.77734375 -43.3330078125 100 109.72265625 100 298.055664062 c 0
 100 486.388671875 287.77734375 639.72265625 518.333007812 639.72265625 c 0
518.333007812 -15.5556640625 m 0
 733.610351562 -15.5556640625 908.888671875 125 908.888671875 298.055664062 c 0
 908.888671875 471.111328125 733.610351562 611.944335938 518.333007812 611.944335938 c 0
 303.055664062 611.944335938 127.77734375 471.388671875 127.77734375 298.333007812 c 0
 127.77734375 125.27734375 303.055664062 -15.5556640625 518.333007812 -15.5556640625 c 0
320.833007812 281.388671875 m 1
 293.055664062 275 l 1
 347.771484375 52.07421875 684.544921875 61.609375 743.888671875 275 c 1
 716.110351562 282.77734375 l 1
 663.125 95.3935546875 371.377929688 86.7529296875 320.833007812 281.388671875 c 1
EndSplineSet
Validated: 41
EndChar

StartChar: man.0
Encoding: 0 57344 82
Width: 872
VWidth: 0
Flags: W
HStem: -129 63<44 545> 525 42.2227<257.445 466.056> 654 61.5557<68 539>
VStem: 545 54.667<-66 195.277 399.444 654>
LayerCount: 4
Fore
SplineSet
599.666992188 399.444335938 m 1
 710 295 l 1
 599.666992188 195.27734375 l 1
 605 -132 l 1
 44 -129 l 1
 38 -66 l 1
 545 -66 l 1
 545 240 l 1
 622 295 l 1
 545 360 l 1
 539 654 l 1
 62 654 l 1
 68 715.555664062 l 1
 599.666992188 715.555664062 l 1
 599.666992188 399.444335938 l 1
256 525 m 1
 257.4453125 567.22265625 l 1
 466.055664062 567.22265625 l 1
 468 527 l 1
 256 525 l 1
EndSplineSet
Validated: 1
EndChar

StartChar: woman.8
Encoding: 8 57352 90
Width: 991
VWidth: 0
Flags: W
HStem: 325.223 27.7773<765.99 809.222> 364.111 27.7773<786.935 812>
VStem: 192.556 46.4443<-88 -38.5 378 598> 656.444 27.7773<508.428 666.889>
LayerCount: 4
Fore
SplineSet
192.555664062 378 m 5
 74 269 l 5
 192.555664062 172.444335938 l 5
 192.555664062 -138.666992188 l 5
 723.111328125 -138.666992188 l 5
 722 -82 l 5
 239 -88 l 5
 233 209 l 5
 152 265 l 5
 245 353 l 5
 248 668 l 5
 670.333007812 666.888671875 l 5
 656.444335938 666.888671875 l 5
 659.221679688 461.333007812 703.666992188 380.77734375 742.555664062 347.444335938 c 4
 759.221679688 333.555664062 781.444335938 325.22265625 800.888671875 325.22265625 c 4
 803.666992188 325.22265625 809.221679688 325.22265625 812 325.22265625 c 6
 809.221679688 353 l 6
 798.111328125 353 781.444335938 353 762 369.666992188 c 4
 731.444335938 391.888671875 684.221679688 464.111328125 684.221679688 666.888671875 c 5
 695.333007812 666.888671875 l 5
 712 439.111328125 739.77734375 366.888671875 812 364.111328125 c 6
 812 391.888671875 l 6
 773.111328125 394.666992188 749.130859375 455.125 723.111328125 675.22265625 c 6
 719 710 l 5
 197 713 l 5
 192.555664062 378 l 5
534.221679688 516.888671875 m 5
 534.221679688 544.666992188 l 5
 325.888671875 544.666992188 l 5
 325.888671875 516.888671875 l 5
 534.221679688 516.888671875 l 5
EndSplineSet
Validated: 9
EndChar

StartChar: girl.9
Encoding: 9 57353 91
Width: 972
VWidth: 0
Flags: W
HStem: -108.015 30.089<47.8627 328.911> 92.9259 30.089<47.8627 328.911> 286.249 26.8187<857.601 886.837> 323.795 26.8187<871.765 888.715>
VStem: 328.911 29.6238<-77.9263 92.9259> 328.911 32.4101<-77.9263 91.7297> 469.817 31.4079<-112.713 -64.9217 337.205 549.613> 783.521 18.7844<463.132 616.124>
LayerCount: 4
Back
SplineSet
815.321289062 -21.53515625 m 1xe0
 501.862304688 -20.015625 l 1
 501.862304688 10.0732421875 l 1
 782.911132812 10.0732421875 l 1xe0
 782.911132812 180.92578125 l 1
 501.862304688 180.92578125 l 1
 501.862304688 211.014648438 l 1
 812.53515625 208.481445312 l 1xd0
 815.321289062 -21.53515625 l 1xe0
109.81640625 341.205078125 m 5
 29.6435546875 235.966796875 l 5
 109.81640625 142.743164062 l 5
 109.81640625 -157.631835938 l 5
 468.604492188 -157.631835938 l 5
 467.852539062 -102.920898438 l 5
 141.224609375 -108.713867188 l 5
 137.166992188 178.037109375 l 5
 82.390625 232.104492188 l 5
 145.282226562 317.067382812 l 5
 147.310546875 621.197265625 l 5
 432.913085938 620.124023438 l 5
 423.520507812 620.124023438 l 5
 425.399414062 421.662109375 455.455078125 343.88671875 481.75390625 311.704101562 c 4
 493.0234375 298.293945312 508.051757812 290.249023438 521.201171875 290.249023438 c 4
 523.080078125 290.249023438 526.8359375 290.249023438 528.71484375 290.249023438 c 6
 526.8359375 317.067382812 l 6
 519.323242188 317.067382812 508.051757812 317.067382812 494.90234375 333.159179688 c 4
 474.239257812 354.614257812 442.305664062 424.344726562 442.305664062 620.124023438 c 5
 449.819335938 620.124023438 l 5
 461.08984375 400.20703125 479.875 330.4765625 528.71484375 327.795898438 c 6
 528.71484375 354.614257812 l 6
 502.416992188 357.296875 486.200195312 415.66796875 468.604492188 628.170898438 c 6
 465.82421875 661.748046875 l 5
 112.822265625 664.64453125 l 5
 109.81640625 341.205078125 l 5
340.868164062 475.30078125 m 5
 340.868164062 502.120117188 l 5
 199.982421875 502.120117188 l 5
 199.982421875 475.30078125 l 5
 340.868164062 475.30078125 l 5
EndSplineSet
Fore
Refer: 78 57755 S 0.348287 0 0 0.506646 13.034 -144.494 2
Refer: 90 57352 N 0.676249 0 0 0.96549 339.601 -27.7503 2
Validated: 9
EndChar

StartChar: girls.10
Encoding: 10 57354 92
Width: 1137
VWidth: 0
Flags: W
HStem: -57.855 29.7868<83.4503 390.6> 141.068 29.7868<83.4503 390.6> 219.259 31.45<82.8755 384.225> 315.555 29.1145<1017.03 1048.95> 356.315 29.1145<1032.49 1051> 429.29 31.45<82.8755 384.225>
VStem: 384.225 31.7636<250.71 429.29> 384.225 34.7512<250.71 428.039> 390.6 32.375<-28.0681 141.068> 390.6 35.4201<-28.0681 139.883> 593.66 34.2901<-117.561 -65.6778 370.873 601.463> 936.152 20.5081<507.579 673.669>
LayerCount: 4
Back
SplineSet
921.01953125 -98.359375 m 1xe0
 578.450195312 -96.8544921875 l 1
 578.450195312 -67.068359375 l 1
 885.599609375 -67.068359375 l 1xe0
 885.599609375 102.067382812 l 1
 578.450195312 102.067382812 l 1
 578.450195312 131.854492188 l 1
 917.974609375 129.346679688 l 1xd0
 921.01953125 -98.359375 l 1xe0
913.975585938 157.670898438 m 1xe0
 577.875976562 159.259765625 l 1
 577.875976562 190.708984375 l 1
 879.224609375 190.708984375 l 1xe0
 879.224609375 369.290039062 l 1
 577.875976562 369.290039062 l 1
 577.875976562 400.739257812 l 1
 910.98828125 398.091796875 l 1xd0
 913.975585938 157.670898438 l 1xe0
141.116210938 352 m 5
 65.1298828125 243 l 5
 141.116210938 146.444335938 l 5
 141.116210938 -164.666992188 l 5
 481.166992188 -164.666992188 l 5
 480.455078125 -108 l 5
 170.883789062 -114 l 5
 167.038085938 183 l 5
 115.123046875 239 l 5
 174.729492188 327 l 5
 176.65234375 642 l 5
 447.33984375 640.888671875 l 5
 438.4375 640.888671875 l 5
 440.217773438 435.333007812 468.704101562 354.77734375 493.629882812 321.444335938 c 4
 504.311523438 307.555664062 518.5546875 299.22265625 531.016601562 299.22265625 c 4
 532.797851562 299.22265625 536.357421875 299.22265625 538.138671875 299.22265625 c 6
 536.357421875 327 l 6
 529.237304688 327 518.5546875 327 506.091796875 343.666992188 c 4
 486.5078125 365.888671875 456.241210938 438.111328125 456.241210938 640.888671875 c 5
 463.36328125 640.888671875 l 5
 474.044921875 413.111328125 491.848632812 340.888671875 538.138671875 338.111328125 c 6
 538.138671875 365.888671875 l 6
 513.213867188 368.666992188 497.84375 429.125 481.166992188 649.22265625 c 6
 478.532226562 684 l 5
 143.96484375 687 l 5
 141.116210938 352 l 5
360.1015625 490.888671875 m 5
 360.1015625 518.666992188 l 5
 226.57421875 518.666992188 l 5
 226.57421875 490.888671875 l 5
 360.1015625 490.888671875 l 5
EndSplineSet
Fore
Refer: 78 57755 N 0.380633 0 0 0.501556 45.387 -93.967 2
Refer: 78 57755 S 0.373445 0 0 0.529562 45.531 181.131 2
Refer: 90 57352 N 0.738306 0 0 1.04814 451.495 -25.3244 2
Validated: 9
EndChar

StartChar: daughter.12
Encoding: 12 57356 94
Width: 1179
VWidth: 0
Flags: W
HStem: -74.6087 16.8374<839.929 853.871> 97.571 31.1071<76.4647 363.581> 305.311 31.1071<76.4647 363.581> 313.114 30.1489<1073.03 1108.71> 322.023 15.8139<748.977 801.204 893.886 944.442> 355.322 30.1489<1090.32 1111>
VStem: 363.581 30.2634<128.678 305.311> 363.581 33.1099<128.678 304.074> 599.859 38.324<-135.39 -81.6636 370.397 609.181> 693.468 9.71594<171.093 252.041> 982.641 22.9207<511.961 683.951> 990.219 10.2091<170.552 253.316>
LayerCount: 4
Back
SplineSet
990.69140625 66 m 1xe0
 670.46484375 67.5712890625 l 1
 670.46484375 98.677734375 l 1
 957.581054688 98.677734375 l 1xe0
 957.581054688 275.311523438 l 1
 670.46484375 275.311523438 l 1
 670.46484375 306.41796875 l 1
 987.844726562 303.799804688 l 1xd0
 990.69140625 66 l 1xe0
354.513671875 -28.033203125 m 0
 354.557617188 -28.0341796875 354.627929688 -28.03515625 354.670898438 -28.03515625 c 0
 357.822265625 -28.03515625 362.178710938 -25.1083984375 364.393554688 -21.50390625 c 2
 457.828125 123.928710938 l 2
 459.065429688 125.579101562 460.967773438 128.4375 462.075195312 130.30859375 c 0
 464.014648438 133.424804688 466.784179688 138.767578125 470.662109375 146.6328125 c 0
 473.846679688 153.037109375 478.5625 163.940429688 481.186523438 170.970703125 c 0
 484.079101562 179.001953125 487.842773438 192.697265625 489.588867188 201.541992188 c 0
 491.475585938 210.924804688 493.006835938 226.543945312 493.006835938 236.405273438 c 0
 493.006835938 236.612304688 493.005859375 236.94921875 493.004882812 237.157226562 c 0
 493.069335938 238.9921875 493.12109375 241.973632812 493.12109375 243.811523438 c 0
 493.12109375 269.857421875 484.09375 306.366210938 472.970703125 325.306640625 c 0
 460.844726562 343 437.712890625 357.360351562 421.3359375 357.360351562 c 0
 420.296875 357.360351562 418.611328125 357.293945312 417.573242188 357.212890625 c 0
 411.790039062 357.1640625 402.6484375 354.705078125 397.168945312 351.721679688 c 0
 391.588867188 348.72265625 383.068359375 342.07421875 378.150390625 336.881835938 c 0
 372.518554688 330.946289062 367.625 325.306640625 363.469726562 319.963867188 c 0
 359.315429688 314.62109375 357.74609375 312.247070312 354.9765625 308.092773438 c 0
 352.20703125 312.247070312 349.436523438 316.10546875 346.481445312 319.963867188 c 0
 343.52734375 323.823242188 337.249023438 330.946289062 331.801757812 336.881835938 c 0
 326.883789062 342.077148438 318.364257812 348.724609375 312.782226562 351.721679688 c 0
 307.197265625 354.940429688 297.849609375 357.666015625 291.916992188 357.805664062 c 0
 290.87890625 357.888671875 289.193359375 357.954101562 288.154296875 357.954101562 c 0
 271.778320312 357.954101562 248.645507812 343.594726562 236.520507812 325.900390625 c 0
 225.145507812 306.875976562 215.913085938 270.022460938 215.913085938 243.63671875 c 0
 215.913085938 241.846679688 215.962890625 238.943359375 216.0234375 237.157226562 c 0
 216.0234375 199.759765625 228.026367188 161.62109375 251.662109375 123.630859375 c 2
 344.727539062 -21.05859375 l 2
 346.915039062 -24.8466796875 351.298828125 -27.9716796875 354.513671875 -28.033203125 c 0
417.112304688 342.965820312 m 0
 418.110351562 343.051757812 419.732421875 343.12109375 420.731445312 343.12109375 c 0
 435.26171875 343.12109375 455.768554688 330.353515625 466.5078125 314.62109375 c 0
 476.109375 298.096679688 483.901367188 266.33203125 483.901367188 243.720703125 c 0
 483.901367188 241.907226562 483.84375 238.966796875 483.772460938 237.157226562 c 0
 483.70703125 228.400390625 482.217773438 214.572265625 480.448242188 206.290039062 c 0
 478.874023438 198.306640625 475.482421875 185.940429688 472.877929688 178.6875 c 0
 470.510742188 172.142578125 466.25 161.970703125 463.368164062 155.982421875 c 0
 459.674804688 148.5625 456.998046875 143.516601562 455.3359375 141.142578125 c 0
 454.373046875 139.491210938 452.717773438 136.96484375 451.642578125 135.50390625 c 2
 357.837890625 -9.9287109375 l 2
 357.083007812 -11.2255859375 355.573242188 -12.27734375 354.46875 -12.27734375 c 0
 353.36328125 -12.27734375 351.853515625 -11.2255859375 351.098632812 -9.9287109375 c 2
 257.663085938 134.612304688 l 2
 235.874023438 169.635742188 224.794921875 204.361328125 224.794921875 237.602539062 c 0
 224.736328125 239.249023438 224.688476562 241.923828125 224.688476562 243.57421875 c 0
 224.688476562 266.4453125 232.63671875 298.473632812 242.428710938 315.06640625 c 0
 253.1328125 330.571289062 273.513671875 343.155273438 287.921875 343.155273438 c 0
 289.025390625 343.155273438 290.815429688 343.0703125 291.916992188 342.965820312 c 0
 296.864257812 342.908203125 304.682617188 340.780273438 309.366210938 338.216796875 c 0
 314.322265625 335.591796875 321.892578125 329.7421875 326.26171875 325.158203125 c 0
 331.6171875 319.518554688 336.325195312 314.028320312 340.203125 309.130859375 c 0
 343.422851562 304.822265625 348.38671875 297.375976562 351.283203125 292.509765625 c 2
 354.513671875 287.315429688 l 1
 357.74609375 292.509765625 l 2
 360.626953125 297.1640625 365.548828125 304.27734375 368.732421875 308.388671875 c 0
 372.610351562 313.434570312 377.319335938 318.776367188 382.674804688 324.416015625 c 0
 387.044921875 328.997070312 394.615234375 334.84765625 399.5703125 337.474609375 c 0
 404.256835938 340.262695312 412.116210938 342.72265625 417.112304688 342.965820312 c 0
131.376953125 388.426757812 m 5
 43.03125 277.708984375 l 5
 131.376953125 179.631835938 l 5
 131.376953125 -136.3828125 l 5
 526.737304688 -136.3828125 l 5
 525.908203125 -78.8232421875 l 5
 165.986328125 -84.9169921875 l 5
 161.515625 216.763671875 l 5
 101.155273438 273.645507812 l 5
 170.45703125 363.032226562 l 5
 172.693359375 682.997070312 l 5
 487.407226562 681.868164062 l 5
 477.057617188 681.868164062 l 5
 479.127929688 473.073242188 512.247070312 391.248046875 541.2265625 357.389648438 c 4
 553.645507812 343.282226562 570.205078125 334.817382812 584.6953125 334.817382812 c 4
 586.765625 334.817382812 590.904296875 334.817382812 592.974609375 334.817382812 c 6
 590.904296875 363.032226562 l 6
 582.625 363.032226562 570.205078125 363.032226562 555.715820312 379.961914062 c 4
 532.946289062 402.534179688 497.756835938 475.895507812 497.756835938 681.868164062 c 5
 506.037109375 681.868164062 l 5
 518.45703125 450.500976562 539.15625 377.140625 592.974609375 374.319335938 c 6
 592.974609375 402.534179688 l 6
 563.99609375 405.356445312 546.125976562 466.767578125 526.737304688 690.333984375 c 6
 523.672851562 725.659179688 l 5
 134.688476562 728.706054688 l 5
 131.376953125 388.426757812 l 5
385.979492188 529.50390625 m 5
 385.979492188 557.720703125 l 5
 230.734375 557.720703125 l 5
 230.734375 529.50390625 l 5
 385.979492188 529.50390625 l 5
EndSplineSet
Fore
Refer: 78 57755 N 0.355807 0 0 0.523788 40.884 59.8583 2
Refer: 93 57355 N 0.825161 0 0 1.08538 440.969 -39.8765 2
Validated: 9
EndChar

StartChar: daughters.13
Encoding: 13 57357 95
Width: 1216
VWidth: 0
Flags: W
HStem: -7.3862 31.9482<72.1757 404.658> -7 15.5129<794.397 807.434> 205.971 31.9482<72.1757 404.658> 328.823 30.3916<90.8883 412.539> 350.223 27.7773<1012.37 1045.73> 358.431 14.5699<709.348 758.185 844.851 892.126> 389.111 27.7773<1028.53 1047.87> 531.785 30.3916<90.8883 412.539>
VStem: 404.658 35.0452<24.5621 205.971> 404.658 38.3415<24.5621 204.701> 412.539 33.9035<359.215 531.785> 412.539 37.0923<359.215 530.577> 569.908 35.8366<-63 -13.5 403 623> 657.442 9.08533<219.374 293.954> 927.846 21.4331<533.428 691.889> 934.932 9.54652<218.875 295.129>
LayerCount: 4
Back
SplineSet
1142.15332031 5.9013671875 m 1xe0
 780.17578125 7.4697265625 l 1
 780.17578125 38.525390625 l 1
 1104.7265625 38.525390625 l 1xe0
 1104.7265625 214.86328125 l 1
 780.17578125 214.86328125 l 1
 780.17578125 245.918945312 l 1
 1138.93554688 243.3046875 l 1xd0
 1142.15332031 5.9013671875 l 1xe0
1133.63085938 318.288085938 m 1xe0
 774.888671875 319.823242188 l 1
 774.888671875 350.21484375 l 1
 1096.5390625 350.21484375 l 1xe0
 1096.5390625 522.78515625 l 1
 774.888671875 522.78515625 l 1
 774.888671875 553.176757812 l 1
 1130.44238281 550.618164062 l 1xd0
 1133.63085938 318.288085938 l 1xe0
389.95703125 -18.998046875 m 0
 390.001953125 -18.9990234375 390.07421875 -19 390.119140625 -19 c 0
 393.3828125 -19 397.893554688 -16.119140625 400.186523438 -12.5703125 c 2
 496.934570312 130.60546875 l 2
 498.21484375 132.23046875 500.184570312 135.044921875 501.333007812 136.88671875 c 0
 503.33984375 139.955078125 506.208007812 145.21484375 510.223632812 152.958007812 c 0
 513.521484375 159.262695312 518.404296875 169.997070312 521.12109375 176.91796875 c 0
 524.116210938 184.82421875 528.013671875 198.307617188 529.821289062 207.014648438 c 0
 531.774414062 216.251953125 533.360351562 231.62890625 533.360351562 241.336914062 c 0
 533.360351562 241.541015625 533.359375 241.873046875 533.358398438 242.077148438 c 0
 533.424804688 243.883789062 533.478515625 246.819335938 533.478515625 248.62890625 c 0
 533.478515625 274.270507812 524.130859375 310.212890625 512.61328125 328.859375 c 0
 500.057617188 346.278320312 476.10546875 360.416015625 459.1484375 360.416015625 c 0
 458.072265625 360.416015625 456.327148438 360.350585938 455.252929688 360.270507812 c 0
 449.263671875 360.22265625 439.797851562 357.801757812 434.125 354.864257812 c 0
 428.346679688 351.912109375 419.5234375 345.3671875 414.431640625 340.254882812 c 0
 408.599609375 334.411132812 403.532226562 328.859375 399.23046875 323.599609375 c 0
 394.928710938 318.33984375 393.303710938 316.001953125 390.435546875 311.912109375 c 0
 387.567382812 316.001953125 384.700195312 319.80078125 381.639648438 323.599609375 c 0
 378.580078125 327.3984375 372.080078125 334.411132812 366.439453125 340.254882812 c 0
 361.34765625 345.369140625 352.525390625 351.9140625 346.74609375 354.864257812 c 0
 340.962890625 358.033203125 331.283203125 360.716796875 325.140625 360.854492188 c 0
 324.065429688 360.935546875 322.3203125 361 321.244140625 361 c 0
 304.287109375 361 280.333984375 346.86328125 267.779296875 329.443359375 c 0
 256.000976562 310.71484375 246.44140625 274.432617188 246.44140625 248.456054688 c 0
 246.44140625 246.694335938 246.493164062 243.8359375 246.555664062 242.077148438 c 0
 246.555664062 205.260742188 258.984375 167.713867188 283.458007812 130.3125 c 2
 379.82421875 -12.1318359375 l 2
 382.087890625 -15.861328125 386.627929688 -18.9375 389.95703125 -18.998046875 c 0
454.775390625 346.244140625 m 0
 455.80859375 346.329101562 457.48828125 346.397460938 458.522460938 346.397460938 c 0
 473.567382812 346.397460938 494.801757812 333.828125 505.921875 318.33984375 c 0
 515.86328125 302.071289062 523.932617188 270.799804688 523.932617188 248.5390625 c 0
 523.932617188 246.75390625 523.873046875 243.859375 523.798828125 242.077148438 c 0
 523.731445312 233.45703125 522.189453125 219.842773438 520.356445312 211.689453125 c 0
 518.7265625 203.830078125 515.21484375 191.655273438 512.517578125 184.514648438 c 0
 510.06640625 178.071289062 505.655273438 168.057617188 502.670898438 162.162109375 c 0
 498.846679688 154.857421875 496.07421875 149.889648438 494.353515625 147.552734375 c 0
 493.356445312 145.926757812 491.643554688 143.439453125 490.529296875 142.000976562 c 2
 393.399414062 -1.1748046875 l 2
 392.6171875 -2.451171875 391.053710938 -3.4873046875 389.91015625 -3.4873046875 c 0
 388.764648438 -3.4873046875 387.202148438 -2.451171875 386.419921875 -1.1748046875 c 2
 289.671875 141.124023438 l 2
 267.110351562 175.603515625 255.638671875 209.790039062 255.638671875 242.515625 c 0
 255.577148438 244.13671875 255.52734375 246.770507812 255.52734375 248.39453125 c 0
 255.52734375 270.911132812 263.7578125 302.442382812 273.897460938 318.778320312 c 0
 284.98046875 334.041992188 306.083984375 346.430664062 321.00390625 346.430664062 c 0
 322.146484375 346.430664062 323.999023438 346.34765625 325.140625 346.244140625 c 0
 330.263671875 346.1875 338.358398438 344.092773438 343.208984375 341.569335938 c 0
 348.33984375 338.985351562 356.178710938 333.225585938 360.703125 328.712890625 c 0
 366.248046875 323.161132812 371.124023438 317.755859375 375.139648438 312.934570312 c 0
 378.47265625 308.692382812 383.612304688 301.362304688 386.611328125 296.571289062 c 2
 389.95703125 291.458007812 l 1
 393.303710938 296.571289062 l 2
 396.287109375 301.153320312 401.3828125 308.15625 404.6796875 312.204101562 c 0
 408.6953125 317.171875 413.571289062 322.430664062 419.116210938 327.982421875 c 0
 423.641601562 332.4921875 431.479492188 338.251953125 436.610351562 340.838867188 c 0
 441.463867188 343.583007812 449.6015625 346.004882812 454.775390625 346.244140625 c 0
158.908203125 391 m 5
 67.4296875 282 l 5
 158.908203125 185.444335938 l 5
 158.908203125 -125.666992188 l 5
 568.286132812 -125.666992188 l 5
 567.428710938 -69 l 5
 194.744140625 -75 l 5
 190.114257812 222 l 5
 127.615234375 278 l 5
 199.374023438 366 l 5
 201.688476562 681 l 5
 527.5625 679.888671875 l 5
 516.845703125 679.888671875 l 5
 518.989257812 474.333007812 553.283203125 393.77734375 583.290039062 360.444335938 c 4
 596.149414062 346.555664062 613.296875 338.22265625 628.299804688 338.22265625 c 4
 630.443359375 338.22265625 634.729492188 338.22265625 636.873046875 338.22265625 c 6
 634.729492188 366 l 6
 626.157226562 366 613.296875 366 598.29296875 382.666992188 c 4
 574.716796875 404.888671875 538.279296875 477.111328125 538.279296875 679.888671875 c 5
 546.852539062 679.888671875 l 5
 559.712890625 452.111328125 581.146484375 379.888671875 636.873046875 377.111328125 c 6
 636.873046875 404.888671875 l 6
 606.8671875 407.666992188 588.36328125 468.125 568.286132812 688.22265625 c 6
 565.114257812 723 l 5
 162.336914062 726 l 5
 158.908203125 391 l 5
422.5390625 529.888671875 m 5
 422.5390625 557.666992188 l 5
 261.788085938 557.666992188 l 5
 261.788085938 529.888671875 l 5
 422.5390625 529.888671875 l 5
EndSplineSet
Fore
Refer: 78 57755 N 0.412027 0 0 0.53795 30.973 -46.1186 2
Refer: 78 57755 N 0.398603 0 0 0.51174 51.028 291.978 2
Refer: 93 57355 S 0.771604 0 0 1 421.331 25 2
Validated: 9
EndChar

StartChar: wedding.17
Encoding: 17 57361 99
Width: 1106
VWidth: 0
Flags: W
HStem: -55.7095 41.6724<73.2459 312.6> 350.886 11.0616<522.739 534.816> 376.89 27.9289<175.22 274.885> 462.22 40.7171<84.712 309.734> 592.11 13.5213<228.344 311.829> 611.46 10.3892<444.289 488.079 568.358 613.597> 654.307 67.6055<237.717 301.82> 681.349 13.5209<311.175 379.315 396.5 685.525> 770.588 13.5213<228.347 311.854>
VStem: 142.525 18.1803<656.674 719.547> 312.6 26.1173<-14.037 158.789 293.839 462.22> 379.315 17.7695<657.101 681.349 694.87 719.147> 395.795 8.84292<511.948 566.322> 653.261 8.41576<512.305 565.484>
LayerCount: 4
Back
SplineSet
767.525390625 623.759765625 m 1xbc
 767.525390625 610.239257812 l 1
 479.083984375 610.239257812 l 2
 474.467773438 560.979492188 417.517578125 521 351.962890625 521 c 0
 281.6171875 521 224.525390625 564.0078125 224.525390625 617 c 0
 224.525390625 669.991210938 281.6171875 713 351.962890625 713 c 0
 417.517578125 713 474.467773438 673.020507812 479.083984375 623.759765625 c 2
 767.525390625 623.759765625 l 1xbc
352.185546875 534.521484375 m 0
 407.784179688 534.580078125 456.674804688 568.501953125 461.314453125 610.239257812 c 2
 396.16015625 610.239257812 l 2xbc
 392.115234375 595.311523438 372.418945312 583.197265625 352.194335938 583.197265625 c 0
 327.424804688 583.197265625 307.322265625 598.340820312 307.322265625 617 c 0
 307.322265625 635.658203125 327.424804688 650.802734375 352.194335938 650.802734375 c 0xdc
 372.418945312 650.802734375 392.115234375 638.6875 396.16015625 623.759765625 c 2
 461.314453125 623.759765625 l 2
 456.751953125 665.556640625 407.866210938 699.478515625 352.194335938 699.478515625 c 0
 291.756835938 699.478515625 242.706054688 662.52734375 242.706054688 617 c 0
 242.706054688 571.475585938 291.751953125 534.525390625 352.185546875 534.521484375 c 0
528.73828125 346.887695312 m 0
 528.697265625 346.887695312 528.629882812 346.88671875 528.588867188 346.88671875 c 0
 525.565429688 346.88671875 521.387695312 348.940429688 519.262695312 351.471679688 c 2
 429.645507812 453.563476562 l 2
 428.458984375 454.72265625 426.634765625 456.729492188 425.572265625 458.04296875 c 0
 423.711914062 460.23046875 421.055664062 463.981445312 417.336914062 469.502929688 c 0
 414.28125 473.998046875 409.7578125 481.65234375 407.240234375 486.586914062 c 0
 404.467773438 492.224609375 400.857421875 501.838867188 399.182617188 508.047851562 c 0
 397.373046875 514.634765625 395.904296875 525.599609375 395.904296875 532.521484375 c 0
 395.904296875 532.666992188 395.905273438 532.904296875 395.90625 533.049804688 c 0
 395.844726562 534.337890625 395.794921875 536.431640625 395.794921875 537.720703125 c 0
 395.794921875 556.004882812 404.454101562 581.634765625 415.123046875 594.930664062 c 0
 426.752929688 607.3515625 448.939453125 617.432617188 464.647460938 617.432617188 c 0
 465.643554688 617.432617188 467.259765625 617.385742188 468.254882812 617.328125 c 0
 473.803710938 617.293945312 482.571289062 615.568359375 487.826171875 613.473632812 c 0
 493.178710938 611.369140625 501.3515625 606.701171875 506.068359375 603.055664062 c 0
 511.470703125 598.888671875 516.1640625 594.930664062 520.149414062 591.1796875 c 0
 524.133789062 587.4296875 525.639648438 585.762695312 528.295898438 582.845703125 c 0
 530.953125 585.762695312 533.608398438 588.471679688 536.443359375 591.1796875 c 0
 539.276367188 593.888671875 545.298828125 598.888671875 550.5234375 603.055664062 c 0
 555.240234375 606.703125 563.412109375 611.370117188 568.765625 613.473632812 c 0
 574.122070312 615.733398438 583.087890625 617.646484375 588.779296875 617.744140625 c 0
 589.7734375 617.802734375 591.390625 617.848632812 592.38671875 617.848632812 c 0
 608.095703125 617.848632812 630.282226562 607.768554688 641.912109375 595.346679688 c 0
 652.821289062 581.9921875 661.676757812 556.12109375 661.676757812 537.598632812 c 0
 661.676757812 536.341796875 661.629882812 534.3046875 661.571289062 533.049804688 c 0
 661.571289062 506.797851562 650.059570312 480.024414062 627.388671875 453.354492188 c 2
 538.125976562 351.784179688 l 2
 536.02734375 349.124023438 531.822265625 346.930664062 528.73828125 346.887695312 c 0
468.698242188 607.327148438 m 0
 467.740234375 607.38671875 466.185546875 607.436523438 465.225585938 607.436523438 c 0
 451.290039062 607.436523438 431.62109375 598.473632812 421.321289062 587.4296875 c 0
 412.112304688 575.828125 404.637695312 553.530273438 404.637695312 537.657226562 c 0
 404.637695312 536.384765625 404.692382812 534.3203125 404.76171875 533.049804688 c 0
 404.82421875 526.903320312 406.252929688 517.1953125 407.950195312 511.380859375 c 0
 409.458984375 505.776367188 412.712890625 497.096679688 415.2109375 492.004882812 c 0
 417.481445312 487.41015625 421.567382812 480.26953125 424.33203125 476.065429688 c 0
 427.875 470.856445312 430.442382812 467.315429688 432.036132812 465.6484375 c 0
 432.959960938 464.48828125 434.546875 462.71484375 435.578125 461.689453125 c 2
 525.55078125 359.596679688 l 2
 526.275390625 358.686523438 527.72265625 357.948242188 528.783203125 357.948242188 c 0
 529.842773438 357.948242188 531.291015625 358.686523438 532.014648438 359.596679688 c 2
 621.6328125 461.064453125 l 2
 642.53125 485.650390625 653.158203125 510.02734375 653.158203125 533.362304688 c 0
 653.21484375 534.518554688 653.260742188 536.395507812 653.260742188 537.5546875 c 0
 653.260742188 553.609375 645.637695312 576.09375 636.244140625 587.7421875 c 0
 625.978515625 598.625976562 606.430664062 607.458984375 592.610351562 607.458984375 c 0
 591.551757812 607.458984375 589.834960938 607.400390625 588.779296875 607.327148438 c 0
 584.032226562 607.287109375 576.53515625 605.79296875 572.041992188 603.993164062 c 0
 567.288085938 602.150390625 560.028320312 598.043945312 555.8359375 594.826171875 c 0
 550.700195312 590.8671875 546.18359375 587.012695312 542.46484375 583.575195312 c 0
 539.376953125 580.55078125 534.615234375 575.323242188 531.837890625 571.907226562 c 2
 528.73828125 568.26171875 l 1
 525.639648438 571.907226562 l 2
 522.875976562 575.173828125 518.155273438 580.16796875 515.1015625 583.0546875 c 0
 511.381835938 586.595703125 506.865234375 590.346679688 501.729492188 594.305664062 c 0
 497.537109375 597.520507812 490.27734375 601.627929688 485.524414062 603.47265625 c 0
 481.02734375 605.4296875 473.490234375 607.15625 468.698242188 607.327148438 c 0
688.8125 289.6640625 m 5
 630.958007812 216.564453125 l 5
 690.826171875 153.130859375 l 5
 693.873046875 -53.5146484375 l 5
 957.557617188 -50.3837890625 l 5
 956.450195312 -12.7509765625 l 5
 716.458984375 -19.5859375 l 5
 710.568359375 177.650390625 l 5
 669.763671875 214.368164062 l 5
 715.122070312 273.368164062 l 5
 713.52734375 482.61328125 l 5
 923.436523438 484.3671875 l 5
 916.534179688 484.28515625 l 5
 919.926757812 347.768554688 942.805664062 294.524414062 962.458984375 272.614257812 c 4
 970.87890625 263.487304688 982.004882812 258.083007812 991.668945312 258.198242188 c 4
 993.049804688 258.21484375 995.809570312 258.247070312 997.19140625 258.263671875 c 6
 995.538085938 276.697265625 l 6
 990.015625 276.631835938 981.732421875 276.533203125 971.905273438 287.48828125 c 4
 956.501953125 302.068359375 932.325195312 349.76171875 930.338867188 484.44921875 c 5
 935.861328125 484.514648438 l 5
 946.375976562 333.319335938 960.888671875 285.512695312 996.809570312 284.09375 c 6
 996.538085938 302.543945312 l 6
 977.18359375 304.159179688 964.672851562 344.17578125 949.584960938 490.21484375 c 6
 947.202148438 513.290039062 l 5
 687.740234375 512.202148438 l 5
 688.8125 289.6640625 l 5
857.258789062 383.931640625 m 5
 856.986328125 402.3828125 l 5
 753.446289062 401.153320312 l 5
 753.71875 382.703125 l 5
 857.258789062 383.931640625 l 5
338.717773438 289.83984375 m 1
 391.4296875 220.752929688 l 1
 338.717773438 154.790039062 l 1
 341.265625 -61.693359375 l 1
 73.2451171875 -59.7099609375 l 1
 70.3798828125 -18.037109375 l 1
 312.600585938 -18.037109375 l 1
 312.600585938 184.372070312 l 1
 349.38671875 220.752929688 l 1
 312.600585938 263.748046875 l 1
 309.733398438 458.219726562 l 1
 81.845703125 458.219726562 l 1
 84.7119140625 498.936523438 l 1
 338.717773438 498.936523438 l 1
 338.717773438 289.83984375 l 1
174.529296875 372.890625 m 1
 175.219726562 400.819335938 l 1
 274.883789062 400.819335938 l 1
 275.813476562 374.213867188 l 1
 174.529296875 372.890625 l 1
EndSplineSet
Fore
Refer: 484 57905 N 0.646164 0 0 0.486759 77.909 542.082 2
Refer: 98 57360 S 0.757998 0 0 0.680147 24.2 16.2537 2
Validated: 9
EndChar

StartChar: wife.20
Encoding: 20 57364 102
Width: 1138
VWidth: 0
Flags: W
HStem: 294.745 26.1925<957.366 993.806> 331.414 26.1925<975.02 996.148> 402 9.85434<220.667 234.521> 634.133 9.2553<130.671 180.906 273.001 324.897>
VStem: 75.0398 10.1444<545.483 593.922> 370.399 9.65437<545.8 593.176> 474.015 39.1481<-94.9032 -48.2273 344.511 551.959> 865.029 23.4136<467.497 616.918>
LayerCount: 4
Back
SplineSet
853.549804688 426.000976562 m 0
 853.501953125 426 853.42578125 426 853.377929688 426 c 0
 849.91015625 426 845.1171875 427.830078125 842.6796875 430.083984375 c 2
 739.873046875 521.034179688 l 2
 738.51171875 522.06640625 736.418945312 523.854492188 735.19921875 525.024414062 c 0
 733.06640625 526.973632812 730.018554688 530.314453125 725.751953125 535.233398438 c 0
 722.247070312 539.23828125 717.05859375 546.056640625 714.170898438 550.453125 c 0
 710.989257812 555.475585938 706.84765625 564.040039062 704.92578125 569.571289062 c 0
 702.850585938 575.439453125 701.166015625 585.20703125 701.166015625 591.374023438 c 0
 701.166015625 591.50390625 701.166992188 591.71484375 701.166992188 591.844726562 c 0
 701.096679688 592.9921875 701.040039062 594.856445312 701.040039062 596.005859375 c 0
 701.040039062 612.294921875 710.97265625 635.126953125 723.211914062 646.971679688 c 0
 736.553710938 658.037109375 762.005859375 667.017578125 780.026367188 667.017578125 c 0
 781.168945312 667.017578125 783.0234375 666.975585938 784.165039062 666.924804688 c 0
 790.529296875 666.89453125 800.587890625 665.356445312 806.616210938 663.491210938 c 0
 812.756835938 661.615234375 822.131835938 657.458007812 827.54296875 654.209960938 c 0
 833.740234375 650.498046875 839.124023438 646.971679688 843.696289062 643.629882812 c 0
 848.267578125 640.2890625 849.994140625 638.8046875 853.041992188 636.206054688 c 0
 856.08984375 638.8046875 859.13671875 641.217773438 862.388671875 643.629882812 c 0
 865.638671875 646.04296875 872.546875 650.498046875 878.541015625 654.209960938 c 0
 883.951171875 657.458984375 893.326171875 661.6171875 899.467773438 663.491210938 c 0
 905.61328125 665.50390625 915.8984375 667.208984375 922.426757812 667.295898438 c 0
 923.568359375 667.34765625 925.422851562 667.388671875 926.56640625 667.388671875 c 0
 944.5859375 667.388671875 970.038085938 658.408203125 983.379882812 647.342773438 c 0
 995.895507812 635.4453125 1006.05371094 612.397460938 1006.05371094 595.896484375 c 0
 1006.05371094 594.77734375 1005.99902344 592.961914062 1005.93261719 591.844726562 c 0
 1005.93261719 568.458007812 992.725585938 544.606445312 966.719726562 520.84765625 c 2
 864.318359375 430.362304688 l 2
 861.912109375 427.993164062 857.087890625 426.0390625 853.549804688 426.000976562 c 0
784.672851562 658.015625 m 0
 783.57421875 658.068359375 781.790039062 658.112304688 780.689453125 658.112304688 c 0
 764.703125 658.112304688 742.138671875 650.127929688 730.323242188 640.2890625 c 0
 719.758789062 629.955078125 711.184570312 610.08984375 711.184570312 595.94921875 c 0
 711.184570312 594.815429688 711.248046875 592.9765625 711.326171875 591.844726562 c 0
 711.3984375 586.369140625 713.037109375 577.720703125 714.983398438 572.541015625 c 0
 716.71484375 567.548828125 720.447265625 559.815429688 723.313476562 555.279296875 c 0
 725.91796875 551.186523438 730.606445312 544.825195312 733.77734375 541.080078125 c 0
 737.840820312 536.439453125 740.787109375 533.284179688 742.615234375 531.799804688 c 0
 743.674804688 530.766601562 745.49609375 529.186523438 746.678710938 528.272460938 c 2
 849.892578125 437.323242188 l 2
 850.723632812 436.51171875 852.384765625 435.854492188 853.600585938 435.854492188 c 0
 854.81640625 435.854492188 856.477539062 436.51171875 857.30859375 437.323242188 c 2
 960.116210938 527.715820312 l 2
 984.090820312 549.618164062 996.28125 571.334960938 996.28125 592.123046875 c 0
 996.346679688 593.153320312 996.399414062 594.826171875 996.399414062 595.857421875 c 0
 996.399414062 610.161132812 987.653320312 630.190429688 976.877929688 640.568359375 c 0
 965.1015625 650.263671875 942.67578125 658.133789062 926.822265625 658.133789062 c 0
 925.608398438 658.133789062 923.638671875 658.080078125 922.426757812 658.015625 c 0
 916.982421875 657.978515625 908.380859375 656.6484375 903.2265625 655.045898438 c 0
 897.7734375 653.403320312 889.444335938 649.745117188 884.635742188 646.87890625 c 0
 878.744140625 643.3515625 873.5625 639.91796875 869.295898438 636.85546875 c 0
 865.75390625 634.161132812 860.291992188 629.50390625 857.10546875 626.4609375 c 2
 853.549804688 623.212890625 l 1
 849.994140625 626.4609375 l 2
 846.82421875 629.37109375 841.409179688 633.8203125 837.905273438 636.391601562 c 0
 833.638671875 639.546875 828.458007812 642.887695312 822.565429688 646.415039062 c 0
 817.755859375 649.279296875 809.427734375 652.938476562 803.974609375 654.581054688 c 0
 798.817382812 656.325195312 790.169921875 657.86328125 784.672851562 658.015625 c 0
178.015625 350.510742188 m 5
 78.083984375 247.729492188 l 5
 178.015625 156.682617188 l 5
 178.015625 -136.6796875 l 5
 625.223632812 -136.6796875 l 5
 624.287109375 -83.2451171875 l 5
 217.1640625 -88.9033203125 l 5
 212.106445312 191.15234375 l 5
 143.831054688 243.95703125 l 5
 222.220703125 326.936523438 l 5
 224.75 623.965820312 l 5
 580.736328125 622.91796875 l 5
 569.029296875 622.91796875 l 5
 571.370117188 429.088867188 608.833984375 353.129882812 641.61328125 321.698242188 c 4
 655.661132812 308.6015625 674.392578125 300.744140625 690.782226562 300.744140625 c 4
 693.124023438 300.744140625 697.806640625 300.744140625 700.1484375 300.744140625 c 6
 697.806640625 326.936523438 l 6
 688.44140625 326.936523438 674.392578125 326.936523438 658.002929688 342.653320312 c 4
 632.247070312 363.606445312 592.443359375 431.708984375 592.443359375 622.91796875 c 5
 601.80859375 622.91796875 l 5
 615.857421875 408.135742188 639.271484375 340.033203125 700.1484375 337.4140625 c 6
 700.1484375 363.606445312 l 6
 667.369140625 366.2265625 647.155273438 423.235351562 625.223632812 630.776367188 c 6
 621.7578125 663.569335938 l 5
 181.76171875 666.3984375 l 5
 178.015625 350.510742188 l 5
466.0078125 481.475585938 m 5
 466.0078125 507.668945312 l 5
 290.40234375 507.668945312 l 5
 290.40234375 481.475585938 l 5
 466.0078125 481.475585938 l 5
EndSplineSet
Fore
Refer: 6 57370 N 0.365718 0 0 0.334101 38.468 422.418 2
Refer: 90 57352 N 0.842905 0 0 0.942948 311.709 -11.9238 2
Validated: 9
EndChar

StartChar: widow.22
Encoding: 22 57366 104
Width: 1064
VWidth: 0
Flags: W
HStem: 294.745 26.1925<957.366 993.806> 331.414 26.1925<975.02 996.148> 402 9.85434<220.667 234.521> 634.133 9.2553<130.671 180.906 273.001 324.897>
VStem: 75.0398 10.1444<545.483 593.922> 370.399 9.65437<545.8 593.176> 474.015 39.1481<-94.9032 -48.2273 344.511 551.959> 865.029 23.4136<467.497 616.918>
LayerCount: 4
Back
SplineSet
990.30078125 381.5 m 1
 870.66796875 240.80078125 l 1
 1000.85742188 101.44140625 l 1
 983.908203125 85 l 1
 853.573242188 224.720703125 l 1
 735.693359375 85 l 1
 723.383789062 100.67578125 l 1
 839.764648438 238.50390625 l 1
 725.356445312 377.09765625 l 1
 740.478515625 393.943359375 l 1
 856.203125 259.943359375 l 1
 977.186523438 394.708984375 l 5
 990.30078125 381.5 l 1
853.549804688 426.000976562 m 0
 853.501953125 426 853.42578125 426 853.377929688 426 c 0
 849.91015625 426 845.1171875 427.830078125 842.6796875 430.083984375 c 2
 739.873046875 521.034179688 l 2
 738.51171875 522.06640625 736.418945312 523.854492188 735.19921875 525.024414062 c 0
 733.06640625 526.973632812 730.018554688 530.314453125 725.751953125 535.233398438 c 0
 722.247070312 539.23828125 717.05859375 546.056640625 714.170898438 550.453125 c 0
 710.989257812 555.475585938 706.84765625 564.040039062 704.92578125 569.571289062 c 0
 702.850585938 575.439453125 701.166015625 585.20703125 701.166015625 591.374023438 c 0
 701.166015625 591.50390625 701.166992188 591.71484375 701.166992188 591.844726562 c 0
 701.096679688 592.9921875 701.040039062 594.856445312 701.040039062 596.005859375 c 0
 701.040039062 612.294921875 710.97265625 635.126953125 723.211914062 646.971679688 c 0
 736.553710938 658.037109375 762.005859375 667.017578125 780.026367188 667.017578125 c 0
 781.168945312 667.017578125 783.0234375 666.975585938 784.165039062 666.924804688 c 0
 790.529296875 666.89453125 800.587890625 665.356445312 806.616210938 663.491210938 c 0
 812.756835938 661.615234375 822.131835938 657.458007812 827.54296875 654.209960938 c 0
 833.740234375 650.498046875 839.124023438 646.971679688 843.696289062 643.629882812 c 0
 848.267578125 640.2890625 849.994140625 638.8046875 853.041992188 636.206054688 c 0
 856.08984375 638.8046875 859.13671875 641.217773438 862.388671875 643.629882812 c 0
 865.638671875 646.04296875 872.546875 650.498046875 878.541015625 654.209960938 c 0
 883.951171875 657.458984375 893.326171875 661.6171875 899.467773438 663.491210938 c 0
 905.61328125 665.50390625 915.8984375 667.208984375 922.426757812 667.295898438 c 0
 923.568359375 667.34765625 925.422851562 667.388671875 926.56640625 667.388671875 c 0
 944.5859375 667.388671875 970.038085938 658.408203125 983.379882812 647.342773438 c 0
 995.895507812 635.4453125 1006.05371094 612.397460938 1006.05371094 595.896484375 c 0
 1006.05371094 594.77734375 1005.99902344 592.961914062 1005.93261719 591.844726562 c 0
 1005.93261719 568.458007812 992.725585938 544.606445312 966.719726562 520.84765625 c 2
 864.318359375 430.362304688 l 2
 861.912109375 427.993164062 857.087890625 426.0390625 853.549804688 426.000976562 c 0
784.672851562 658.015625 m 0
 783.57421875 658.068359375 781.790039062 658.112304688 780.689453125 658.112304688 c 0
 764.703125 658.112304688 742.138671875 650.127929688 730.323242188 640.2890625 c 0
 719.758789062 629.955078125 711.184570312 610.08984375 711.184570312 595.94921875 c 0
 711.184570312 594.815429688 711.248046875 592.9765625 711.326171875 591.844726562 c 0
 711.3984375 586.369140625 713.037109375 577.720703125 714.983398438 572.541015625 c 0
 716.71484375 567.548828125 720.447265625 559.815429688 723.313476562 555.279296875 c 0
 725.91796875 551.186523438 730.606445312 544.825195312 733.77734375 541.080078125 c 0
 737.840820312 536.439453125 740.787109375 533.284179688 742.615234375 531.799804688 c 0
 743.674804688 530.766601562 745.49609375 529.186523438 746.678710938 528.272460938 c 2
 849.892578125 437.323242188 l 2
 850.723632812 436.51171875 852.384765625 435.854492188 853.600585938 435.854492188 c 0
 854.81640625 435.854492188 856.477539062 436.51171875 857.30859375 437.323242188 c 2
 960.116210938 527.715820312 l 2
 984.090820312 549.618164062 996.28125 571.334960938 996.28125 592.123046875 c 0
 996.346679688 593.153320312 996.399414062 594.826171875 996.399414062 595.857421875 c 0
 996.399414062 610.161132812 987.653320312 630.190429688 976.877929688 640.568359375 c 0
 965.1015625 650.263671875 942.67578125 658.133789062 926.822265625 658.133789062 c 0
 925.608398438 658.133789062 923.638671875 658.080078125 922.426757812 658.015625 c 0
 916.982421875 657.978515625 908.380859375 656.6484375 903.2265625 655.045898438 c 0
 897.7734375 653.403320312 889.444335938 649.745117188 884.635742188 646.87890625 c 0
 878.744140625 643.3515625 873.5625 639.91796875 869.295898438 636.85546875 c 0
 865.75390625 634.161132812 860.291992188 629.50390625 857.10546875 626.4609375 c 2
 853.549804688 623.212890625 l 1
 849.994140625 626.4609375 l 2
 846.82421875 629.37109375 841.409179688 633.8203125 837.905273438 636.391601562 c 0
 833.638671875 639.546875 828.458007812 642.887695312 822.565429688 646.415039062 c 0
 817.755859375 649.279296875 809.427734375 652.938476562 803.974609375 654.581054688 c 0
 798.817382812 656.325195312 790.169921875 657.86328125 784.672851562 658.015625 c 0
178.015625 350.510742188 m 5
 78.083984375 247.729492188 l 5
 178.015625 156.682617188 l 5
 178.015625 -136.6796875 l 5
 625.223632812 -136.6796875 l 5
 624.287109375 -83.2451171875 l 5
 217.1640625 -88.9033203125 l 5
 212.106445312 191.15234375 l 5
 143.831054688 243.95703125 l 5
 222.220703125 326.936523438 l 5
 224.75 623.965820312 l 5
 580.736328125 622.91796875 l 5
 569.029296875 622.91796875 l 5
 571.370117188 429.088867188 608.833984375 353.129882812 641.61328125 321.698242188 c 4
 655.661132812 308.6015625 674.392578125 300.744140625 690.782226562 300.744140625 c 4
 693.124023438 300.744140625 697.806640625 300.744140625 700.1484375 300.744140625 c 6
 697.806640625 326.936523438 l 6
 688.44140625 326.936523438 674.392578125 326.936523438 658.002929688 342.653320312 c 4
 632.247070312 363.606445312 592.443359375 431.708984375 592.443359375 622.91796875 c 5
 601.80859375 622.91796875 l 5
 615.857421875 408.135742188 639.271484375 340.033203125 700.1484375 337.4140625 c 6
 700.1484375 363.606445312 l 6
 667.369140625 366.2265625 647.155273438 423.235351562 625.223632812 630.776367188 c 6
 621.7578125 663.569335938 l 5
 181.76171875 666.3984375 l 5
 178.015625 350.510742188 l 5
466.0078125 481.475585938 m 5
 466.0078125 507.668945312 l 5
 290.40234375 507.668945312 l 5
 290.40234375 481.475585938 l 5
 466.0078125 481.475585938 l 5
EndSplineSet
Fore
Refer: 76 57724 N 0.370399 0 0 0.417828 23.0106 49.5064 2
Refer: 102 57364 N 1 0 0 1 0 0 2
Validated: 9
EndChar

StartChar: Anna.26
Encoding: 26 60162 108
Width: 940
VWidth: 0
Flags: W
HStem: 78.1162 13.3604<363.209 507.649 527.659 699.929 739.387 745.929> 364.89 27.7773<811.878 855.11> 403.778 27.7773<832.823 857.889>
VStem: 120.203 7.37012<660.147 801.282> 238.444 46.4443<-48.333 1.16699 417.667 637.667> 507.649 20.2393<17.667 77.5615> 702.333 27.7773<548.095 706.556>
LayerCount: 4
Fore
SplineSet
745.928710938 91.4765625 m 5
 746.54296875 78.1162109375 l 5
 739.38671875 78.1162109375 l 5
 739.38671875 77.3603515625 l 5
 507.649414062 -3.5078125 l 5
 507.649414062 77.5615234375 l 5
 363.208984375 78.2841796875 l 5
 363.208984375 92.08203125 l 5
 745.928710938 91.4765625 l 5
527.888671875 17.6669921875 m 5
 699.928710938 77.5615234375 l 5
 527.659179688 78.2841796875 l 5
 527.888671875 17.6669921875 l 5
86.703125 761.624023438 m 29
 123.888671875 815.666992188 l 29
 169.11328125 758.125 l 29
 161.408203125 756.5703125 l 29
 126.233398438 801.282226562 l 29
 127.573242188 659.758789062 l 29
 120.203125 660.147460938 l 29
 120.873046875 801.670898438 l 29
 90.0537109375 756.958984375 l 29
 86.703125 761.624023438 l 29
238.444335938 417.666992188 m 5
 119.888671875 308.666992188 l 5
 238.444335938 212.111328125 l 5
 238.444335938 -99 l 5
 769 -99 l 5
 767.888671875 -42.3330078125 l 5
 284.888671875 -48.3330078125 l 5
 278.888671875 248.666992188 l 5
 197.888671875 304.666992188 l 5
 290.888671875 392.666992188 l 5
 293.888671875 707.666992188 l 5
 716.221679688 706.555664062 l 5
 702.333007812 706.555664062 l 5
 705.110351562 501 749.555664062 420.444335938 788.444335938 387.111328125 c 4
 805.110351562 373.22265625 827.333007812 364.889648438 846.77734375 364.889648438 c 4
 849.555664062 364.889648438 855.110351562 364.889648438 857.888671875 364.889648438 c 6
 855.110351562 392.666992188 l 6
 844 392.666992188 827.333007812 392.666992188 807.888671875 409.333984375 c 4
 777.333007812 431.555664062 730.110351562 503.778320312 730.110351562 706.555664062 c 5
 741.221679688 706.555664062 l 5
 757.888671875 478.778320312 785.666015625 406.555664062 857.888671875 403.778320312 c 6
 857.888671875 431.555664062 l 6
 819 434.333984375 795.01953125 494.791992188 769 714.889648438 c 6
 764.888671875 749.666992188 l 5
 242.888671875 752.666992188 l 5
 238.444335938 417.666992188 l 5
580.110351562 556.555664062 m 5
 580.110351562 584.333984375 l 5
 371.77734375 584.333984375 l 5
 371.77734375 556.555664062 l 5
 580.110351562 556.555664062 l 5
EndSplineSet
Refer: 76 57724 S -0.315342 0 0 0.358235 689.262 167.135 2
Validated: 25
EndChar

StartChar: Mary.27
Encoding: 27 58196 109
Width: 989
VWidth: 0
Flags: W
HStem: 0.999991 8.75489<434.901 486.559> 386.89 27.7773<762.434 805.666> 425.778 27.7773<783.379 808.444> 433.368 13.4615<340.842 547.306>
VStem: 69.3145 7.37012<667.48 808.615> 189 46.4443<-26.333 23.167 439.667 659.667> 363 9.34071<67.6712 118.428> 443.357 11.4257<442.699 510.842> 652.889 27.7773<570.095 728.556>
LayerCount: 4
Fore
SplineSet
35.814453125 768.95703125 m 29xcf80
 73 823 l 29
 118.224609375 765.458007812 l 29
 110.51953125 763.903320312 l 29
 75.3447265625 808.615234375 l 29
 76.6845703125 667.091796875 l 29
 69.314453125 667.48046875 l 29
 69.984375 809.00390625 l 29
 39.1650390625 764.291992188 l 29
 35.814453125 768.95703125 l 29xcf80
189 439.666992188 m 5
 70.4443359375 330.666992188 l 5
 189 234.111328125 l 5
 189 -77 l 5
 719.555664062 -77 l 5
 718.444335938 -20.3330078125 l 5
 235.444335938 -26.3330078125 l 5
 229.444335938 270.666992188 l 5
 148.444335938 326.666992188 l 5
 241.444335938 414.666992188 l 5
 244.444335938 729.666992188 l 5
 666.77734375 728.555664062 l 5
 652.888671875 728.555664062 l 5
 655.666015625 523 700.111328125 442.444335938 739 409.111328125 c 4
 755.666015625 395.22265625 777.888671875 386.889648438 797.333007812 386.889648438 c 4
 800.111328125 386.889648438 805.666015625 386.889648438 808.444335938 386.889648438 c 6
 805.666015625 414.666992188 l 6
 794.555664062 414.666992188 777.888671875 414.666992188 758.444335938 431.333984375 c 4
 727.888671875 453.555664062 680.666015625 525.778320312 680.666015625 728.555664062 c 5
 691.77734375 728.555664062 l 5
 708.444335938 500.778320312 736.221679688 428.555664062 808.444335938 425.778320312 c 6
 808.444335938 453.555664062 l 6xef80
 769.555664062 456.333984375 745.575195312 516.791992188 719.555664062 736.889648438 c 6
 715.444335938 771.666992188 l 5
 193.444335938 774.666992188 l 5
 189 439.666992188 l 5
530.666015625 578.555664062 m 5
 530.666015625 606.333984375 l 5
 322.333007812 606.333984375 l 5
 322.333007812 578.555664062 l 5
 530.666015625 578.555664062 l 5
EndSplineSet
Refer: 562 57632 S -0.27639 0 0 0.345166 574.945 274.937 2
Refer: 500 57927 S -0.345004 0 0 0.319199 589.542 38.2403 2
Validated: 21
EndChar

StartChar: Rhoda.28
Encoding: 28 60306 110
Width: 937
VWidth: 0
Flags: W
HStem: 369.006 12.958<628.292 635.711> 373.29 27.7539<763.157 806.441> 391.651 13.3662<322.842 377.426 588.179 635.498> 412.15 27.7754<784.252 809.249>
VStem: 69.3145 7.37012<667.48 808.615> 572.716 10.0664<102.833 276.536> 654.498 27.7783<556.844 715.266>
LayerCount: 4
Fore
SplineSet
35.814453125 768.95703125 m 29x1e
 73 823 l 29
 118.224609375 765.458007812 l 29
 110.51953125 763.903320312 l 29
 75.3447265625 808.615234375 l 29
 76.6845703125 667.091796875 l 29
 69.314453125 667.48046875 l 29
 69.984375 809.00390625 l 29
 39.1650390625 764.291992188 l 29
 35.814453125 768.95703125 l 29x1e
499.040039062 17.1875 m 0
 519.127929688 26.5029296875 557.614257812 58.6904296875 565.854492188 73.0634765625 c 0
 581.356445312 100.102539062 582.012695312 104.553710938 582.782226562 187.7578125 c 0
 583.576171875 273.794921875 583.227539062 271.661132812 604.760742188 321.600585938 c 0
 615.924804688 347.5 630.21484375 369.0234375 636.227539062 369.005859375 c 0
 638.329101562 369.000976562 642.793945312 372.943359375 646.151367188 377.767578125 c 0
 652.088867188 386.306640625 652.0703125 386.77734375 645.364257812 395.598632812 c 0
 639.775390625 402.952148438 634.225585938 404.724609375 615.900390625 405.017578125 c 0xbe
 596.213867188 405.330078125 590.78515625 403.536132812 573.487304688 390.997070312 c 0
 562.579101562 383.087890625 551.754882812 374.681640625 549.436523438 372.318359375 c 0
 547.119140625 369.954101562 544.888671875 368.78125 544.482421875 369.71484375 c 0
 544.072265625 370.647460938 542.150390625 375.299804688 540.204101562 380.0546875 c 0
 538.259765625 384.806640625 527.444335938 397.950195312 516.170898438 409.258789062 c 0
 493.451171875 432.044921875 480.827148438 435.243164062 462.047851562 422.965820312 c 0
 446.995117188 413.12109375 423.333984375 382.2421875 423.30859375 372.409179688 c 0
 423.288085938 365.098632812 422.486328125 365.430664062 416.677734375 375.1484375 c 0
 406.301757812 392.512695312 371.750976562 405.823242188 343.68359375 403.26953125 c 0
 322.041015625 401.302734375 307.877929688 392.874023438 307.848632812 381.94140625 c 0
 307.842773438 379.815429688 315.807617188 368.403320312 325.55078125 356.58203125 c 0
 336.28515625 343.55859375 347.940429688 323.357421875 355.131835938 305.317382812 c 2
 366.99609375 275.545898438 l 1
 363.15625 230.905273438 l 2
 357.267578125 162.411132812 360.943359375 126.153320312 377.322265625 91.23828125 c 0
 379.552734375 86.4853515625 385.557617188 73.353515625 390.66796875 62.0625 c 0
 395.77734375 50.76953125 402.065429688 41.52734375 404.640625 41.51953125 c 0
 407.212890625 41.5126953125 411.893554688 39.67578125 415.038085938 37.4365234375 c 0
 450.561523438 12.166015625 475.334960938 6.193359375 499.040039062 17.1875 c 0
460.563476562 27.94140625 m 0
 459.571289062 30.0556640625 454.665039062 33.107421875 449.6640625 34.7265625 c 0
 444.66015625 36.3447265625 432.895507812 42.40625 423.518554688 48.19921875 c 0
 409.0390625 57.142578125 404.206054688 63.515625 391.444335938 90.4892578125 c 0
 371.192382812 133.297851562 368.124023438 156.666015625 373.373046875 228.166015625 c 2
 377.401367188 283.045898438 l 1
 365.489257812 312.369140625 l 2
 358.365234375 329.909179688 346.709960938 349.779296875 336.486328125 361.803710938 c 0
 327.086914062 372.86328125 320.357421875 383.19921875 321.530273438 384.776367188 c 0
 322.705078125 386.348632812 331.791992188 388.711914062 341.725585938 390.026367188 c 0
 367.07421875 393.380859375 402.055664062 378.09765625 409.633789062 360.357421875 c 0
 416.46875 344.360351562 426.7890625 345.41796875 431.4375 362.592773438 c 0
 438.919921875 390.2421875 471.046875 420.768554688 486.9140625 415.30078125 c 0
 499.831054688 410.8515625 527.03125 380.422851562 533.0234375 363.727539062 c 0
 539.334960938 346.134765625 545.901367188 343.381835938 552.584960938 355.530273438 c 0
 554.967773438 359.862304688 565.84375 369.85546875 576.752929688 377.734375 c 0
 592.698242188 389.25 600.067382812 391.98046875 614.327148438 391.651367188 c 0
 624.081054688 391.426757812 633.653320312 389.149414062 635.594726562 386.596679688 c 0
 638.111328125 383.287109375 637.706054688 381.955078125 634.1875 381.963867188 c 0
 626.86328125 381.983398438 606.494140625 352.970703125 594.857421875 325.9453125 c 0
 572.737304688 274.572265625 573.3671875 278.393554688 572.715820312 191.52734375 c 0
 572.125976562 112.935546875 571.905273438 110.560546875 563.431640625 91.7763671875 c 0
 550.151367188 62.3359375 499.373046875 25.201171875 471.247070312 24.3623046875 c 0
 466.362304688 24.216796875 461.5546875 25.826171875 460.563476562 27.94140625 c 0
189.844726562 427.684570312 m 1
 71 319 l 1
 189.297851562 222.12890625 l 1
 188.470703125 -88.98046875 l 1
 719.025390625 -90.390625 l 1
 718.064453125 -33.7216796875 l 1
 235.05078125 -38.4384765625 l 1
 229.838867188 258.578125 l 1
 148.98828125 314.79296875 l 1
 242.221679688 402.544921875 l 1
 246.059570312 717.53515625 l 1
 668.387695312 715.301757812 l 1
 654.498046875 715.33984375 l 1
 656.729492188 509.776367188 700.9609375 429.104492188 739.76171875 395.666992188 c 0
 756.389648438 381.733398438 778.590820312 373.340820312 798.03515625 373.290039062 c 0
 800.813476562 373.284179688 806.3671875 373.268554688 809.146484375 373.26171875 c 2
 806.44140625 401.043945312 l 2x5e
 795.331054688 401.07421875 778.663085938 401.118164062 759.263671875 417.837890625 c 0
 728.767578125 440.140625 681.737304688 512.489257812 682.276367188 715.265625 c 1
 693.38671875 715.235351562 l 1
 709.44921875 487.415039062 737.034179688 415.1171875 809.249023438 412.150390625 c 2
 809.322265625 439.92578125 l 2
 770.44140625 442.807617188 746.623046875 503.329101562 721.188476562 723.495117188 c 2
 717.168945312 758.283203125 l 1
 195.177734375 762.671875 l 1
 189.844726562 427.684570312 l 1
531.877929688 565.6640625 m 1
 531.952148438 593.442382812 l 1
 323.620117188 593.995117188 l 1
 323.544921875 566.21875 l 1
 531.877929688 565.6640625 l 1
EndSplineSet
Validated: 41
EndChar

StartChar: Annas.29
Encoding: 29 60259 111
Width: 1062
VWidth: 0
Flags: W
HStem: -122 63<266 767> 288.869 8.98241<22.1338 148.858 166.414 317.556 352.174 357.914> 532 42.2227<479.445 688.056> 661 61.5557<290 761>
VStem: 69.3145 7.37012<667.48 808.615> 148.858 17.7576<248.228 288.496> 396.3 16.8179<273.771 363.555> 767 54.667<-59 202.277 406.444 661>
LayerCount: 4
Fore
SplineSet
35.814453125 768.95703125 m 29
 73 823 l 29
 118.224609375 765.458007812 l 29
 110.51953125 763.903320312 l 29
 75.3447265625 808.615234375 l 29
 76.6845703125 667.091796875 l 29
 69.314453125 667.48046875 l 29
 69.984375 809.00390625 l 29
 39.1650390625 764.291992188 l 29
 35.814453125 768.95703125 l 29
821.666992188 406.444335938 m 1
 932 302 l 1
 821.666992188 202.27734375 l 1
 827 -125 l 1
 266 -122 l 1
 260 -59 l 1
 767 -59 l 1
 767 247 l 1
 844 302 l 1
 767 367 l 1
 761 661 l 1
 284 661 l 1
 290 722.555664062 l 1
 821.666992188 722.555664062 l 1
 821.666992188 406.444335938 l 1
478 532 m 1
 479.4453125 574.22265625 l 1
 688.055664062 574.22265625 l 1
 690 534 l 1
 478 532 l 1
EndSplineSet
Refer: 76 57724 N 0.285138 0 0 0.281583 163.765 350.372 2
Refer: 749 57665 N 0.600662 0 0 0.453842 -2.54629 33.8475 2
Validated: 5
EndChar

StartChar: JesusNotChrist.30
Encoding: 30 60163 112
Width: 962
VWidth: 0
Flags: W
HStem: -111 63<206 707> 300.478 23.7598<53.4668 664.687> 543 42.2227<419.445 628.056> 672 61.5557<230 701>
VStem: 69.3145 7.37012<667.48 808.615> 191.109 12.97<230.736 302.672> 463.406 11.5791<234.296 307.685> 707 54.667<-48 213.277 417.444 672>
LayerCount: 4
Fore
SplineSet
35.814453125 768.95703125 m 29
 73 823 l 29
 118.224609375 765.458007812 l 29
 110.51953125 763.903320312 l 29
 75.3447265625 808.615234375 l 29
 76.6845703125 667.091796875 l 29
 69.314453125 667.48046875 l 29
 69.984375 809.00390625 l 29
 39.1650390625 764.291992188 l 29
 35.814453125 768.95703125 l 29
53.466796875 324.237304688 m 1
 664.686523438 324.237304688 l 1
 664.686523438 300.477539062 l 1
 53.466796875 300.477539062 l 1
 53.466796875 324.237304688 l 1
761.666992188 417.444335938 m 1
 872 313 l 1
 761.666992188 213.27734375 l 1
 767 -114 l 1
 206 -111 l 1
 200 -48 l 1
 707 -48 l 1
 707 258 l 1
 784 313 l 1
 707 378 l 1
 701 672 l 1
 224 672 l 1
 230 733.555664062 l 1
 761.666992188 733.555664062 l 1
 761.666992188 417.444335938 l 1
418 543 m 1
 419.4453125 585.22265625 l 1
 628.055664062 585.22265625 l 1
 630 545 l 1
 418 543 l 1
EndSplineSet
Refer: 724 57639 N 0.685536 0 0 0.492277 14.7032 -20.8011 2
Validated: 5
EndChar

StartChar: Matthew.31
Encoding: 31 60164 113
Width: 934
VWidth: 0
Flags: W
HStem: -114.277 63<211.333 712.333> -24.2773 17.9359<214.164 472.857> 77.7226 11.2265<349.027 361.918> 253.427 17.2801<101.632 154.199> 342.179 10.544<265.287 312.03 397.723 446.012> 493.642 20.0803<288.299 390.756> 539.723 42.2227<424.778 633.389> 668.723 61.5557<235.333 706.333>
VStem: 57.3332 17.3153<152.32 225.701> 69.3145 7.37012<667.48 808.615> 177.758 16.1253<261.173 379.991> 181.665 16.2493<244.888 321.71> 213.523 9.43923<241.184 296.369> 488.351 8.98327<241.546 295.518> 712.333 54.667<-51.2773 210 414.167 668.723>
LayerCount: 4
Fore
SplineSet
35.814453125 768.95703125 m 29xff4e
 73 823 l 29
 118.224609375 765.458007812 l 29
 110.51953125 763.903320312 l 29
 75.3447265625 808.615234375 l 29
 76.6845703125 667.091796875 l 29
 69.314453125 667.48046875 l 29
 69.984375 809.00390625 l 29
 39.1650390625 764.291992188 l 29
 35.814453125 768.95703125 l 29xff4e
767 414.166992188 m 1
 877.333007812 309.72265625 l 1
 767 210 l 1
 772.333007812 -117.27734375 l 1
 211.333007812 -114.27734375 l 1
 205.333007812 -51.27734375 l 1
 712.333007812 -51.27734375 l 1
 712.333007812 254.72265625 l 1
 789.333007812 309.72265625 l 1
 712.333007812 374.72265625 l 1
 706.333007812 668.72265625 l 1
 229.333007812 668.72265625 l 1
 235.333007812 730.278320312 l 1
 767 730.278320312 l 1
 767 414.166992188 l 1
423.333007812 539.72265625 m 1
 424.778320312 581.9453125 l 1
 633.388671875 581.9453125 l 1
 635.333007812 541.72265625 l 1
 423.333007812 539.72265625 l 1
EndSplineSet
Refer: 65 57457 N 0.584984 0 0 0.645678 -1.16523 51.052 2
Refer: 6 57370 N 0.340296 0 0 0.380621 179.493 100.984 2
Validated: 1
EndChar

StartChar: Salathiel.78
Encoding: 78 60534 114
Width: 946
VWidth: 0
Flags: W
HStem: -121 63<200 701> 18.1338 92.9807<319 498.053> 176.568 27.4316<398.21 425> 356.277 19.8047<387.304 437.249> 434.064 14.1958<356.061 463.933> 533 42.2227<413.445 622.056> 662 61.5557<224 695>
VStem: 85.6299 7.37012<685.389 826.523> 196.544 14.0723<221.181 305.351> 349.729 24.1758<318.626 344.999> 398.21 26.79<176.568 204 224.875 266.798> 449.176 24.1748<296.405 346.746> 609.516 13.9332<221.169 305.802> 701 54.667<-58 203.277 407.444 662>
LayerCount: 4
Fore
SplineSet
52.1298828125 786.865234375 m 29
 89.3154296875 840.908203125 l 29
 134.540039062 783.366210938 l 29
 126.834960938 781.811523438 l 29
 91.66015625 826.5234375 l 29
 93 685 l 29
 85.6298828125 685.388671875 l 29
 86.2998046875 826.912109375 l 29
 55.48046875 782.200195312 l 29
 52.1298828125 786.865234375 l 29
755.666992188 407.444335938 m 1
 866 303 l 1
 755.666992188 203.27734375 l 1
 761 -124 l 1
 200 -121 l 1
 194 -58 l 1
 701 -58 l 1
 701 248 l 1
 778 303 l 1
 701 368 l 1
 695 662 l 1
 218 662 l 1
 224 723.555664062 l 1
 755.666992188 723.555664062 l 1
 755.666992188 407.444335938 l 1
412 533 m 1
 413.4453125 575.22265625 l 1
 622.055664062 575.22265625 l 1
 624 535 l 1
 412 533 l 1
399.6484375 224.875 m 2
 399.560546875 228.0859375 399.517578125 230.493164062 399.517578125 232.099609375 c 0
 399.517578125 241.555664062 400.82421875 249.717773438 403.4375 256.586914062 c 0
 405.354492188 261.762695312 408.446289062 266.98046875 412.715820312 272.244140625 c 0
 415.852539062 276.079101562 421.470703125 281.655273438 429.573242188 288.970703125 c 0
 437.762695312 296.374023438 443.077148438 302.262695312 445.516601562 306.633789062 c 0
 447.955078125 311.00390625 449.17578125 315.776367188 449.17578125 320.951171875 c 0
 449.17578125 330.317382812 445.603515625 338.524414062 438.458984375 345.572265625 c 0
 431.31640625 352.708984375 422.560546875 356.27734375 412.193359375 356.27734375 c 0
 402.174804688 356.27734375 393.811523438 353.065429688 387.102539062 346.642578125 c 0
 380.39453125 340.219726562 375.995117188 330.182617188 373.905273438 316.534179688 c 1
 349.729492188 319.478515625 l 1
 351.908203125 337.766601562 358.354492188 351.771484375 369.069335938 361.495117188 c 0
 379.872070312 371.219726562 394.116210938 376.08203125 411.80078125 376.08203125 c 0
 430.532226562 376.08203125 445.47265625 370.862304688 456.624023438 360.424804688 c 0
 467.774414062 349.98828125 473.350585938 337.365234375 473.350585938 322.556640625 c 0
 473.350585938 313.993164062 471.390625 306.098632812 467.470703125 298.872070312 c 0
 463.548828125 291.645507812 455.8828125 282.859375 444.470703125 272.51171875 c 0
 436.8046875 265.552734375 431.795898438 260.422851562 429.442382812 257.123046875 c 0
 427.090820312 253.821289062 425.34765625 250.030273438 424.21484375 245.749023438 c 0
 423.083007812 241.466796875 422.428710938 234.5078125 422.255859375 224.875 c 2
 399.6484375 224.875 l 2
398.209960938 176.568359375 m 1
 398.209960938 204 l 1
 425 204 l 1
 425 176.568359375 l 1
 398.209960938 176.568359375 l 1
EndSplineSet
Refer: 64 57442 N 0.501585 0 0 0.51104 146.386 82.0138 2
Validated: 1
EndChar

StartChar: Serug.79
Encoding: 79 60536 115
Width: 1040
VWidth: 0
Flags: W
HStem: -124 63<122 623> 38.5401 13.2427<137.664 165.182 531.945 559.403> 263.67 13.2432<194.235 338.44 358.64 502.846> 530 42.2227<335.445 544.056> 659 61.5557<146 617>
VStem: 85.6299 7.37012<685.389 826.523> 341.526 14.0275<-3.83784 221.293 276.914 393.452> 623 54.667<-61 200.277 404.444 659>
LayerCount: 4
Fore
SplineSet
52.1298828125 786.865234375 m 29
 89.3154296875 840.908203125 l 29
 134.540039062 783.366210938 l 29
 126.834960938 781.811523438 l 29
 91.66015625 826.5234375 l 29
 93 685 l 29
 85.6298828125 685.388671875 l 29
 86.2998046875 826.912109375 l 29
 55.48046875 782.200195312 l 29
 52.1298828125 786.865234375 l 29
677.666992188 404.444335938 m 1
 788 300 l 1
 677.666992188 200.27734375 l 1
 683 -127 l 1
 122 -124 l 1
 116 -61 l 1
 623 -61 l 1
 623 245 l 1
 700 300 l 1
 623 365 l 1
 617 659 l 1
 140 659 l 1
 146 720.555664062 l 1
 677.666992188 720.555664062 l 1
 677.666992188 404.444335938 l 1
334 530 m 1
 335.4453125 572.22265625 l 1
 544.055664062 572.22265625 l 1
 546 532 l 1
 334 530 l 1
EndSplineSet
Refer: 499 57924 N 0.505 0 0 0.476747 85.8 51.7828 2
Refer: 589 58133 N -0.208603 0.119483 -0.158172 -0.157579 600.966 351.949 2
Validated: 1
EndChar

StartChar: Seth.80
Encoding: 80 60537 116
Width: 1135
VWidth: 0
Flags: W
HStem: -127 63<122 623> 17.4932 12.778<142.44 548.497> 97.8881 13.4155<289.66 389.717> 388.049 12.778<142.44 548.497> 527 42.2227<335.445 544.056> 656 61.5557<146 617>
VStem: 85.6299 7.37012<685.389 826.523> 127.938 14.5023<30.2712 388.049> 272.34 17.3199<111.304 328.74> 389.717 14.2839<111.304 328.56> 548.497 14.5023<30.2712 388.049> 623 54.667<-64 197.277 401.444 656>
LayerCount: 4
Fore
SplineSet
52.1298828125 786.865234375 m 29
 89.3154296875 840.908203125 l 29
 134.540039062 783.366210938 l 29
 126.834960938 781.811523438 l 29
 91.66015625 826.5234375 l 29
 93 685 l 29
 85.6298828125 685.388671875 l 29
 86.2998046875 826.912109375 l 29
 55.48046875 782.200195312 l 29
 52.1298828125 786.865234375 l 29
677.666992188 401.444335938 m 1
 788 297 l 1
 677.666992188 197.27734375 l 1
 683 -130 l 1
 122 -127 l 1
 116 -64 l 1
 623 -64 l 1
 623 242 l 1
 700 297 l 1
 623 362 l 1
 617 656 l 1
 140 656 l 1
 146 717.555664062 l 1
 677.666992188 717.555664062 l 1
 677.666992188 401.444335938 l 1
334 527 m 1
 335.4453125 569.22265625 l 1
 544.055664062 569.22265625 l 1
 546 529 l 1
 334 527 l 1
EndSplineSet
Refer: 134 57407 N 0.522074 0 0 0.46 75.7301 71.16 2
Refer: 540 58112 N 0.310519 0 0 0.270108 249.983 135.163 2
Validated: 1
EndChar

StartChar: Shelah.81
Encoding: 81 60538 117
Width: 988
VWidth: 0
Flags: W
HStem: -130 63<236 737> -15.001 11.6113<415.386 428.698> 258.525 10.9062<328.918 377.185 465.668 515.532> 524 42.2227<449.445 658.056> 653 61.5557<260 731>
VStem: 85.6299 7.37012<685.389 826.523> 275.467 9.74707<154.067 211.144> 559.25 9.27539<154.441 210.264> 737 54.667<-67 194.277 398.444 653>
LayerCount: 4
Fore
SplineSet
52.1298828125 786.865234375 m 29
 89.3154296875 840.908203125 l 29
 134.540039062 783.366210938 l 29
 126.834960938 781.811523438 l 29
 91.66015625 826.5234375 l 29
 93 685 l 29
 85.6298828125 685.388671875 l 29
 86.2998046875 826.912109375 l 29
 55.48046875 782.200195312 l 29
 52.1298828125 786.865234375 l 29
791.666992188 398.444335938 m 1
 902 294 l 1
 791.666992188 194.27734375 l 1
 797 -133 l 1
 236 -130 l 1
 230 -67 l 1
 737 -67 l 1
 737 239 l 1
 814 294 l 1
 737 359 l 1
 731 653 l 1
 254 653 l 1
 260 714.555664062 l 1
 791.666992188 714.555664062 l 1
 791.666992188 398.444335938 l 1
448 524 m 1
 449.4453125 566.22265625 l 1
 658.055664062 566.22265625 l 1
 660 526 l 1
 448 524 l 1
422 -15 m 0
 421.953125 -15 421.880859375 -15.0009765625 421.833984375 -15.0009765625 c 0
 418.501953125 -15.0009765625 413.896484375 -12.8447265625 411.5546875 -10.1884765625 c 2
 312.77734375 96.978515625 l 2
 311.469726562 98.1953125 309.458984375 100.301757812 308.287109375 101.681640625 c 0
 306.237304688 103.977539062 303.310546875 107.915039062 299.2109375 113.709960938 c 0
 295.842773438 118.4296875 290.857421875 126.463867188 288.083007812 131.64453125 c 0
 285.026367188 137.561523438 281.046875 147.654296875 279.201171875 154.170898438 c 0
 277.20703125 161.084960938 275.587890625 172.595703125 275.587890625 179.862304688 c 0
 275.587890625 180.014648438 275.588867188 180.262695312 275.588867188 180.416015625 c 0
 275.521484375 181.76953125 275.466796875 183.96484375 275.466796875 185.319335938 c 0
 275.466796875 204.512695312 285.009765625 231.416015625 296.76953125 245.373046875 c 0
 309.588867188 258.411132812 334.043945312 268.993164062 351.357421875 268.993164062 c 0
 352.455078125 268.993164062 354.236328125 268.944335938 355.333984375 268.884765625 c 0
 361.44921875 268.848632812 371.11328125 267.036132812 376.90625 264.837890625 c 0
 382.8046875 262.627929688 391.8125 257.728515625 397.01171875 253.90234375 c 0
 402.965820312 249.528320312 408.139648438 245.373046875 412.532226562 241.435546875 c 0
 416.924804688 237.498046875 418.583007812 235.75 421.51171875 232.6875 c 0
 424.439453125 235.75 427.3671875 238.592773438 430.491210938 241.435546875 c 0
 433.614257812 244.279296875 440.251953125 249.528320312 446.010742188 253.90234375 c 0
 451.208984375 257.73046875 460.216796875 262.629882812 466.118164062 264.837890625 c 0
 472.022460938 267.209960938 481.905273438 269.21875 488.176757812 269.321289062 c 0
 489.2734375 269.3828125 491.055664062 269.431640625 492.154296875 269.431640625 c 0
 509.467773438 269.431640625 533.922851562 258.848632812 546.741210938 245.810546875 c 0
 558.766601562 231.791992188 568.525390625 204.633789062 568.525390625 185.190429688 c 0
 568.525390625 183.872070312 568.473632812 181.733398438 568.41015625 180.416015625 c 0
 568.41015625 152.858398438 555.720703125 124.754882812 530.733398438 96.7607421875 c 2
 432.345703125 -9.8603515625 l 2
 430.034179688 -12.65234375 425.3984375 -14.9541015625 422 -15 c 0
355.822265625 258.38671875 m 0
 354.766601562 258.448242188 353.051757812 258.5 351.995117188 258.5 c 0
 336.634765625 258.5 314.956054688 249.091796875 303.602539062 237.498046875 c 0
 293.451171875 225.321289062 285.213867188 201.916015625 285.213867188 185.252929688 c 0
 285.213867188 183.916992188 285.274414062 181.75 285.350585938 180.416015625 c 0
 285.418945312 173.96484375 286.993164062 163.7734375 288.86328125 157.670898438 c 0
 290.52734375 151.788085938 294.11328125 142.674804688 296.8671875 137.330078125 c 0
 299.370117188 132.5078125 303.874023438 125.012695312 306.920898438 120.599609375 c 0
 310.825195312 115.131835938 313.65625 111.4140625 315.413085938 109.663085938 c 0
 316.430664062 108.447265625 318.180664062 106.584960938 319.317382812 105.508789062 c 2
 418.485351562 -1.6591796875 l 2
 419.284179688 -2.6142578125 420.879882812 -3.3896484375 422.048828125 -3.3896484375 c 0
 423.215820312 -3.3896484375 424.8125 -2.6142578125 425.611328125 -1.6591796875 c 2
 524.388671875 104.852539062 l 2
 547.423828125 130.66015625 559.13671875 156.249023438 559.13671875 180.744140625 c 0
 559.19921875 181.95703125 559.25 183.928710938 559.25 185.14453125 c 0
 559.25 201.998046875 550.84765625 225.600585938 540.494140625 237.828125 c 0
 529.178710938 249.251953125 507.6328125 258.525390625 492.400390625 258.525390625 c 0
 491.233398438 258.525390625 489.341796875 258.462890625 488.176757812 258.38671875 c 0
 482.9453125 258.34375 474.681640625 256.775390625 469.728515625 254.885742188 c 0
 464.489257812 252.952148438 456.487304688 248.641601562 451.8671875 245.262695312 c 0
 446.206054688 241.107421875 441.227539062 237.0625 437.127929688 233.454101562 c 0
 433.724609375 230.27734375 428.477539062 224.791992188 425.416015625 221.205078125 c 2
 422 217.37890625 l 1
 418.583007812 221.205078125 l 2
 415.537109375 224.633789062 410.333984375 229.876953125 406.967773438 232.907226562 c 0
 402.868164062 236.625 397.890625 240.561523438 392.229492188 244.716796875 c 0
 387.608398438 248.092773438 379.606445312 252.403320312 374.368164062 254.33984375 c 0
 369.412109375 256.393554688 361.103515625 258.206054688 355.822265625 258.38671875 c 0
EndSplineSet
Refer: 70 57631 N 0 0.309083 -0.513306 -0 619.367 211.298 2
Validated: 1
EndChar

StartChar: Shem.82
Encoding: 82 60539 118
Width: 928
VWidth: 0
Flags: W
HStem: -127 63<153 654> -6.63497 8.78242<457.584 488.784> 116.38 8.66032<170.871 409.565 424.991 464.609> 169.26 9.17289<185.702 523.629> 435.27 9.17289<185.702 523.629> 527 42.2227<366.445 575.056> 656 61.5557<177 648>
VStem: 85.6299 7.37012<685.389 826.523> 173.633 12.0691<178.433 435.27> 360.889 12.533<38.2749 80.0487> 523.629 12.0691<178.433 435.27> 542.257 13.0089<38.4093 80.3773> 654 54.667<-64 197.277 401.444 656>
LayerCount: 4
Fore
SplineSet
52.1298828125 786.865234375 m 29
 89.3154296875 840.908203125 l 29
 134.540039062 783.366210938 l 29
 126.834960938 781.811523438 l 29
 91.66015625 826.5234375 l 29
 93 685 l 29
 85.6298828125 685.388671875 l 29
 86.2998046875 826.912109375 l 29
 55.48046875 782.200195312 l 29
 52.1298828125 786.865234375 l 29
708.666992188 401.444335938 m 1
 819 297 l 1
 708.666992188 197.27734375 l 1
 714 -130 l 1
 153 -127 l 1
 147 -64 l 1
 654 -64 l 1
 654 242 l 1
 731 297 l 1
 654 362 l 1
 648 656 l 1
 171 656 l 1
 177 717.555664062 l 1
 708.666992188 717.555664062 l 1
 708.666992188 401.444335938 l 1
365 527 m 1
 366.4453125 569.22265625 l 1
 575.055664062 569.22265625 l 1
 577 529 l 1
 365 527 l 1
EndSplineSet
Refer: 134 57407 N 0.434478 0 0 0.330218 130.185 207.786 2
Refer: 73 57702 N 0.459762 0 0 0.311777 124.895 -30.0691 2
Validated: 5
EndChar

StartChar: Susanna.83
Encoding: 83 60540 119
Width: 978
VWidth: 0
Flags: W
HStem: 244.814 9.12695<551.897 558.548> 260.729 9.42285<552.089 594.656 786.327 831.859> 325.223 27.7773<765.99 809.222> 364.111 27.7773<786.935 812>
VStem: 85.6299 7.37012<685.389 826.523> 192.556 46.4443<-88 -38.5 378 598> 599 9.05762<56.5191 179.974> 656.444 27.7773<508.428 666.889>
LayerCount: 4
Fore
SplineSet
52.1298828125 786.865234375 m 29
 89.3154296875 840.908203125 l 29
 134.540039062 783.366210938 l 29
 126.834960938 781.811523438 l 29
 91.66015625 826.5234375 l 29
 93 685 l 29
 85.6298828125 685.388671875 l 29
 86.2998046875 826.912109375 l 29
 55.48046875 782.200195312 l 29
 52.1298828125 786.865234375 l 29
192.555664062 378 m 1
 74 269 l 1
 192.555664062 172.444335938 l 1
 192.555664062 -138.666992188 l 1
 723.111328125 -138.666992188 l 1
 722 -82 l 1
 239 -88 l 1
 233 209 l 1
 152 265 l 1
 245 353 l 1
 248 668 l 1
 670.333007812 666.888671875 l 1
 656.444335938 666.888671875 l 1
 659.221679688 461.333007812 703.666992188 380.77734375 742.555664062 347.444335938 c 0
 759.221679688 333.555664062 781.444335938 325.22265625 800.888671875 325.22265625 c 0
 803.666992188 325.22265625 809.221679688 325.22265625 812 325.22265625 c 2
 809.221679688 353 l 2
 798.111328125 353 781.444335938 353 762 369.666992188 c 0
 731.444335938 391.888671875 684.221679688 464.111328125 684.221679688 666.888671875 c 1
 695.333007812 666.888671875 l 1
 712 439.111328125 739.77734375 366.888671875 812 364.111328125 c 2
 812 391.888671875 l 2
 773.111328125 394.666992188 749.130859375 455.125 723.111328125 675.22265625 c 2
 719 710 l 1
 197 713 l 1
 192.555664062 378 l 1
534.221679688 516.888671875 m 1
 534.221679688 544.666992188 l 1
 325.888671875 544.666992188 l 1
 325.888671875 516.888671875 l 1
 534.221679688 516.888671875 l 1
673.865234375 -3.349609375 m 0
 655.833007812 3.251953125 621.313476562 26.00390625 613.94140625 36.1484375 c 0
 600.072265625 55.23046875 599.4921875 58.3681640625 599 117 c 0
 598.491210938 177.625976562 598.80078125 176.12109375 579.563476562 211.3515625 c 0
 569.588867188 229.623046875 556.796875 244.814453125 551.392578125 244.814453125 c 0
 549.502929688 244.814453125 545.499023438 247.6015625 542.494140625 251.006835938 c 0
 537.17578125 257.03515625 537.194335938 257.366210938 543.243164062 263.569335938 c 0
 548.284179688 268.740234375 553.27734375 269.979492188 569.749023438 270.15234375 c 0
 587.447265625 270.334960938 592.321289062 269.060546875 607.838867188 260.192382812 c 0
 617.625976562 254.599609375 627.334960938 248.655273438 629.4140625 246.985351562 c 0
 631.491210938 245.315429688 633.493164062 244.485351562 633.861328125 245.142578125 c 0
 634.231445312 245.798828125 635.970703125 249.073242188 637.73046875 252.419921875 c 0
 639.490234375 255.765625 649.243164062 265.006835938 659.403320312 272.955078125 c 0
 679.879882812 288.967773438 691.235351562 291.197265625 708.0859375 282.510742188 c 0
 721.592773438 275.544921875 742.787109375 253.743164062 742.787109375 246.814453125 c 0
 742.787109375 241.662109375 743.508789062 241.89453125 748.751953125 248.731445312 c 0
 758.12109375 260.947265625 789.209960938 270.262695312 814.432617188 268.411132812 c 0
 833.8828125 266.984375 846.59375 261.017578125 846.59375 253.314453125 c 0
 846.59375 251.815429688 839.40625 243.788085938 830.620117188 235.478515625 c 0
 820.940429688 226.321289062 810.415039062 212.109375 803.909179688 199.41015625 c 2
 793.172851562 178.454101562 l 1
 796.517578125 146.991210938 l 2
 801.647460938 98.7158203125 798.256835938 73.173828125 783.451171875 48.6025390625 c 0
 781.434570312 45.2568359375 776.005859375 36.015625 771.384765625 28.068359375 c 0
 766.764648438 20.12109375 761.091796875 13.619140625 758.77734375 13.619140625 c 0
 756.462890625 13.619140625 752.252929688 12.3349609375 749.419921875 10.76171875 c 0
 717.430664062 -6.978515625 695.146484375 -11.140625 673.865234375 -3.349609375 c 0
708.4765625 4.1552734375 m 0
 709.373046875 5.64453125 713.790039062 7.78515625 718.290039062 8.9169921875 c 0
 722.791992188 10.0478515625 733.381835938 14.2978515625 741.82421875 18.361328125 c 0
 754.860351562 24.63671875 759.219726562 29.1171875 770.754882812 48.1015625 c 0
 789.061523438 78.2275390625 791.875 94.6875 787.327148438 145.080078125 c 2
 783.838867188 183.758789062 l 1
 794.615234375 204.399414062 l 2
 801.060546875 216.745117188 811.586914062 230.724609375 820.803710938 239.178710938 c 0
 829.278320312 246.954101562 835.352539062 254.224609375 834.301757812 255.336914062 c 0
 833.249023438 256.447265625 825.086914062 258.12890625 816.162109375 259.075195312 c 0
 793.383789062 261.486328125 761.904296875 250.782226562 755.049804688 238.295898438 c 0
 748.868164062 227.037109375 739.59375 227.80078125 735.45703125 239.912109375 c 0
 728.796875 259.409179688 699.991210938 280.978515625 685.716796875 277.155273438 c 0
 674.094726562 274.044921875 649.572265625 252.655273438 644.1484375 240.901367188 c 0
 638.431640625 228.516601562 632.522460938 226.588867188 626.54296875 235.162109375 c 0
 624.413085938 238.219726562 614.66015625 245.28125 604.873046875 250.853515625 c 0
 590.568359375 258.998046875 583.94921875 260.935546875 571.131835938 260.729492188 c 0
 562.36328125 260.58984375 553.75390625 259.00390625 552.001953125 257.208007812 c 0
 549.732421875 254.880859375 550.094726562 253.94140625 553.256835938 253.94140625 c 0
 559.840820312 253.94140625 578.080078125 233.458984375 588.475585938 214.39453125 c 0
 608.235351562 178.15234375 607.6796875 180.84765625 608.057617188 119.63671875 c 0
 608.399414062 64.255859375 608.591796875 62.5810546875 616.1640625 49.330078125 c 0
 628.03125 28.5595703125 673.584960938 2.298828125 698.864257812 1.654296875 c 0
 703.254882812 1.5419921875 707.580078125 2.6689453125 708.4765625 4.1552734375 c 0
368 -27 m 1
 269.318359375 69.7978515625 l 1
 288.115234375 89.1572265625 l 1
 367.413085938 16.412109375 l 1
 508.38671875 194.756835938 l 1
 529.532226562 180.08984375 l 1
 368 -27 l 1
EndSplineSet
Validated: 41
EndChar

StartChar: Terah.84
Encoding: 84 60541 120
Width: 950
VWidth: 0
Flags: W
HStem: -130 63<159 660> 41.523 10.6931<355.56 412.739> 58.0817 11.1724<234.906 285.336> 99.5014 11.2245<457.816 497.939> 169.45 3.27246<253.443 443> 222.087 10.2572<320.582 350.064> 241.612 9.98887<231.277 271.822> 258.854 10.3133<389.084 433.346> 524 42.2227<372.445 581.056> 653 61.5557<183 654>
VStem: 85.6299 7.37012<685.389 826.523> 190.94 10.607<101.126 141.798 180.924 216.222> 249.271 13.5303<-18.5127 64.2578> 253.443 6.92383<139.346 168.796 172.723 201.519> 431.312 12.2998<-22.2324 60.5371> 436.94 6.05957<140 168.796 172.723 202.827> 446.159 12.3696<77.0474 101.27> 529.594 11.0754<140.566 182.499> 660 54.667<-67 194.277 398.444 653>
LayerCount: 4
Fore
SplineSet
52.1298828125 786.865234375 m 29xfff0e0
 89.3154296875 840.908203125 l 29
 134.540039062 783.366210938 l 29
 126.834960938 781.811523438 l 29
 91.66015625 826.5234375 l 29
 93 685 l 29
 85.6298828125 685.388671875 l 29
 86.2998046875 826.912109375 l 29
 55.48046875 782.200195312 l 29
 52.1298828125 786.865234375 l 29xfff0e0
714.666992188 398.444335938 m 1
 825 294 l 1
 714.666992188 194.27734375 l 1
 720 -133 l 1
 159 -130 l 1
 153 -67 l 1
 660 -67 l 1
 660 239 l 1
 737 294 l 1
 660 359 l 1
 654 653 l 1
 177 653 l 1
 183 714.555664062 l 1
 714.666992188 714.555664062 l 1
 714.666992188 398.444335938 l 1
371 524 m 1
 372.4453125 566.22265625 l 1
 581.055664062 566.22265625 l 1
 583 526 l 1
 371 524 l 1
253.443359375 172.72265625 m 1xfff5e0
 443 172.72265625 l 1
 443 140 l 1
 436.940429688 140 l 1
 436.940429688 168.795898438 l 1
 260.3671875 168.795898438 l 1
 260.3671875 139.345703125 l 1
 253.443359375 139.345703125 l 1
 253.443359375 172.72265625 l 1xfff5e0
443 169.450195312 m 1
 253.443359375 169.450195312 l 1
 253.443359375 201.518554688 l 1
 260.3671875 201.518554688 l 1
 260.3671875 172.72265625 l 1
 436.940429688 172.72265625 l 1
 436.940429688 202.827148438 l 1
 443 202.827148438 l 1
 443 169.450195312 l 1
431.311523438 60.537109375 m 1xfff2e0
 443.611328125 60.537109375 l 1
 443.611328125 -22.232421875 l 1
 431.311523438 -22.232421875 l 1
 431.311523438 60.537109375 l 1xfff2e0
249.271484375 64.2578125 m 1xfff8e0
 262.801757812 64.2578125 l 1
 262.801757812 -18.5126953125 l 1
 249.271484375 -18.5126953125 l 1
 249.271484375 64.2578125 l 1xfff8e0
EndSplineSet
Refer: 510 57960 N 0.418864 0 0 0.370723 149.054 50.1745 2
Validated: 5
EndChar

StartChar: Zacchaeus.85
Encoding: 85 60542 121
Width: 832
VWidth: 0
Flags: W
HStem: -129 63<120 621> 3.05905 13.6359<294.874 385.936> 525 42.2227<333.445 542.056> 654 61.5557<144 615>
VStem: 85.6299 7.37012<685.389 826.523> 496.215 16.4654<106.901 185.955> 621 54.667<-66 195.277 399.444 654>
LayerCount: 4
Fore
SplineSet
52.1298828125 786.865234375 m 29
 89.3154296875 840.908203125 l 29
 134.540039062 783.366210938 l 29
 126.834960938 781.811523438 l 29
 91.66015625 826.5234375 l 29
 93 685 l 29
 85.6298828125 685.388671875 l 29
 86.2998046875 826.912109375 l 29
 55.48046875 782.200195312 l 29
 52.1298828125 786.865234375 l 29
675.666992188 399.444335938 m 1
 786 295 l 1
 675.666992188 195.27734375 l 1
 681 -132 l 1
 120 -129 l 1
 114 -66 l 1
 621 -66 l 1
 621 240 l 1
 698 295 l 1
 621 360 l 1
 615 654 l 1
 138 654 l 1
 144 715.555664062 l 1
 675.666992188 715.555664062 l 1
 675.666992188 399.444335938 l 1
332 525 m 1
 333.4453125 567.22265625 l 1
 542.055664062 567.22265625 l 1
 544 527 l 1
 332 525 l 1
EndSplineSet
Refer: 500 57927 N 0.608159 0 0 0.497159 113.341 61.0616 2
Refer: 67 57494 N 0.216128 0 0 0.213503 220.343 94.147 2
Validated: 1
EndChar

StartChar: Nahor.86
Encoding: 86 60526 122
Width: 871
VWidth: 75
Flags: W
HStem: -130 63<161 662> -16 15<307.399 405.308> 262.55 15<280.232 357.178> 419 15<303.066 361.29> 524 42.2227<374.445 583.056> 653 61.5557<185 656>
VStem: 85.6299 7.37012<685.389 826.523> 185.155 15.5557<102.483 185.384> 415.845 15.5557<171.2 205.258> 545.423 15.5547<134.594 241.152> 662 54.667<-67 194.277 398.444 653>
LayerCount: 4
Fore
SplineSet
52.1298828125 786.865234375 m 29
 89.3154296875 840.908203125 l 29
 134.540039062 783.366210938 l 29
 126.834960938 781.811523438 l 29
 91.66015625 826.5234375 l 29
 93 685 l 29
 85.6298828125 685.388671875 l 29
 86.2998046875 826.912109375 l 29
 55.48046875 782.200195312 l 29
 52.1298828125 786.865234375 l 29
716.666992188 398.444335938 m 1
 827 294 l 1
 716.666992188 194.27734375 l 1
 722 -133 l 1
 161 -130 l 1
 155 -67 l 1
 662 -67 l 1
 662 239 l 1
 739 294 l 1
 662 359 l 1
 656 653 l 1
 179 653 l 1
 185 714.555664062 l 1
 716.666992188 714.555664062 l 1
 716.666992188 398.444335938 l 1
373 524 m 1
 374.4453125 566.22265625 l 1
 583.055664062 566.22265625 l 1
 585 526 l 1
 373 524 l 1
353 -16 m 0
 260.349609375 -15.8349609375 185.155273438 56.8076171875 185.155273438 146.149414062 c 0
 185.155273438 146.232421875 185.155273438 146.3671875 185.155273438 146.450195312 c 0
 185.241210938 218.734375 246.149414062 277.467773438 321.111328125 277.549804688 c 0
 381.905273438 277.467773438 431.314453125 229.822265625 431.400390625 171.200195312 c 2
 415.844726562 171.200195312 l 2
 415.758789062 221.54296875 373.318359375 262.467773438 321.111328125 262.549804688 c 0
 254.650390625 262.549804688 200.711914062 210.537109375 200.711914062 146.450195312 c 0
 200.7109375 146.3671875 200.7109375 146.232421875 200.7109375 146.149414062 c 0
 200.7109375 65.087890625 268.936523438 -0.8349609375 353 -1 c 0
 459.216796875 -0.91796875 545.422851562 82.2763671875 545.422851562 184.700195312 c 0
 545.422851562 184.782226562 545.422851562 184.916992188 545.421875 185 c 0
 545.421875 314.002929688 436.84765625 418.834960938 303.06640625 419 c 1
 303.06640625 434 l 1
 445.43359375 433.834960938 560.977539062 322.283203125 560.977539062 185 c 0
 560.977539062 184.916992188 560.977539062 184.782226562 560.977539062 184.700195312 c 0
 560.977539062 73.99609375 467.803710938 -15.9169921875 353 -16 c 0
EndSplineSet
Validated: 1
EndChar

StartChar: Elisha.87
Encoding: 87 60508 123
Width: 978
VWidth: 0
Flags: W
HStem: -112 63<182 683> 91.8223 14.1338<159.375 332.075 356 561.975 609.153 616.975> 391.57 14.4297<240.67 532> 542 42.2227<395.445 604.056> 671 61.5557<206 677>
VStem: 101.63 7.37012<696.389 837.523> 332.075 24.2002<27.876 91.2363> 373.317 16.339<401.884 474.619> 683 54.667<-49 212.277 416.444 671>
LayerCount: 4
Fore
SplineSet
68.1298828125 797.865234375 m 29
 105.315429688 851.908203125 l 29
 150.540039062 794.366210938 l 29
 142.834960938 792.811523438 l 29
 107.66015625 837.5234375 l 29
 109 696 l 29
 101.629882812 696.388671875 l 29
 102.299804688 837.912109375 l 29
 71.48046875 793.200195312 l 29
 68.1298828125 797.865234375 l 29
616.974609375 105.956054688 m 1
 617.708984375 91.822265625 l 1
 609.153320312 91.822265625 l 1
 609.153320312 91.0224609375 l 1
 332.075195312 5.4755859375 l 1
 332.075195312 91.236328125 l 1
 159.375 92 l 1
 159.375 106.595703125 l 1
 616.974609375 105.956054688 l 1
356.275390625 27.8759765625 m 1
 561.974609375 91.236328125 l 1
 356 92 l 1
 356.275390625 27.8759765625 l 1
240.669921875 406 m 1
 532 406 l 1
 532 391.5703125 l 1
 240.669921875 391.5703125 l 1
 240.669921875 406 l 1
737.666992188 416.444335938 m 1
 848 312 l 1
 737.666992188 212.27734375 l 1
 743 -115 l 1
 182 -112 l 1
 176 -49 l 1
 683 -49 l 1
 683 257 l 1
 760 312 l 1
 683 377 l 1
 677 671 l 1
 200 671 l 1
 206 732.555664062 l 1
 737.666992188 732.555664062 l 1
 737.666992188 416.444335938 l 1
394 542 m 1
 395.4453125 584.22265625 l 1
 604.055664062 584.22265625 l 1
 606 544 l 1
 394 542 l 1
EndSplineSet
Refer: 70 57631 N 0.395246 0 0 0.368427 197.924 206.974 2
Validated: 5
EndChar

StartChar: Gamaliel.88
Encoding: 88 60237 124
Width: 926
VWidth: 0
Flags: W
HStem: -112 63<157 658> 162.759 4.7352<338.044 384.78 389.279 436.014> 542 42.2227<370.445 579.056> 671 61.5557<181 652>
VStem: 101.63 7.37012<696.389 837.523> 182.5 13.472<71.1002 279.748> 384.78 4.49809<61.8501 162.759 167.494 204.95> 574.946 13.3375<72.7251 279.977> 658 54.667<-49 212.277 416.444 671>
LayerCount: 4
Fore
SplineSet
68.1298828125 797.865234375 m 29
 105.315429688 851.908203125 l 29
 150.540039062 794.366210938 l 29
 142.834960938 792.811523438 l 29
 107.66015625 837.5234375 l 29
 109 696 l 29
 101.629882812 696.388671875 l 29
 102.299804688 837.912109375 l 29
 71.48046875 793.200195312 l 29
 68.1298828125 797.865234375 l 29
712.666992188 416.444335938 m 1
 823 312 l 1
 712.666992188 212.27734375 l 1
 718 -115 l 1
 157 -112 l 1
 151 -49 l 1
 658 -49 l 1
 658 257 l 1
 735 312 l 1
 658 377 l 1
 652 671 l 1
 175 671 l 1
 181 732.555664062 l 1
 712.666992188 732.555664062 l 1
 712.666992188 416.444335938 l 1
369 542 m 1
 370.4453125 584.22265625 l 1
 579.055664062 584.22265625 l 1
 581 544 l 1
 369 542 l 1
EndSplineSet
Refer: 388 57898 N 0.485 0 0 0.45 134 14.6 2
Refer: 63 57400 N 0.161934 0 0 0.17047 321.851 82.7799 2
Validated: 1
EndChar

StartChar: Miriam.89
Encoding: 89 58245 125
Width: 989
VWidth: 0
Flags: W
HStem: 0.999991 8.75489<434.901 486.559> 386.89 27.7773<762.434 805.666> 425.778 27.7773<783.379 808.444> 433.368 13.4615<340.842 547.306>
VStem: 69.3145 7.37012<667.48 808.615> 189 46.4443<-26.333 23.167 439.667 659.667> 363 9.34071<67.6712 118.428> 443.357 11.4257<442.699 510.842> 652.889 27.7773<570.095 728.556>
LayerCount: 4
Fore
SplineSet
35.814453125 768.95703125 m 29xcf80
 73 823 l 29
 118.224609375 765.458007812 l 29
 110.51953125 763.903320312 l 29
 75.3447265625 808.615234375 l 29
 76.6845703125 667.091796875 l 29
 69.314453125 667.48046875 l 29
 69.984375 809.00390625 l 29
 39.1650390625 764.291992188 l 29
 35.814453125 768.95703125 l 29xcf80
189 439.666992188 m 5
 70.4443359375 330.666992188 l 5
 189 234.111328125 l 5
 189 -77 l 5
 719.555664062 -77 l 5
 718.444335938 -20.3330078125 l 5
 235.444335938 -26.3330078125 l 5
 229.444335938 270.666992188 l 5
 148.444335938 326.666992188 l 5
 241.444335938 414.666992188 l 5
 244.444335938 729.666992188 l 5
 666.77734375 728.555664062 l 5
 652.888671875 728.555664062 l 5
 655.666015625 523 700.111328125 442.444335938 739 409.111328125 c 4
 755.666015625 395.22265625 777.888671875 386.889648438 797.333007812 386.889648438 c 4
 800.111328125 386.889648438 805.666015625 386.889648438 808.444335938 386.889648438 c 6
 805.666015625 414.666992188 l 6
 794.555664062 414.666992188 777.888671875 414.666992188 758.444335938 431.333984375 c 4
 727.888671875 453.555664062 680.666015625 525.778320312 680.666015625 728.555664062 c 5
 691.77734375 728.555664062 l 5
 708.444335938 500.778320312 736.221679688 428.555664062 808.444335938 425.778320312 c 6
 808.444335938 453.555664062 l 6xef80
 769.555664062 456.333984375 745.575195312 516.791992188 719.555664062 736.889648438 c 6
 715.444335938 771.666992188 l 5
 193.444335938 774.666992188 l 5
 189 439.666992188 l 5
530.666015625 578.555664062 m 5
 530.666015625 606.333984375 l 5
 322.333007812 606.333984375 l 5
 322.333007812 578.555664062 l 5
 530.666015625 578.555664062 l 5
EndSplineSet
Refer: 562 57632 S -0.27639 0 0 0.345166 574.945 274.937 2
Refer: 500 57927 S -0.345004 0 0 0.319199 589.542 38.2403 2
Validated: 21
EndChar

StartChar: Judas.90
Encoding: 90 60268 126
Width: 1022
VWidth: 0
Flags: W
HStem: -148.496 73.5881<227.402 787.43> -21.667 13.1891<300.405 656.939> 360.811 13.1891<300.405 656.939> 615.418 49.3189<465.995 699.185> 766.099 71.9011<254.23 780.723>
VStem: 129.314 7.37012<717.48 858.615> 287.672 12.7336<-8.47785 360.811> 656.939 12.7336<-8.47785 360.811> 787.43 61.1079<-74.9082 230.28 468.761 766.099>
LayerCount: 4
Fore
SplineSet
95.814453125 818.95703125 m 25
 133 873 l 25
 178.224609375 815.458007812 l 25
 170.51953125 813.903320312 l 25
 135.344726562 858.615234375 l 25
 136.684570312 717.091796875 l 25
 129.314453125 717.48046875 l 25
 129.984375 859.00390625 l 25
 99.1650390625 814.291992188 l 25
 95.814453125 818.95703125 l 25
EndSplineSet
Refer: 597 57419 N 0.4584 0 0 0.4748 241.832 33.7265 2
Refer: 957 -1 S 1 0 0 0.947582 190 56.2422 2
Validated: 1
EndChar

StartChar: twin.141
Encoding: 141 60443 130
Width: 1292
VWidth: 0
Flags: W
HStem: -70 63<154 451.281> -67 63<802.99 1095.29> 27.8857 12.0476<276.82 286.549> 30.8857 12.0476<923.753 933.32> 105.974 20.7147<550 763.664> 244.311 20.7147<550 763.664> 311.685 11.3152<213.616 248.896 313.573 350.02> 314.685 11.3152<861.608 896.297 959.891 995.727> 443.83 22.665<568.2 801.439> 555.803 19.8076<568.2 801.533> 584 42.2227<280.653 404.437> 587 42.2227<927.522 1049.23> 713 61.5557<168.241 447.72> 716 61.5557<816.992 1091.79>
VStem: 174.547 7.12432<203.304 262.524> 381.975 6.78018<203.692 261.611> 451.281 32.438<-7 254.277 458.444 713> 763.664 22.5212<126.689 244.311> 763.664 24.6395<126.689 243.488> 823.193 7.00501<206.304 265.524> 1027.15 6.66664<206.692 264.611> 1095.29 31.8948<-4 257.277 461.444 716>
LayerCount: 4
Fore
SplineSet
568.200195312 555.802734375 m 5x0cc39c
 567.359375 575.610351562 l 5
 802 577 l 5
 801.533203125 555.802734375 l 5
 568.200195312 555.802734375 l 5x0cc39c
568.200195312 443.830078125 m 5
 566.799804688 466.495117188 l 5
 801.439453125 465.10546875 l 5
 801.533203125 443.830078125 l 5
 568.200195312 443.830078125 l 5
EndSplineSet
Refer: 85 57347 S 0.593375 0 0 1 94.6622 47 2
Refer: 85 57347 S 0.583438 0 0 1 744.646 50 2
Refer: 78 57755 S 0.264782 0 0 0.348798 523.522 80.8606 2
Validated: 1
EndChar

StartChar: Bar_JesusNotChrist.147
Encoding: 147 60553 131
Width: 1003
VWidth: 0
Flags: W
HStem: -102 63<299 800> 287.589 21.25<243.107 759.343> 390.93 18.4111<39 361.777> 513.88 16.8604<39 361.777> 552 42.2227<512.445 721.056> 681 61.5557<323 794>
VStem: 162.314 7.37012<676.48 817.615> 361.777 37.2227<409.341 513.88> 371.19 10.6354<222.101 281.705> 594.473 9.49488<225.05 285.859> 800 54.667<-39 222.277 426.444 681>
LayerCount: 4
Fore
SplineSet
399 390 m 1xff60
 39 390.9296875 l 1
 39 409.340820312 l 1
 361.77734375 409.340820312 l 1
 361.77734375 513.879882812 l 1
 39 513.879882812 l 1
 39 532.290039062 l 1
 395.799804688 530.740234375 l 1
 399 390 l 1xff60
128.814453125 777.95703125 m 29
 166 832 l 29
 211.224609375 774.458007812 l 29
 203.51953125 772.903320312 l 29
 168.344726562 817.615234375 l 29
 169.684570312 676.091796875 l 29
 162.314453125 676.48046875 l 29
 162.984375 818.00390625 l 29
 132.165039062 773.291992188 l 29
 128.814453125 777.95703125 l 29
243.107421875 308.838867188 m 1
 759.342773438 308.838867188 l 1
 759.342773438 287.588867188 l 1
 243.107421875 287.588867188 l 1
 243.107421875 308.838867188 l 1
854.666992188 426.444335938 m 1
 965 322 l 1
 854.666992188 222.27734375 l 1
 860 -105 l 1
 299 -102 l 1
 293 -39 l 1
 800 -39 l 1
 800 267 l 1
 877 322 l 1
 800 387 l 1
 794 681 l 1
 317 681 l 1
 323 742.555664062 l 1
 854.666992188 742.555664062 l 1
 854.666992188 426.444335938 l 1
511 552 m 1
 512.4453125 594.22265625 l 1
 721.055664062 594.22265625 l 1
 723 554 l 1
 511 552 l 1
EndSplineSet
Refer: 724 57639 N 0.56214 0 0 0.407893 226.537 13.6811 2
Validated: 1
EndChar

StartChar: Matthat.154
Encoding: 154 60690 132
Width: 919
VWidth: 0
Flags: W
HStem: -62 63<171 672> 33.6237 17.4866<318.613 528.287> 60.8594 7.5791<55.4453 216.168> 210.691 9.75091<365.929 499.999> 304.371 16.8468<227.403 268.465> 538.57 19.5769<378.7 461.743> 592 42.223<384.445 593.056> 721 61.556<195 666>
VStem: 103.314 7.371<667.48 808.615> 191.499 14.0345<205.797 277.34> 289.105 13.0701<296.047 427.765> 541.589 13.0388<60.5278 150.327> 672 54.667<1 262.277 466.444 721>
LayerCount: 4
Fore
SplineSet
69.8145 768.957 m 1
 107 823 l 1
 152.225 765.458 l 1
 144.52 763.903 l 1
 109.345 808.615 l 1
 110.685 667.092 l 1
 103.314 667.48 l 1
 103.984 809.004 l 1
 73.165 764.292 l 1
 69.8145 768.957 l 1
232.68 59.7197 m 1
 38.6396 60.8594 l 1
 135 214 l 1
 232.68 59.7197 l 1
55.4453 68.4385 m 1
 216.168 68.4385 l 1
 135.073 195.105 l 1
 55.4453 68.4385 l 1
726.667 466.444 m 1
 837 362 l 1
 726.667 262.277 l 1
 732 -65 l 1
 171 -62 l 1
 165 1 l 1
 672 1 l 1
 672 307 l 1
 749 362 l 1
 672 427 l 1
 666 721 l 1
 189 721 l 1
 195 782.556 l 1
 726.667 782.556 l 1
 726.667 466.444 l 1
383 592 m 1
 384.445 634.223 l 1
 593.056 634.223 l 1
 595 594 l 1
 383 592 l 1
528.286607608 33.623656832 m 1
 315.451749064 33.623656832 l 2
 313.562309134 34.607571584 310.671489748 36.645276032 308.997782608 38.170564224 c 0
 302.842523092 44.2920499712 294.935797804 56.5907325696 291.34989211 65.623863168 c 0
 289.628297032 69.491220992 286.560150034 75.5231912704 284.5009687 79.0881353728 c 0
 276.324933028 92.546804992 261.51475846 112.36637332 251.443119064 123.327976832 c 2
 249.730532608 125.251552205 l 2
 234.091090678 140.189367373 212.790915166 169.645118541 202.185396382 190.999656832 c 0
 196.286645524 203.398367616 191.4988 225.363021184 191.4988 240.027946368 c 0
 191.4988 255.65097664 196.876473196 278.809169792 203.502077608 291.720296832 c 0
 212.75203585 308.0036768 232.725573238 321.218224768 248.0871703 321.218224768 c 0
 255.35807653 321.218224768 266.53825057 317.717553024 273.042475654 313.402932608 c 0
 275.448726004 311.401739392 279.106226536 307.719140992 281.208554428 305.185387392 c 0
 283.954287586 301.979953024 288.9104521 297.82774464 292.271616382 295.9172 c 1
 292.477392274 297.254896 292.643814712 299.448087936 292.643814712 300.812852608 c 0
 292.643814712 302.178246784 292.477392274 304.372068224 292.271616382 305.709764224 c 2
 292.271616382 311.480427392 l 2
 292.271616382 320.922987392 291.34989211 330.714292608 290.691314428 339.98248 c 0
 289.815107404 349.076294784 289.10484868 363.89733696 289.10484868 373.065433216 c 0
 289.10484868 375.759710336 289.16648662 380.130986112 289.2423487 382.824004224 c 0
 293.193340654 468.331421056 326.91024211 529.708061056 381.43611211 551.040692608 c 0
 391.919777428 554.963761536 409.26801271 558.14653376 420.160384984 558.14653376 c 0
 442.000603678 558.14653376 474.923798122 546.032988288 493.648456018 531.106818944 c 0
 507.597595978 520.40147392 527.009753974 498.075485056 536.9794537 481.270875776 c 0
 570.827691382 423.741764224 583.471529428 345.053764224 574.515062608 247.480644224 c 0
 571.06523452 213.550378624 563.04044887 159.105207168 556.603551382 125.95112 c 0
 555.66523228 119.396661402 554.779542496 108.664348426 554.627818336 101.994929807 c 0
 553.442473336 75.7653614592 551.862171382 43.066216832 529.076995654 35.023044224 c 1
 528.286607608 33.623656832 l 1
318.61282711 51.1102077952 m 1
 526.574969428 51.1102077952 l 1
 538.559755654 56.0061122048 539.745100654 75.2409846272 541.589023336 101.820336873 c 0
 541.770144052 109.325818639 542.832213172 121.39030057 543.959713336 128.748824627 c 0
 550.288981498 161.331825766 558.195232648 214.8370848 561.60855211 248.180023168 c 0
 570.037303336 341.031863168 558.3156637 415.348587392 526.706305654 469.205172608 c 0
 517.61565778 484.532965504 499.914663826 504.900567424 487.1949637 514.66984 c 0
 470.196168124 527.862355328 440.419827586 538.569588864 420.729824722 538.569588864 c 0
 410.792840518 538.569588864 394.959476146 535.695903104 385.387104064 532.155572608 c 0
 335.4708037 512.571703168 306.363946018 458.538856832 302.2811437 379.676484224 c 0
 302.222350588 377.381942144 302.174936788 373.656537472 302.174936788 371.360736384 c 0
 302.174936788 362.566565504 302.871919648 348.352365184 303.730109428 339.632475776 c 0
 304.520023336 329.840541056 305.178601018 319.873604224 305.441747608 309.731035776 c 2
 305.441747608 304.660381056 l 2
 305.697782128 303.012339584 305.905454572 300.309878912 305.905454572 298.62721472 c 0
 305.905454572 293.460875392 304.104678448 285.82310336 301.885712608 281.578987392 c 0
 299.977307158 279.74209472 296.514203206 278.251429248 294.157263208 278.251429248 c 0
 293.633814856 278.251429248 292.789375078 278.331376256 292.271616382 278.431467392 c 0
 286.061356858 279.960532608 277.564803898 286.227874432 273.306096382 292.419675776 c 0
 271.703035804 294.339662976 268.929802642 297.1604704 267.115750654 298.714715776 c 0
 262.229758564 301.837055616 253.862645278 304.37143872 248.439928972 304.37143872 c 0
 236.806953142 304.37143872 221.572425064 294.473117824 214.433803336 282.277736832 c 0
 209.52078538 272.031300224 205.5332848 253.85689024 205.5332848 241.709981056 c 0
 205.5332848 229.563071872 209.52078538 211.388661888 214.433803336 201.141595776 c 0
 224.101951294 180.962215552 243.632169652 152.917119898 258.027947608 138.5412 c 2
 259.740534064 136.617624627 l 2
 270.370233886 125.373864832 286.064675824 105.00597334 294.773642608 91.1538385408 c 0
 297.104979154 87.1726663936 300.58610035 80.4356516352 302.544764428 76.115176832 c 0
 305.219851024 69.0228070656 311.120024296 59.1517436928 315.714895654 54.082536832 c 2
 318.61282711 51.1102077952 l 1
513.772984988 209.223806468 m 1
 351.910108988 210.690524468 l 1
 432.290992988 407.719569132 l 1
 513.772984988 209.223806468 l 1
365.929232526 220.441436849 m 1
 499.999041498 220.441436849 l 1
 432.352288 383.410185 l 1
 365.929232526 220.441436849 l 1
EndSplineSet
Validated: 33
EndChar

StartChar: Nicodemus.159
Encoding: 159 60331 133
Width: 1026
VWidth: 0
Flags: W
HStem: -182.656 77.6592<207.532 767.559> -43.5786 10.0732<216.952 565.047> 5.98207 27.8972<375.038 410.189> 188.745 20.14<363.323 423.26> 248.539 10.0732<216.952 565.047> 303.971 59.6502<316.159 453.562> 570.804 9.10709<344.6 427.379> 623.516 52.0479<446.125 679.313> 782.531 75.8789<234.359 760.852>
VStem: 110.859 7.37012<727.931 869.066> 204.52 12.4322<-33.5054 248.539> 222.189 10.7989<434.232 488.23> 311.426 31.7206<151.026 171.123> 375.038 35.1511<5.98207 33.8793> 376.754 29.8342<55.1091 88.1014> 441.911 31.7206<132.833 174.111> 539.097 10.6921<434.225 488.52> 565.047 12.4322<-33.5054 248.539> 767.559 61.1094<-104.997 217.074 468.746 782.531>
LayerCount: 4
Fore
SplineSet
77.359375 829.408203125 m 1xfff9e0
 114.544921875 883.451171875 l 1
 159.768554688 825.909179688 l 1
 152.064453125 824.353515625 l 1
 116.889648438 869.06640625 l 1
 118.229492188 727.54296875 l 1
 110.859375 727.930664062 l 1
 111.529296875 869.455078125 l 1
 80.7099609375 824.743164062 l 1
 77.359375 829.408203125 l 1xfff9e0
828.66796875 468.747070312 m 1
 952 340 l 1
 828.66796875 217.07421875 l 1
 834.62890625 -186.353515625 l 1
 207.532226562 -182.65625 l 1
 200.825195312 -104.997070312 l 1
 767.55859375 -104.997070312 l 1
 767.55859375 272.203125 l 1
 853.630859375 340 l 1
 767.55859375 420.125 l 1
 760.8515625 782.53125 l 1
 227.65234375 782.53125 l 1
 234.359375 858.41015625 l 1
 828.66796875 858.41015625 l 1
 828.66796875 468.74609375 l 1
 828.66796875 468.747070312 l 1
444.508789062 623.515625 m 1
 446.125 675.563476562 l 1
 679.313476562 675.563476562 l 1
 681.486328125 625.982421875 l 1
 444.508789062 623.515625 l 1
EndSplineSet
Refer: 633 57441 N 0.447551 0 0 0.362628 159.765 -1.2719 2
Refer: 64 57442 N 0.384909 0 0 0.327849 183.698 344.952 2
Validated: 5
EndChar

StartChar: mouth.352
Encoding: 352 57407 134
Width: 1033
VWidth: 0
Flags: W
HStem: -116.667 27.7783<127.778 905.556> 688.889 27.7783<127.778 905.556>
VStem: 100 27.7783<-88.8887 688.889> 905.556 27.7783<-88.8887 688.889>
LayerCount: 4
Fore
SplineSet
933.333984375 -116.666992188 m 1
 100 -116.666992188 l 1
 100 716.666992188 l 1
 933.333984375 716.666992188 l 1
 933.333984375 -116.666992188 l 1
127.778320312 -88.888671875 m 1
 905.555664062 -88.888671875 l 1
 905.555664062 688.888671875 l 1
 127.778320312 688.888671875 l 1
 127.778320312 -88.888671875 l 1
EndSplineSet
Validated: 1
EndChar

StartChar: governor.1801
Encoding: 1801 57507 173
Width: 853
VWidth: 0
Flags: W
HStem: -26 20.2773<200.126 648.55> 562.09 37.4057<154.409 733.475> 811.893 37.4057<154.409 733.475>
VStem: 733.475 61.0363<599.496 811.893> 733.475 66.7771<599.496 810.406>
LayerCount: 4
Fore
SplineSet
667 -26 m 5xe0
 182.350585938 -26 l 5
 79.0751953125 365.766601562 l 5
 266.5 242.680664062 l 5
 414.776367188 518.458007812 l 5
 562.600585938 242.680664062 l 5
 748.901367188 364.346679688 l 5
 667 -26 l 5xe0
200.125976562 -5.72265625 m 5
 648.549804688 -5.72265625 l 5
 716.049804688 318.721679688 l 5
 553.82421875 212.466796875 l 5
 414.776367188 472.022460938 l 5
 275.05078125 212.061523438 l 5
 115.076171875 317.100585938 l 5
 200.125976562 -5.72265625 l 5
EndSplineSet
Refer: 78 57755 S 0.717604 0 0 0.629845 82.6483 516.741 2
Validated: 1
EndChar

StartChar: young.1802
Encoding: 1802 57585 174
Width: 875
VWidth: 0
Flags: W
HStem: -116.36 21.2881<241.787 270.979 292.062 677.559 699.452 728.321> 507.372 21.2871<241.787 266.925 288.656 670.098 690.208 728.321> 595.644 32.5469<260.774 679.296> 812.999 30.9033<260.774 679.296>
VStem: 679.296 32.7041<628.19 812.999>
LayerCount: 4
Fore
SplineSet
728.321289062 528.659179688 m 1
 728.321289062 505.030273438 l 1
 690.208007812 505.030273438 l 1
 691.018554688 505.030273438 l 1
 493 207 l 1
 699.452148438 -95.072265625 l 1
 728.321289062 -95.072265625 l 1
 728.321289062 -116.360351562 l 1
 241.787109375 -116.360351562 l 1
 241.787109375 -95.072265625 l 1
 270.978515625 -95.072265625 l 1
 471.268554688 207.638671875 l 1
 266.924804688 507.372070312 l 1
 241.787109375 507.372070312 l 1
 241.787109375 528.659179688 l 1
 728.321289062 528.659179688 l 1
677.55859375 -95.072265625 m 1
 482.134765625 190.823242188 l 1
 292.0625 -95.072265625 l 1
 677.55859375 -95.072265625 l 1
481.971679688 224.245117188 m 1
 670.09765625 507.372070312 l 1
 288.65625 507.372070312 l 1
 481.971679688 224.245117188 l 1
712 594 m 5
 260.774414062 595.643554688 l 5
 260.774414062 628.190429688 l 5
 679.295898438 628.190429688 l 5
 679.295898438 812.999023438 l 5
 260.774414062 812.999023438 l 5
 260.774414062 845.544921875 l 5
 707.33203125 843.90234375 l 5
 712 594 l 5
EndSplineSet
Validated: 5
EndChar

StartChar: worm.1803
Encoding: 1803 59910 175
Width: 1385
VWidth: 0
Flags: W
HStem: -67 34.5146<215.109 356.798> 1.71875 35.7744<571.959 702.606> 269.351 34.207<217.084 358.608> 414.987 39.3447<259.25 975.413> 677.742 36.0322<259.25 975.413>
VStem: 103.676 22.6494<63.1632 173.11> 445.592 36.5303<121.699 185.623> 975.413 82.5869<454.332 677.742> 975.413 75.4863<454.332 677.742>
LayerCount: 4
Fore
SplineSet
1058 413 m 1xff
 259.25 414.987304688 l 1
 259.25 454.33203125 l 1
 975.413085938 454.33203125 l 1
 975.413085938 677.7421875 l 1xff
 259.25 677.7421875 l 1
 259.25 717.086914062 l 1
 1050.89941406 713.774414062 l 1xfe80
 1058 413 l 1xff
438.567382812 115.510742188 m 5
 445.240234375 110.353515625 l 1030
1062.73925781 212.456054688 m 4
 1087.35839844 194.02734375 1123.23632812 159.991210938 1142.82324219 136.481445312 c 6
 1116.12792969 114.135742188 l 6
 1098.26367188 135.342773438 1065.69042969 166.14453125 1043.41894531 182.891601562 c 4
 1024.15136719 197.879882812 988.587890625 211.43359375 964.037109375 213.143554688 c 4
 898.353515625 216.237304688 862.174804688 168.108398438 823.537109375 118.260742188 c 4
 808.982421875 98.2978515625 782.544921875 68.265625 764.52734375 51.2236328125 c 4
 739.973632812 28.3232421875 692.766601562 6.1455078125 659.15234375 1.71875 c 6
 641.940429688 1.71875 l 6
 609.606445312 2.953125 561.611328125 18.353515625 534.809570312 36.0986328125 c 4
 518.07421875 46.85546875 492.739257812 66.5693359375 478.258789062 80.1015625 c 5
 460.78125 -1.0986328125 377.786132812 -67 293 -67 c 4
 188.493164062 -67 103.67578125 16.0126953125 103.67578125 118.296875 c 4
 103.67578125 218.592773438 186.829101562 301.587890625 289.286132812 303.557617188 c 4
 289.720703125 303.561523438 290.42578125 303.563476562 290.861328125 303.563476562 c 4
 392.165039062 303.563476562 477.850585938 223.166015625 482.122070312 124.10546875 c 4
 499.76953125 105.885742188 531.241210938 79.548828125 552.372070312 65.3193359375 c 4
 575.198242188 49.958984375 616.20703125 37.4931640625 643.908203125 37.4931640625 c 4
 646.76171875 37.4931640625 651.387695312 37.6376953125 654.235351562 37.8173828125 c 4
 681.235351562 41.8994140625 719.159179688 60.2265625 738.885742188 78.7265625 c 4
 755.5 94.5693359375 779.891601562 122.446289062 793.330078125 140.94921875 c 4
 835.479492188 195.610351562 879.736328125 249.583984375 963.685546875 249.583984375 c 4
 994.276367188 247.647460938 1038.65136719 231.014648438 1062.73925781 212.456054688 c 4
287.879882812 -32.314453125 m 4
 288.263671875 -32.3173828125 288.884765625 -32.3203125 289.267578125 -32.3203125 c 4
 369.90625 -32.3203125 439.625 31.59765625 444.889648438 110.353515625 c 6
 439.270507812 115.853515625 l 5
 445.591796875 121.69921875 l 6
 442.602539062 203.112304688 372.623046875 269.186523438 289.38671875 269.186523438 c 4
 288.970703125 269.186523438 288.296875 269.182617188 287.879882812 269.1796875 c 4
 285.8515625 269.274414062 282.5546875 269.350585938 280.5234375 269.350585938 c 4
 195.405273438 269.350585938 126.325195312 201.739257812 126.325195312 118.431640625 c 4
 126.325195312 35.125 195.405273438 -32.4853515625 280.5234375 -32.4853515625 c 4
 282.5546875 -32.4853515625 285.8515625 -32.408203125 287.879882812 -32.314453125 c 4
EndSplineSet
Validated: 35
EndChar

StartChar: lake.1804
Encoding: 1804 60517 176
Width: 908
VWidth: 0
Flags: W
HStem: -112.407 14.3994<443.418 509.301> 430.411 26.5889<118.188 724> 607.981 24.3506<118.188 724>
VStem: 589.087 11.9131<-2.53917 80.7882> 724 69.8623<457 607.981>
LayerCount: 4
Fore
SplineSet
474.541015625 -112.40625 m 0
 474.44921875 -112.40625 474.301757812 -112.407226562 474.2109375 -112.407226562 c 0
 447.346679688 -112.407226562 410.096679688 -94.0478515625 391.0625 -71.427734375 c 0
 352.196289062 -24.90625 345.107421875 48.009765625 372.8515625 114.801757812 c 0
 382.262695312 137.40625 393.385742188 159.426757812 404.140625 180.71875 c 0
 409.885742188 191.948242188 415.629882812 203.323242188 421.006835938 214.697265625 c 2
 459.874023438 295.926757812 l 1
 461.70703125 300.15625 l 2
 470.262695312 320.135742188 472.462890625 325.09375 477.3515625 325.09375 c 2
 479.673828125 325.09375 l 2
 483.830078125 323.051757812 486.518554688 316.78125 490.0625 307.448242188 c 0
 490.673828125 305.84375 491.163085938 304.385742188 491.529296875 303.801757812 c 2
 551.78515625 177.65625 l 2
 556.0625 168.759765625 560.70703125 160.15625 565.3515625 151.40625 c 0
 573.987304688 136.3515625 585.923828125 110.544921875 591.99609375 93.8017578125 c 1
 593.462890625 89.5244140625 594.7265625 85.1494140625 595.78515625 80.6767578125 c 0
 598.663085938 69.1484375 601 50.029296875 601 38 c 0
 601 -30.4482421875 555.2421875 -96.2626953125 498.86328125 -108.90625 c 0
 492.228515625 -110.654296875 481.33203125 -112.221679688 474.541015625 -112.40625 c 0
477.3515625 304.09375 m 2
 475.518554688 300.15625 473.685546875 295.635742188 472.70703125 293.15625 c 2
 470.506835938 288.051757812 l 1
 431.640625 207.114257812 l 2
 426.140625 195.59375 420.396484375 184.21875 414.529296875 172.84375 c 0
 403.896484375 151.84375 392.896484375 130.114257812 383.729492188 108.09375 c 0
 358.307617188 46.5517578125 364.41796875 -19.8017578125 399.49609375 -61.0732421875 c 0
 416.702148438 -81.4609375 450.34765625 -98.0078125 474.596679688 -98.0078125 c 0
 480.6484375 -98.0078125 490.370117188 -96.814453125 496.295898438 -95.34375 c 0
 547.516601562 -84.208984375 589.086914062 -24.75390625 589.086914062 37.3671875 c 0
 589.086914062 48.6044921875 586.831054688 66.439453125 584.051757812 77.1767578125 c 0
 583.07421875 81.2607421875 581.93359375 85.2470703125 580.629882812 89.1357421875 c 1
 574.790039062 105.1484375 563.345703125 129.844726562 555.084960938 144.260742188 c 0
 550.318359375 153.15625 545.551757812 162.051757812 541.151367188 171.09375 c 2
 480.896484375 295.926757812 l 2
 480.896484375 296.948242188 479.673828125 298.697265625 478.940429688 300.885742188 c 2
 477.3515625 304.09375 l 2
793.862304688 429.067382812 m 1
 118.1875 430.411132812 l 1
 118.1875 457 l 1
 724 457 l 1
 724 607.981445312 l 1
 475.057617188 607.981445312 297.80078125 607.981445312 118.1875 607.981445312 c 1
 118.1875 634.571289062 l 1
 787.85546875 632.33203125 l 1
 793.862304688 429.067382812 l 1
EndSplineSet
Validated: 33
EndChar

StartChar: very.1984
Encoding: 1984 57873 292
Width: 1023
VWidth: 0
Flags: W
LayerCount: 4
Fore
SplineSet
515.833007812 -83.0556640625 m 1
 100 669.72265625 l 1
 148 690 l 1
 520 51 l 1
 859 696 l 1
 923.888671875 669.72265625 l 1
 515.833007812 -83.0556640625 l 1
EndSplineSet
Validated: 1
EndChar

StartChar: baby.2009
Encoding: 2009 57510 317
Width: 771
VWidth: 0
Flags: W
HStem: 313.137 22.5134<147.81 539.4> 463.487 22.5134<147.81 539.4>
VStem: 348.704 21.4692<151.554 246.066> 539.4 41.2754<335.651 463.487> 539.4 45.1576<335.651 462.592>
LayerCount: 4
Fore
SplineSet
379 530 m 1xe0
 131.580078125 859.340820312 l 1
 160.139648438 868.211914062 l 1
 381.479492188 588.649414062 l 1
 583.184570312 870.836914062 l 1
 621.79296875 859.340820312 l 1
 379 530 l 1xe0
EndSplineSet
Refer: 70 57631 N 0.519347 0 0 0.478734 118.24 -101.712 2
Refer: 78 57755 S 0.485275 0 0 0.379086 99.283 285.843 2
Validated: 1
EndChar

StartChar: eunuch.2010
Encoding: 2010 60303 318
Width: 1224
VWidth: 0
Flags: W
HStem: -50.9996 25.2244<812.459 913.989> -11.9385 26.355<598.218 687.765> 85.7684 26.478<994.031 1065.28> 221.674 28.5658<63.9998 233.56 257.05 459.28 505.6 513.28> 374.94 24.1961<750.35 802.7> 420.999 23.5632<591.774 663.769> 461.673 24.3284<871.986 950.581>
VStem: 233.56 23.76<92.4287 220.489> 520.15 18.8344<89.5998 185.545 277.84 361.105> 787.458 10.6877<252.889 302.471> 973.332 21.9642<32.8004 89.9411> 1121.49 19.6661<182.638 281.556>
LayerCount: 4
Fore
SplineSet
470.380830693 472.143786364 m 1
 577.226669666 748.447283024 l 1
 569.671053724 752.73617633 l 1
 477.218676774 506.155286849 l 2
 476.735744337 504.867251715 475.667391058 503.601465357 474.329475519 502.918202899 c 0
 471.257936284 501.349593083 467.382231341 502.775337928 466.059440794 505.960477672 c 2
 364.550127416 750.384169005 l 1
 361.456946887 748.552713063 l 1
 470.380830693 472.143786364 l 1
464.851388045 453.444763201 m 2
 348.417794295 748.910583513 l 2
 347.32000813 751.696362766 348.592028457 754.8811776 350.943088161 756.2732277 c 2
 364.383517848 764.231235512 l 2
 367.549840189 766.105998337 371.658469491 764.555498184 372.981574831 761.369600453 c 2
 471.315506595 524.591892228 l 1
 560.902416976 763.530260026 l 2
 562.322529919 767.317860997 566.94103303 768.08438601 569.482439048 766.641774403 c 2
 587.651384361 756.32829784 l 2
 590.24597376 754.855497053 591.309333971 751.593672704 590.285613813 748.946330872 c 2
 476.029754438 453.480510559 l 2
 474.785840386 450.263746991 470.946439211 448.742945957 467.837185213 450.235403528 c 0
 466.435393154 450.908270774 465.276275107 452.366555442 464.851388045 453.444763201 c 2
EndSplineSet
Refer: 858 57963 S 0.654373 0 0 0.678598 454.713 -37.199 2
Refer: 502 57934 S 0.54 0 0 0.646767 9.9998 -27.87 2
Validated: 1
EndChar

StartChar: Latin.2011
Encoding: 2011 60328 319
Width: 968
VWidth: 0
Flags: W
HStem: -127.707 12.8242<428.376 828.702> 244.177 12.8232<428.376 828.702> 453 22.4463<77.499 237.073 259.181 449.501 493.095 500.32>
VStem: 88.5 7.3701<694.523 835.658> 237.073 22.3613<351.444 452.069> 414.078 14.2979<-114.883 244.177> 828.702 14.2979<-114.883 244.177>
LayerCount: 4
Fore
SplineSet
55 796 m 1
 92.1855 850.043 l 1
 137.41 792.501 l 1
 129.705 790.946 l 1
 94.5303 835.658 l 1
 95.8701 694.135 l 1
 88.5 694.523 l 1
 89.1699 836.047 l 1
 58.3506 791.335 l 1
 55 796 l 1
500.3203125 475.446289062 m 1
 501 453 l 1
 493.094726562 453 l 1
 493.094726562 451.729492188 l 1
 237.073242188 315.869140625 l 1
 237.073242188 452.069335938 l 1
 77.4990234375 453.282226562 l 1
 77.4990234375 476.461914062 l 1
 500.3203125 475.446289062 l 1
259.434570312 351.444335938 m 1
 449.500976562 452.069335938 l 1
 259.180664062 453.282226562 l 1
 259.434570312 351.444335938 l 1
648 440 m 1
 436.671875 822.561523438 l 1
 461.06640625 832.8671875 l 1
 650.116210938 508.126953125 l 1
 822.396484375 835.915039062 l 1
 855.373046875 822.561523438 l 1
 648 440 l 1
843 -127.70703125 m 5
 414.078125 -127.70703125 l 5
 414.078125 257 l 5
 843 257 l 5
 843 -127.70703125 l 5
428.375976562 -114.8828125 m 5
 828.702148438 -114.8828125 l 5
 828.702148438 244.176757812 l 5
 428.375976562 244.176757812 l 5
 428.375976562 -114.8828125 l 5
621.751953125 -56.982421875 m 5
 480.141601562 135.1171875 l 5
 760.702148438 135.1171875 l 5
 621.751953125 -56.982421875 l 5
495.127929688 128.479492188 m 5
 621.663085938 -43.17578125 l 5
 745.8046875 128.479492188 l 5
 495.127929688 128.479492188 l 5
EndSplineSet
Validated: 1
EndChar

StartChar: book.2080
Encoding: 2080 57898 388
Width: 1036
VWidth: 0
Flags: W
VStem: 100 27.7773<125.556 589.217> 909.166 27.5<129.167 589.727>
LayerCount: 4
Fore
SplineSet
518.333007812 -25 m 1
 508.055664062 -13.611328125 l 2
 312.5 203.611328125 129.444335938 96.111328125 121.110351562 91.388671875 c 2
 100 77.77734375 l 1
 100 597.5 l 1
 106.110351562 601.666992188 l 2
 108.055664062 601.666992188 307.77734375 736.944335938 524.166015625 507.5 c 1
 740.555664062 737.5 929.166015625 602.77734375 931.110351562 601.388671875 c 2
 936.666015625 597.22265625 l 1
 936.666015625 75 l 1
 914.166015625 92.5 l 2
 907.221679688 97.77734375 740.555664062 222.22265625 528.610351562 -13.611328125 c 2
 518.333007812 -25 l 1
245.555664062 148.888671875 m 0
 320.833007812 148.888671875 418.888671875 121.111328125 518.333007812 16.388671875 c 1
 633.888671875 139.166992188 738.055664062 160.833007812 805.555664062 156.944335938 c 0
 835.814453125 155.479492188 882.232421875 143.03515625 909.166015625 129.166992188 c 2
 909.166015625 582.77734375 l 2
 877.221679688 602.77734375 720.27734375 683.888671875 534.721679688 477.77734375 c 2
 524.444335938 466.388671875 l 1
 514.166015625 477.77734375 l 2
 330 681.944335938 161.110351562 601.666992188 127.77734375 582.5 c 2
 127.77734375 125.555664062 l 2
 158.975585938 138.435546875 211.6875 148.888671875 245.439453125 148.888671875 c 0
 245.471679688 148.888671875 245.5234375 148.888671875 245.555664062 148.888671875 c 0
EndSplineSet
Validated: 33
EndChar

StartChar: Bible.2082
Encoding: 2082 57900 390
Width: 1079
VWidth: 0
Flags: W
HStem: 329.242 10.5227<463.71 560.073 569.348 665.71>
VStem: 106.167 19.665<677.054 795.82> 143 27.7773<125.556 589.217> 560.073 9.2744<105 329.242 339.764 423> 952.166 27.5<129.167 589.727>
LayerCount: 4
Fore
SplineSet
72.5908203125 780.244140625 m 2
 111.263671875 829.963867188 l 2
 113.706054688 833.103515625 118.348632812 832.669921875 120.485351562 830.265625 c 2
 167.518554688 777.327148438 l 2
 169.809570312 774.749023438 169.404296875 770.638671875 166.654296875 768.557617188 c 0
 165.901367188 767.98828125 165.015625 767.600585938 164.087890625 767.435546875 c 2
 156.075195312 766.004882812 l 2
 154.033203125 765.639648438 151.895507812 766.396484375 150.537109375 767.923828125 c 2
 124.609375 797.078125 l 1
 125.83203125 682.909179688 l 2
 125.869140625 679.404296875 122.760742188 676.701171875 119.552734375 676.8515625 c 2
 111.887695312 677.208984375 l 2
 108.626953125 677.360351562 106.151367188 680.232421875 106.166992188 683.234375 c 2
 106.76953125 795.8203125 l 1
 85.5439453125 768.581054688 l 2
 83.1796875 765.545898438 78.4970703125 765.599609375 76.1533203125 768.487304688 c 2
 72.6689453125 772.779296875 l 2
 70.87890625 774.984375 71.009765625 778.211914062 72.5908203125 780.244140625 c 2
EndSplineSet
Refer: 63 57400 N 0.333884 0 0 0.378822 430.322 151.511 2
Refer: 388 57898 N 1 0 0 1 43 0 2
Validated: 5
EndChar

